<?xml version="1.0" standalone="no"?>
<!DOCTYPE svg PUBLIC "-//W3C//DTD SVG 1.1//EN" "http://www.w3.org/Graphics/SVG/1.1/DTD/svg11.dtd" >
<svg>
<metadata>
Created by FontForge 20120731 at Mon Jul  1 15:15:35 2019
 By www
Copyright (c) 2009-2010, Nick Curtis. All Rights Reserved. Unauthorized duplication or redistribution is expressly prohibited.
</metadata>
<defs>
<font id="HackySackNFW01-Regular" horiz-adv-x="1071" >
  <font-face 
    font-family="HackySackNFW01-Regular"
    font-weight="400"
    font-stretch="normal"
    units-per-em="2048"
    panose-1="1 0 0 0 0 0 0 0 0 0"
    ascent="1638"
    descent="-410"
    x-height="766"
    cap-height="1405"
    bbox="-338 -543 1831 1781"
    underline-thickness="102"
    underline-position="-256"
    unicode-range="U+000D-2122"
  />
<missing-glyph horiz-adv-x="2048" 
 />
    <glyph glyph-name=".notdef" horiz-adv-x="2048" 
 />
    <glyph glyph-name="glyph1" horiz-adv-x="0" 
 />
    <glyph glyph-name="glyph1" horiz-adv-x="0" 
 />
    <glyph glyph-name="uni000D" unicode="&#xd;" horiz-adv-x="292" 
 />
    <glyph glyph-name="space" unicode=" " horiz-adv-x="292" 
 />
    <glyph glyph-name="exclam" unicode="!" horiz-adv-x="283" 
d="M115 287l-45 1059q0 16 4 33t13 31q8 14 22 23q13 9 32 9t33 -9q14 -10 23 -25t14 -33q4 -18 4 -36v-6l-47 -1046h-53zM141 184q19 0 36 -7t30 -19q12 -13 19 -30t7 -36t-7 -36t-19 -29q-13 -13 -30 -20t-36 -7t-36 7t-29 20q-13 12 -20 29t-7 36t7 36t20 30q12 12 29 19
z" />
    <glyph glyph-name="quotedbl" unicode="&#x22;" horiz-adv-x="485" 
d="M242 1034l43 303q2 18 8 36q5 17 15 31t25 23t36 9q29 0 48 -22t19 -50q0 -11 -2 -21q-3 -11 -6 -20l-133 -303zM49 1034l43 303q2 18 8 36q6 17 16 31q9 14 24 23q14 9 34 9q15 0 28 -6q12 -6 22 -16q9 -10 15 -23q5 -13 5 -27q0 -22 -11 -41l-133 -303z" />
    <glyph glyph-name="numbersign" unicode="#" horiz-adv-x="907" 
d="M561 596l-137 -596h-57l141 608l-186 45l-152 -653h-55l153 666l-219 51v55l232 -53l43 186l-275 64v55l287 -66l98 422h58l-103 -434l189 -45l110 479h55l-114 -491l229 -53v-56l-242 56l-43 -187l285 -65v-56zM377 893l-43 -186l186 -45l43 186z" />
    <glyph glyph-name="dollar" unicode="$" horiz-adv-x="963" 
d="M641 1235h40q11 0 24 -2l34 147h56l-37 -159q32 -8 63 -21t62 -29l-45 -96l-52 10q-2 22 -14 39q-12 16 -31 27l-79 -342q46 -35 92 -74q45 -39 80 -85t57 -99t22 -117q0 -85 -37 -148q-37 -64 -96 -106q-60 -43 -135 -65t-151 -23l-62 -264h-55l61 264q-15 2 -31 4
q-17 1 -32 4l-64 -272h-55l66 285q-58 17 -108 46q-50 28 -86 69q-37 40 -58 92t-21 116q0 27 9 55q8 27 24 50q15 22 39 37q23 14 53 14q20 0 34 -5q13 -5 23 -14q9 -9 17 -21q8 -13 16 -28q-30 0 -56 -5q-27 -6 -47 -19q-21 -14 -32 -37q-12 -23 -12 -57q0 -49 19 -87
q18 -38 49 -66q30 -29 70 -48q39 -19 81 -31l149 639q-46 42 -78 92t-32 115q0 46 17 82q16 35 45 61q28 25 66 42q37 16 79 24l36 151h56zM508 156q58 4 116 21q57 17 102 49t73 80t28 114q0 45 -17 85q-18 40 -46 75t-62 65q-34 29 -67 53zM389 162q31 -6 64 -6l135 579
l-56 39zM559 885q12 -11 26 -20q13 -10 27 -21l78 330q-11 2 -21 3q-11 1 -22 1h-20zM569 1167q-24 -6 -45 -16q-22 -11 -38 -26q-17 -16 -27 -37t-10 -48q0 -35 19 -64t44 -52z" />
    <glyph glyph-name="percent" unicode="%" horiz-adv-x="1135" 
d="M1085 535q0 -62 -23 -129q-24 -68 -65 -125q-42 -57 -99 -94q-58 -37 -126 -37q-38 0 -66 14q-29 14 -48 38t-28 56t-9 68q0 59 22 127q22 67 62 125q40 57 96 95q55 38 121 38q36 0 66 -14q30 -15 52 -39q21 -25 33 -57zM827 236q39 0 69 24q29 23 50 58q20 34 31 74
q10 39 10 71q0 24 -6 54q-7 30 -20 56q-14 25 -35 43q-22 17 -52 17q-39 0 -70 -26t-52 -63q-22 -38 -33 -80q-12 -42 -12 -75q0 -27 7 -54q7 -28 22 -49q15 -22 38 -36zM782 1147q-62 -47 -135 -71q-74 -24 -151 -27q18 -41 18 -86q0 -62 -23 -129q-24 -68 -65 -125
q-42 -57 -99 -94q-58 -37 -126 -37q-39 0 -67 15q-29 14 -47 39q-19 24 -28 56q-10 31 -10 66q0 59 22 127q22 67 62 125q39 57 95 95q55 38 122 38q31 0 61 -5q29 -6 58 -6q115 0 214 47t167 140h82l-651 -1370h-152zM256 664q38 0 68 24q30 23 51 58q20 34 31 74
q10 39 10 71q0 25 -6 55q-7 30 -21 56q-14 25 -35 42q-22 17 -53 17q-39 0 -70 -26t-52 -63q-21 -38 -32 -80q-12 -42 -12 -75q0 -27 8 -54q7 -28 22 -49q15 -22 38 -36z" />
    <glyph glyph-name="ampersand" unicode="&#x26;" horiz-adv-x="1364" 
d="M774 428q-6 6 -9 15t-3 18q0 15 11 28t28 13q20 0 35 -15q14 -16 14 -36q0 -31 -17 -51q-18 -21 -43 -33q-26 -13 -56 -18t-54 -5q-44 0 -79 16q-36 16 -61 44q-26 28 -39 66q-14 38 -14 81q0 111 46 192q45 80 119 136t168 90q93 33 188 49q11 2 34 7q22 4 50 11
q27 6 57 15q29 9 53 20q24 10 40 22q15 12 15 25q0 6 -4 11q-5 4 -11 6q-7 2 -14 3t-11 1q-14 0 -29 -6q4 10 11 21t16 21q9 9 20 15q10 6 22 6q26 0 42 -19q16 -20 16 -44q0 -29 -14 -54q-15 -25 -39 -45q-24 -21 -54 -37q-30 -17 -61 -30q-32 -13 -62 -22t-53 -15
q63 -24 113 -64q49 -41 84 -93q34 -53 53 -115q18 -62 18 -128q0 -125 -52 -229q-53 -105 -140 -180q-87 -76 -199 -118t-231 -42q-128 0 -242 45q-115 44 -201 124q-86 79 -136 190q-50 110 -50 241q0 102 33 200q32 97 91 179q58 82 139 145q81 62 177 95q-14 28 -14 63
q0 55 28 94q28 38 71 61t94 34q51 10 96 10q40 0 88 -9q47 -9 89 -30q41 -21 69 -55t28 -84q0 -21 -5 -43q-6 -23 -17 -41q-12 -19 -29 -31q-18 -12 -43 -12q-20 0 -35 15q-16 14 -16 34q0 15 10 26q9 11 25 11q9 0 18 -5q8 -6 15 -14q2 5 2 8v9q0 42 -22 72q-23 30 -57 50
q-34 19 -74 28t-75 9q-24 0 -53 -5t-54 -17t-42 -32q-17 -21 -17 -52q0 -19 10 -35q10 -17 25 -30q15 -14 32 -26t30 -22q-110 -18 -203 -59t-161 -107t-106 -157q-38 -92 -38 -209q0 -74 18 -147q17 -74 51 -142q33 -68 80 -126q47 -59 107 -102q59 -43 129 -67
q70 -25 149 -25q105 0 198 41q92 41 161 112q69 70 109 164q40 93 40 198q0 68 -22 134q-23 65 -64 116q-42 51 -101 83q-59 31 -132 31q-59 0 -117 -24q-58 -25 -104 -66q-47 -41 -76 -95q-29 -55 -29 -116q0 -35 14 -69q13 -34 36 -60q23 -27 55 -43q31 -16 67 -16
q14 0 26 4z" />
    <glyph glyph-name="quotesingle" unicode="'" horiz-adv-x="293" 
d="M49 1034l43 303q2 18 8 36q6 17 16 31q9 14 24 23q14 9 34 9q15 0 28 -6q12 -6 22 -16q9 -10 15 -23q5 -13 5 -27q0 -22 -11 -41l-133 -303z" />
    <glyph glyph-name="parenleft" unicode="(" horiz-adv-x="612" 
d="M561 1356q-98 -56 -171 -135q-74 -80 -123 -174q-49 -95 -73 -201t-24 -217q0 -108 28 -211q27 -104 78 -197t124 -172t163 -137l-26 -47q-111 56 -201 140q-91 83 -154 186q-64 102 -98 220q-35 118 -35 242q0 123 35 237q35 113 99 211q63 97 153 174t201 128z" />
    <glyph glyph-name="parenright" unicode=")" horiz-adv-x="612" 
d="M76 1403q111 -51 201 -128t154 -174q63 -98 98 -211q34 -114 34 -237q0 -124 -34 -242q-35 -118 -98 -220q-64 -103 -154 -186q-90 -84 -201 -140l-27 47q91 58 164 137q72 79 123 172t79 197q27 103 27 211q0 111 -24 217q-25 106 -73 201q-49 94 -122 174
q-74 79 -172 135z" />
    <glyph glyph-name="asterisk" unicode="*" horiz-adv-x="612" 
d="M305 1403q12 0 22 -6q9 -7 15 -17t9 -21q3 -12 3 -22q0 -20 -7 -43t-13 -43q-8 -31 -12 -62q-5 -31 -7 -63q26 17 51 37q24 20 46 41q7 6 16 15q8 9 17 18t18 17q8 8 16 12q10 5 19 8q9 2 20 2q19 0 32 -9q13 -10 13 -30q0 -19 -11 -32q-12 -14 -26 -23q-8 -6 -20 -10
t-25 -7t-26 -5q-13 -3 -23 -5q-55 -15 -106 -45q26 -12 52 -22q26 -11 54 -19q20 -5 48 -11q28 -7 46 -18q14 -8 26 -22q11 -14 11 -33q0 -18 -14 -28q-14 -11 -31 -11q-21 0 -41 10q-7 4 -15 13q-9 8 -18 18l-17 18l-15 15q-23 22 -47 41t-50 35q0 -31 6 -62q5 -32 13 -63
q5 -19 13 -42q7 -24 7 -42q0 -11 -3 -23t-9 -22t-15 -16q-10 -7 -22 -7t-20 7q-9 6 -15 16t-9 22t-3 23q0 21 8 45q8 23 13 45q9 29 13 59q3 29 5 60q-25 -16 -47 -34q-23 -18 -43 -38q-19 -17 -35 -35q-17 -19 -37 -33q-9 -5 -18 -8q-10 -4 -21 -4q-17 0 -32 12
q-15 11 -15 29q0 17 12 32q11 14 25 23q7 4 19 8q12 3 25 6l24 6l20 5q61 18 117 45q-28 15 -57 27t-60 20l-20 5q-12 3 -24 7q-13 4 -25 8q-12 3 -19 7q-14 9 -25 24q-12 14 -12 31q0 19 14 29t31 10q13 0 22 -3q8 -3 19 -9q20 -13 37 -31q16 -18 35 -35q40 -41 90 -72
q-2 29 -5 59t-11 58q-7 23 -15 46t-8 46q0 10 3 22q3 11 9 21t15 17z" />
    <glyph glyph-name="plus" unicode="+" horiz-adv-x="997" 
d="M453 702v404h92v-404h403v-90h-403v-405h-92v405h-404v90h404z" />
    <glyph glyph-name="comma" unicode="," horiz-adv-x="295" 
d="M141 184q30 0 50 -12t33 -31q12 -19 17 -43t5 -49q0 -33 -13 -70t-36 -71t-55 -60t-70 -36l-19 51q40 20 66 56t33 81h-11q-43 0 -67 27q-25 27 -25 65q0 19 7 36t20 30q12 12 29 19z" />
    <glyph glyph-name="hyphen" unicode="-" horiz-adv-x="406" 
d="M356 528v-69h-307v69h307z" />
    <glyph glyph-name="period" unicode="." horiz-adv-x="283" 
d="M141 184q19 0 36 -7t30 -19q12 -13 19 -30t7 -36t-7 -36t-19 -29q-13 -13 -30 -20t-36 -7t-36 7t-29 20q-13 12 -20 29t-7 36t7 36t20 30q12 12 29 19z" />
    <glyph glyph-name="slash" unicode="/" horiz-adv-x="829" 
d="M780 1315l-600 -1544h-131l672 1544h59z" />
    <glyph glyph-name="zero" unicode="0" horiz-adv-x="1278" 
d="M639 1327q88 0 165 -27q76 -27 140 -74q64 -48 114 -112q49 -65 84 -139q34 -75 52 -156t18 -162t-18 -162t-52 -155q-35 -74 -84 -138q-50 -65 -114 -112q-64 -48 -140 -75q-77 -27 -165 -27t-164 27q-77 27 -141 75q-64 47 -113 112q-50 64 -84 138q-35 74 -53 155
t-18 162t18 162t53 156q34 74 84 139q49 64 113 112q64 47 141 74zM639 1272q-74 0 -136 -26q-62 -27 -112 -73t-88 -107t-63 -129q-26 -68 -39 -140t-13 -140q0 -70 13 -142q13 -73 39 -141q26 -69 65 -129q38 -61 88 -106t112 -71q61 -27 134 -27q72 0 134 26t112 72
q50 45 89 105t65 129q26 68 40 141q13 73 13 143q0 68 -13 140t-39 141q-26 68 -64 129q-39 61 -89 107q-51 45 -113 72z" />
    <glyph glyph-name="one" unicode="1" horiz-adv-x="508" 
d="M309 1286v-1204q0 -11 10 -19t21 -8h119v-55h-410v55h125q11 0 21 8t10 19v1010q0 18 -10 28q-11 10 -30 15q-19 4 -46 5t-60 3v55q28 0 58 5t57 17t49 31q21 19 33 47z" />
    <glyph glyph-name="two" unicode="2" horiz-adv-x="1118" 
d="M993 328v-371h-55v43h-776q-2 12 -3 26q-1 13 -1 25q0 64 36 119q35 54 94 102q58 48 133 92q74 44 152 89q77 44 152 92q74 47 133 101q58 54 94 117q35 63 35 140q0 84 -39 150q-39 65 -101 111q-63 45 -140 69t-152 24q-87 0 -165 -29q-79 -29 -138 -82
q-60 -53 -94 -128q-35 -75 -35 -166q0 -53 17 -110q16 -57 48 -104q31 -48 78 -79q46 -31 107 -31q16 0 33 3t31 11q14 7 23 20t9 34l43 14q12 -21 12 -45q0 -27 -13 -45q-14 -18 -35 -29q-21 -12 -45 -17q-25 -5 -46 -5q-75 0 -136 35q-62 34 -106 89q-45 54 -69 123
q-25 69 -25 138q0 105 42 190t113 145q70 60 162 93q91 33 191 33q61 0 123 -13q61 -13 118 -38q57 -26 107 -62q49 -37 86 -84q36 -48 57 -106t21 -125q0 -90 -31 -160q-31 -71 -83 -128t-119 -102q-68 -46 -141 -85t-145 -74q-73 -35 -135 -71q-63 -36 -110 -76
q-48 -40 -69 -89h557q63 0 104 33q41 32 41 98v95h55z" />
    <glyph glyph-name="three" unicode="3" horiz-adv-x="1194" 
d="M590 367q20 3 29 20q8 16 8 33q0 44 -21 77q-22 32 -55 53t-73 32q-41 10 -79 10q-51 0 -95 -15q-45 -16 -77 -45t-50 -71q-19 -42 -19 -96q0 -87 39 -153q39 -67 102 -111q62 -45 140 -68q77 -23 155 -23q79 0 158 26q78 26 140 75q62 48 101 117t39 155t-40 155
t-103 118q-64 48 -143 74q-80 26 -158 26v53q29 5 65 18q35 12 71 30t70 42t61 52q26 28 42 60t16 66q0 55 -34 93q-34 37 -83 60q-50 23 -105 33q-56 9 -99 9q-51 0 -108 -11q-57 -12 -105 -38q-48 -27 -79 -70q-32 -43 -32 -106q0 -36 13 -68q12 -32 35 -56q22 -24 53 -37
q30 -14 67 -14q33 0 46 8q12 8 17 18l9 18q3 8 18 8q17 0 25 -12t8 -27q0 -20 -12 -33q-12 -14 -30 -22t-38 -11q-20 -4 -35 -4q-48 0 -92 17q-45 17 -79 48t-54 74q-20 42 -20 93q0 76 38 130q37 53 95 87q58 33 128 48q69 15 134 15q39 0 84 -6q44 -6 88 -18
q44 -13 84 -33q40 -21 71 -50t50 -67q18 -38 18 -86q0 -51 -21 -93q-22 -42 -55 -75q-34 -34 -76 -60t-83 -46q73 -17 143 -52q70 -36 125 -88q55 -53 89 -121t34 -149q0 -70 -23 -128q-24 -59 -65 -106q-41 -48 -95 -83q-55 -36 -116 -60q-61 -25 -126 -37t-126 -12
q-60 0 -124 10q-64 11 -124 33q-61 22 -115 55t-94 79q-41 45 -64 103q-24 57 -24 128q0 70 27 124t73 91q45 36 105 55q60 18 125 18q53 0 107 -13q53 -14 97 -42q43 -29 70 -73t27 -105q0 -54 -31 -90q-31 -37 -88 -37q-20 0 -36 14q-17 13 -17 35q0 17 13 28t30 11
q11 0 21 -3z" />
    <glyph glyph-name="four" unicode="4" horiz-adv-x="1149" 
d="M776 272h-727l737 1043h95v-953q34 0 64 12q30 11 53 32q22 21 36 50q13 29 13 64v94h53v-395h-53v53h-166v-192q0 -13 9 -19t21 -6h78v-55h-428v55h180q13 0 24 6q11 5 11 19v192zM776 362v842l-598 -842h598z" />
    <glyph glyph-name="five" unicode="5" horiz-adv-x="1180" 
d="M567 309q25 3 35 21q10 17 10 39q0 42 -20 77q-21 34 -53 59t-72 39q-41 13 -80 13q-51 0 -94 -14q-43 -15 -75 -43t-50 -69t-18 -95q0 -85 38 -146q37 -62 97 -102q59 -40 134 -59q74 -19 148 -19q95 0 178 34t145 94q61 59 97 141q35 81 35 176q0 93 -26 171
q-27 78 -78 135q-52 56 -126 88q-75 32 -171 32q-112 0 -215 -44q-104 -45 -185 -120l-55 33l76 565h647v43h55v-371h-55v94q0 66 -41 99q-42 32 -105 32h-460l-56 -417q84 69 188 105q103 36 212 36q108 0 200 -33q92 -34 160 -96q67 -62 105 -151q38 -90 38 -201
q0 -72 -23 -136q-23 -65 -63 -120q-40 -56 -94 -100q-54 -45 -116 -76q-63 -32 -131 -49t-136 -17q-57 0 -118 9t-118 28q-58 20 -109 50t-89 73q-39 42 -61 97q-23 54 -23 122q0 62 27 114t72 90q44 37 101 58q57 20 116 20q53 0 107 -17t98 -49q43 -33 71 -79
q27 -47 27 -106q0 -57 -35 -94q-36 -37 -94 -37q-20 0 -37 14q-17 13 -17 35q0 18 13 30q13 11 30 11q11 0 21 -4z" />
    <glyph glyph-name="six" unicode="6" horiz-adv-x="1239" 
d="M1190 895q0 -46 -12 -92l-52 14q5 19 7 38t2 38q0 80 -38 150q-38 69 -98 121q-60 51 -135 81q-76 29 -151 29q-118 0 -213 -46q-95 -47 -164 -125t-111 -179q-43 -101 -55 -209q40 54 93 95t114 69q60 28 127 43q66 14 133 14q102 0 201 -34q99 -35 178 -98
q78 -64 126 -153q48 -90 48 -200t-48 -199q-48 -90 -126 -153q-79 -63 -178 -97q-99 -35 -201 -35q-144 0 -253 50q-110 50 -184 138q-75 87 -113 205t-38 254q0 141 49 272q48 130 136 231q87 101 209 162q122 60 270 60q60 0 118 -13q57 -14 111 -38q54 -25 104 -59
q49 -34 91 -76v29h53v-287zM637 881q-73 0 -145 -18q-73 -19 -136 -55q-64 -37 -114 -90q-51 -54 -80 -124q1 -70 15 -140q13 -70 40 -133q26 -64 66 -119q39 -55 92 -95q52 -41 118 -64q65 -23 144 -23q88 0 167 34q79 33 139 92q60 58 95 137q35 78 35 168t-35 168
t-95 137q-60 58 -139 92z" />
    <glyph glyph-name="seven" unicode="7" horiz-adv-x="1100" 
d="M1051 1264q-73 -42 -142 -122q-70 -80 -134 -182t-121 -218q-58 -117 -106 -231q-49 -115 -88 -220q-40 -106 -67 -185q-2 -5 -3 -9t-1 -9q0 -22 22 -27q22 -6 62 -6v-55h-348v55q30 0 53 6q23 5 42 17q18 11 33 30q14 18 26 44q8 17 14 35l12 34q19 47 39 91
q19 44 39 89q47 105 102 215q54 109 118 214q63 105 136 203q72 97 154 179h-645q-31 0 -57 -8t-45 -24q-20 -17 -31 -41q-11 -25 -11 -58v-94h-55v371h55v-43h934z" />
    <glyph glyph-name="eight" unicode="8" horiz-adv-x="1212" 
d="M788 885q77 -23 145 -66q68 -44 119 -103t81 -132q30 -74 30 -158q0 -73 -22 -137q-23 -65 -62 -118q-39 -54 -92 -96q-53 -43 -115 -72t-130 -45q-68 -15 -136 -15t-135 15q-68 16 -130 45t-115 72q-54 42 -93 96q-39 53 -61 118q-23 64 -23 137q0 84 30 158
q30 73 81 132t119 103q68 43 145 66q-33 10 -68 28t-63 43q-29 25 -47 57q-19 32 -19 72q0 42 19 76q19 33 50 59q31 25 71 43t82 30q42 11 83 17q41 5 74 5t74 -5q41 -6 83 -17q42 -12 82 -30t71 -43q31 -26 50 -59q19 -34 19 -76q0 -40 -18 -72t-46 -57q-29 -25 -64 -43z
M606 911q38 0 82 11q44 10 82 32q38 21 63 54t25 77q0 45 -25 78q-25 32 -63 54t-82 33q-44 10 -82 10q-37 0 -80 -10q-44 -11 -81 -33q-38 -22 -63 -54q-26 -33 -26 -78q0 -44 26 -77q25 -33 63 -54q37 -22 81 -32zM606 856q-89 0 -168 -33q-79 -34 -138 -92
q-60 -58 -95 -136q-35 -79 -35 -169q0 -89 35 -167t95 -136q59 -58 138 -91q79 -34 168 -34t169 34q79 33 139 91t95 136t35 167q0 90 -35 169q-35 78 -95 136t-139 92z" />
    <glyph glyph-name="nine" unicode="9" horiz-adv-x="1239" 
d="M96 393q0 25 3 48q2 23 7 44l54 -12q-5 -22 -7 -43q-3 -21 -3 -43q0 -86 30 -154q29 -69 81 -117q51 -48 123 -74q71 -26 155 -26q52 0 104 12t100 33q79 36 138 93q59 56 100 125q40 69 63 149q22 79 27 162q-41 -54 -94 -95t-114 -68q-61 -28 -127 -42
q-67 -14 -134 -14q-102 0 -201 35q-99 34 -177 97q-79 63 -127 152t-48 199q0 111 48 201q48 89 127 152q78 63 177 98q99 34 201 34q144 0 254 -50q109 -51 184 -138q74 -88 112 -206t38 -253q0 -80 -15 -159q-16 -80 -47 -154q-35 -88 -92 -165t-131 -134
q-75 -58 -163 -92q-89 -33 -187 -33q-119 0 -220 51q-102 50 -185 131v-28h-54v284zM602 424q73 0 146 19q72 19 136 56q63 36 114 90q50 53 79 122q-2 105 -31 208q-30 102 -89 184q-60 81 -148 131q-89 50 -207 50q-88 0 -167 -33q-79 -34 -139 -92t-95 -136
q-35 -79 -35 -169t35 -168q35 -79 95 -137t139 -91z" />
    <glyph glyph-name="colon" unicode=":" horiz-adv-x="283" 
d="M141 647q19 0 36 -7t30 -19q12 -13 19 -30t7 -36t-7 -36t-19 -29q-13 -13 -30 -20t-36 -7t-36 7t-29 20q-13 12 -20 29t-7 36t7 36t20 30q12 12 29 19zM141 184q19 0 36 -7t30 -19q12 -13 19 -30t7 -36t-7 -36t-19 -29q-13 -13 -30 -20t-36 -7t-36 7t-29 20
q-13 12 -20 29t-7 36t7 36t20 30q12 12 29 19z" />
    <glyph glyph-name="semicolon" unicode=";" horiz-adv-x="295" 
d="M141 647q19 0 36 -7t30 -19q12 -13 19 -30t7 -36t-7 -36t-19 -29q-13 -13 -30 -20t-36 -7t-36 7t-29 20q-13 12 -20 29t-7 36t7 36t20 30q12 12 29 19zM141 184q30 0 50 -12t33 -31q12 -19 17 -43t5 -49q0 -33 -13 -70t-36 -71t-55 -60t-70 -36l-19 51q40 20 66 56t33 81
h-11q-43 0 -67 27q-25 27 -25 65q0 19 7 36t20 30q12 12 29 19z" />
    <glyph glyph-name="less" unicode="&#x3c;" horiz-adv-x="987" 
d="M49 694l889 443v-99l-770 -381l770 -383v-96l-889 440v76z" />
    <glyph glyph-name="equal" unicode="=" horiz-adv-x="997" 
d="M948 840v-90h-899v90h899zM948 565v-92h-899v92h899z" />
    <glyph glyph-name="greater" unicode="&#x3e;" horiz-adv-x="987" 
d="M49 178v96l770 383l-770 381v99l889 -443v-76z" />
    <glyph glyph-name="question" unicode="?" horiz-adv-x="942" 
d="M762 1073q0 68 -16 132q-17 63 -52 112q-35 48 -89 77q-55 29 -130 29q-80 0 -140 -32q-60 -33 -100 -87q-41 -54 -61 -123t-20 -141q0 -51 12 -109t39 -107q27 -50 71 -82q43 -33 105 -33q46 0 83 20q37 19 64 51q26 32 40 73t14 83q0 35 -10 69q-11 33 -31 62l41 35
q35 -29 50 -71t15 -89q0 -54 -20 -106q-21 -52 -56 -93q-36 -41 -84 -66q-49 -26 -106 -26q-79 0 -141 32q-62 31 -104 84q-43 52 -65 120t-22 141q0 94 30 177q30 82 86 143q55 61 133 96t175 35q81 0 157 -31t135 -85q58 -54 93 -126q35 -73 35 -156q0 -57 -15 -110
t-40 -102q-26 -49 -59 -93q-33 -45 -68 -86l-164 -190q-25 -28 -40 -67t-15 -77q0 -26 14 -41q13 -16 35 -30q-16 -19 -34 -34t-46 -15q-18 0 -33 8t-25 21q-11 13 -16 30q-6 16 -6 33q0 21 7 41q7 19 19 38q11 18 25 36q13 17 25 32l186 227q66 81 93 175zM467 184
q19 0 36 -7t30 -19q13 -13 21 -30q7 -17 7 -36t-7 -36q-8 -17 -21 -29q-13 -13 -30 -20t-36 -7q-18 0 -35 7t-29 20q-13 12 -20 29q-8 17 -8 36t8 36q7 17 20 30q12 12 29 19z" />
    <glyph glyph-name="at" unicode="@" horiz-adv-x="1546" 
d="M834 -121q-165 0 -308 50q-143 51 -249 146q-106 94 -167 230t-61 307q0 113 30 216q30 102 85 190q54 87 130 159q75 71 167 121q91 50 195 78q103 27 214 27q85 0 165 -19q79 -20 149 -56q69 -37 127 -90t99 -119t64 -144t23 -166q0 -61 -13 -125q-14 -64 -39 -124
q-26 -61 -63 -115q-38 -54 -86 -94q-49 -40 -108 -63q-59 -24 -127 -24q-31 0 -56 13q-26 12 -45 33t-30 48t-12 56q-28 -28 -62 -54t-71 -46q-38 -20 -78 -32t-80 -12q-48 0 -83 16q-36 16 -59 44t-34 66t-11 83q0 58 17 121q16 62 46 122q29 59 71 113q41 53 92 94
q50 40 108 64q58 23 121 23q31 0 59 -11q28 -12 52 -31q23 -19 42 -43q18 -25 29 -52l70 63l45 -29l-135 -452q-3 -11 -4 -20q-2 -10 -2 -21q0 -28 17 -51t48 -23q48 0 90 19q41 19 75 51q33 31 59 73q26 41 44 87q17 45 26 92q9 46 9 88q0 134 -53 240q-53 105 -141 178
q-89 72 -205 111q-116 38 -242 38q-91 0 -174 -25q-84 -25 -155 -69q-72 -45 -131 -107q-59 -63 -100 -137q-42 -75 -64 -159q-23 -85 -23 -175q0 -162 60 -290q60 -129 164 -218q103 -89 240 -136q137 -48 292 -48q54 0 111 6q56 6 112 19q55 13 108 34t99 50l31 -48
q-122 -68 -248 -105zM676 371q48 0 93 19q45 18 84 50q39 31 71 73q32 41 55 88q22 46 35 94q12 48 12 93q0 29 -7 60q-8 31 -24 56t-41 41t-59 16q-48 0 -92 -21q-44 -22 -83 -57q-39 -36 -71 -82t-55 -95q-24 -50 -36 -100q-13 -50 -13 -92q0 -65 32 -104z" />
    <glyph glyph-name="A" unicode="A" 
d="M49 55q31 0 51 21q19 20 27 49l379 1380h63l-24 -86l399 -1298q8 -26 29 -46q20 -20 49 -20v-55h-217v55q15 0 27 6t12 23q0 5 -11 44q-11 38 -29 99q-18 60 -41 136q-24 76 -49 157q-25 80 -49 159q-25 79 -45 145q-21 65 -35 112q-15 46 -20 61h-137q-4 -15 -16 -61
q-13 -46 -31 -111q-18 -66 -40 -145t-44 -159q-23 -81 -44 -157q-21 -77 -37 -137t-26 -98q-10 -39 -10 -43q0 -19 13 -25t28 -6v-55h-172v55zM494 1231l-50 -180h105z" />
    <glyph glyph-name="B" unicode="B" horiz-adv-x="1434" 
d="M483 1456q26 0 62 -3q36 -4 76 -12q39 -8 78 -21q39 -14 70 -33q31 -20 50 -46q19 -27 19 -61q0 -31 -17 -56q-18 -25 -41 -42q110 -20 218 -69q108 -50 194 -125q86 -76 139 -176t53 -222q0 -71 -19 -135q-19 -65 -53 -122t-80 -106q-47 -49 -102 -90q-65 -47 -137 -81
q-73 -35 -150 -58q-78 -23 -158 -34t-159 -11q-115 0 -229 24q-4 1 -18 5q-15 4 -31 8q-18 4 -41 10h-158v55h33q17 0 31 10q14 9 14 27v1206q0 8 -1 15q-2 6 -13 6q-8 0 -18 -3q-11 -4 -17 -7l-27 47q48 28 101 48q53 19 109 31q55 11 112 16zM231 55q72 -23 145 -35
t148 -12q71 0 142 11q71 10 139 31t132 54q64 32 120 76q48 39 88 85q39 45 68 97q29 51 45 109q16 57 16 119q0 57 -14 110q-15 52 -41 100q-27 48 -63 90t-79 77q-43 34 -102 63q-60 29 -126 51q-66 21 -132 33t-121 12q-97 0 -187 -20q-91 -21 -178 -66v-985zM231 1118
q85 38 183 58t194 20h31q15 0 31 -2q10 5 21 13q11 7 21 16q9 9 15 20t6 23q0 22 -16 40q-16 17 -42 30t-57 22q-32 9 -63 15q-32 6 -59 9q-27 2 -43 2q-57 0 -112 -8q-56 -9 -110 -24v-234z" />
    <glyph glyph-name="C" unicode="C" horiz-adv-x="1573" 
d="M1423 936q7 20 11 40t4 40q0 60 -27 111t-72 93q-45 41 -102 73q-58 32 -119 54q-62 22 -122 33q-61 11 -111 11q-145 0 -275 -47q-131 -48 -229 -135q-99 -88 -157 -211q-58 -124 -58 -275q0 -99 30 -188t83 -165q52 -77 124 -139t156 -105q84 -44 177 -67
q92 -24 186 -24q87 0 169 19q82 18 154 56t131 96t101 138l47 -25q-45 -94 -112 -161q-68 -68 -151 -111q-84 -43 -179 -64q-96 -20 -197 -20q-106 0 -209 26q-104 26 -197 74t-172 117q-79 68 -136 154q-57 85 -89 185q-33 100 -33 212t33 210q33 97 92 178q58 80 137 143
t172 106t196 66q102 22 206 22q151 0 293 -51t258 -145v38h55q0 -51 3 -101q3 -51 3 -103q0 -44 -4 -88t-16 -86z" />
    <glyph glyph-name="D" unicode="D" horiz-adv-x="1464" 
d="M59 1401q115 9 228 16q113 6 229 6q104 0 211 -19q107 -20 207 -58q100 -39 188 -97q87 -59 153 -137q65 -78 103 -176q37 -99 37 -217q0 -117 -37 -216q-38 -99 -103 -179q-66 -80 -153 -140q-88 -61 -188 -102t-207 -61q-107 -21 -211 -21h-467v55q9 0 23 1q13 0 26 4
q12 4 21 12q8 7 8 22v1229q0 15 -7 21q-8 6 -22 6q-8 0 -16 -1q-9 -1 -19 -1zM516 55q94 0 189 21q94 20 181 60q86 40 162 98q75 57 131 131q55 73 87 162t32 192q0 113 -33 204t-91 162q-59 71 -137 122q-79 51 -170 84t-190 49t-198 16q-63 0 -124 -5q-62 -5 -124 -16
v-1251q0 -14 9 -21q8 -8 22 -8h254z" />
    <glyph glyph-name="E" unicode="E" horiz-adv-x="696" 
d="M231 438h203q21 0 33 9q11 8 17 22q5 13 7 29q1 15 1 30h55v-327h-55q0 35 -1 68q-2 33 -9 59q-8 25 -24 40q-17 15 -48 15h-179v-305q0 -11 10 -17t21 -6h172q33 0 62 13q29 12 51 33t35 50q12 29 12 62v72h53v-303h-53v18h-545v55q7 0 20 1t26 4t23 10q9 6 9 18v1231
q0 12 -9 18q-10 6 -23 9t-26 4h-20v55h524v18h54v-385h-54v152q0 33 -12 62q-13 29 -34 51q-22 22 -51 35q-29 12 -62 12h-154q-9 0 -19 -6t-10 -17v-889z" />
    <glyph glyph-name="F" unicode="F" horiz-adv-x="676" 
d="M231 438h209q18 0 29 9q10 8 16 22q5 13 6 29q1 15 1 30h55v-327h-55q0 65 -10 102q-10 36 -24 54t-30 22q-17 4 -29 4h-168v-289q0 -26 29 -32q29 -7 76 -7v-55h-287v55q7 0 20 1t26 4t23 10q9 6 9 18v1229q0 23 -23 28t-55 5v55h524v18h54v-385h-54v152q0 33 -12 62
q-13 29 -34 51q-22 22 -51 35q-29 12 -62 12h-154q-9 0 -19 -6t-10 -17v-889z" />
    <glyph glyph-name="G" unicode="G" horiz-adv-x="1454" 
d="M1386 424q-9 0 -19 -4q-11 -4 -11 -17v-233q-35 -54 -92 -93t-123 -64q-67 -26 -137 -38q-71 -12 -132 -12q-120 0 -234 25t-212 79q-99 53 -178 136q-80 82 -131 196q-34 75 -51 156q-17 80 -17 162q0 75 16 151q15 75 46 144q49 109 125 190t171 135q94 54 204 81
q109 26 225 26q168 0 306 -54t263 -163l-105 -185l-49 27q11 16 21 36t10 40q0 37 -24 69t-63 58t-87 46q-49 20 -97 34q-49 14 -93 21t-74 7q-145 0 -268 -46q-123 -47 -213 -132q-90 -86 -140 -206q-51 -120 -51 -267q0 -158 56 -287q55 -129 152 -221q97 -93 230 -143
q132 -51 287 -51q30 0 69 5q38 5 78 16q39 11 77 29q37 17 67 41q29 23 47 54q18 30 18 68v145q0 39 -36 39h-166v53h335v-53z" />
    <glyph glyph-name="H" unicode="H" horiz-adv-x="901" 
d="M764 90q0 -13 9 -20q8 -7 21 -10q12 -4 28 -4q15 -1 30 -1v-55h-270v55q12 0 26 1q13 1 25 5q11 3 19 10q7 7 7 19v334h-428v-334q0 -13 8 -20t21 -10q13 -4 29 -4q15 -1 30 -1v-55h-270v55q15 0 30 1q14 1 25 5q10 3 17 10q6 7 6 19v1227q0 23 -23 28t-55 5v55h270v-55
h-32q-16 -1 -28 -4q-13 -3 -20 -10q-8 -7 -8 -19v-840h428v840q0 23 -23 28t-54 5v55h270v-55h-33q-16 -1 -28 -4t-19 -10q-8 -7 -8 -19v-1227z" />
    <glyph glyph-name="I" unicode="I" horiz-adv-x="369" 
d="M231 90q0 -13 8 -20q7 -7 20 -10q12 -4 28 -4q16 -1 32 -1v-55h-270v55q15 0 30 1q14 1 25 5q10 3 17 10q6 7 6 19v1227q0 23 -21 28q-22 5 -57 5v55h270v-55h-30q-16 -1 -29 -4t-21 -10t-8 -19v-1227z" />
    <glyph glyph-name="J" unicode="J" horiz-adv-x="362" 
d="M-338 -174q19 -9 38 -16q20 -7 42 -7q71 0 127 22q57 23 99 62q43 39 73 91t50 111q19 59 28 121q8 62 8 122v977q0 15 -6 24q-6 8 -17 12q-12 4 -27 5h-34v55h270v-55h-33q-15 -1 -26 -5q-12 -4 -18 -12q-7 -9 -7 -24v-959q0 -80 -13 -157q-14 -77 -41 -145t-69 -126
q-42 -57 -98 -99q-57 -41 -130 -64q-72 -23 -161 -23q-14 0 -28 1q-13 1 -27 3v86z" />
    <glyph glyph-name="K" unicode="K" horiz-adv-x="999" 
d="M772 1350q-35 0 -54 -16t-38 -44l-240 -352l437 -827q11 -20 32 -38t45 -18v-55h-215v55q11 0 22 5t11 18q0 3 -15 35q-16 31 -42 82q-26 50 -59 114q-34 64 -70 132t-71 135q-35 66 -64 121t-49 93q-21 38 -27 50l-144 -211v-539q0 -13 8 -20q7 -7 20 -10q12 -4 28 -4
q16 -1 32 -1v-55h-270v55q32 0 55 5t23 30v1227q0 23 -22 28t-56 5v55h270v-55h-33q-16 -1 -28 -4t-19 -10q-8 -7 -8 -19v-578q6 10 26 41q19 30 47 73q27 42 60 94q33 51 67 104q33 52 65 102q32 49 56 89q24 39 39 65q15 25 15 28q0 10 -8 13q-8 2 -16 2v55h190v-55z" />
    <glyph glyph-name="L" unicode="L" horiz-adv-x="588" 
d="M231 78q0 -11 10 -17t21 -6h64q32 0 61 13q28 12 50 33q21 21 34 50q12 29 12 62v256h56v-487h-56v18h-434v55q13 0 27 1t25 5t19 11q7 6 7 18v1227q0 23 -23 28q-24 5 -55 5v55h270v-55h-32q-16 -1 -28 -4q-13 -3 -20 -10q-8 -7 -8 -19v-1239z" />
    <glyph glyph-name="M" unicode="M" horiz-adv-x="997" 
d="M858 94q0 -15 8 -22q8 -8 21 -12t29 -4q16 -1 32 -1v-55h-270v55q16 0 31 1q14 1 25 5q10 3 16 11t6 22v1123l-226 -566q-8 -19 -14 -42q-7 -24 -11 -48q-5 -25 -8 -49t-3 -45h-56q0 33 6 68l-264 636v-292q0 -124 1 -215q0 -91 1 -153q0 -63 1 -107v-77t1 -61
q2 -42 2 -86q-1 -44 4 -88q2 -20 16 -27q13 -8 32 -10v-55h-179v55q19 0 32 10q13 9 15 27q5 45 5 90t2 88q0 33 1 70q0 36 1 87q0 51 1 123q0 71 1 176v247v338q0 28 -18 34q-19 5 -50 5v55h156l289 -698l276 698h178v-55h-32q-16 -1 -29 -5t-21 -11q-8 -8 -8 -23v-1217z
" />
    <glyph glyph-name="N" unicode="N" horiz-adv-x="774" 
d="M219 1405l383 -1020v451v139q-1 56 -1 97q-1 40 -1 69q-1 28 -2 55q-1 11 -1 27v32q0 17 -1 32t-2 24q-5 18 -16 29q-11 10 -31 10v55h178v-55q-20 0 -32 -10q-12 -11 -17 -29q-2 -9 -2 -29q-1 -20 -1 -43q-1 -24 -1 -46v-34q-1 -22 -1 -47v-71q-1 -45 -1 -118
q-1 -73 -1 -188q-1 -116 -1 -283v-401l34 -94l-51 -18l-471 1247q0 -171 1 -297v-220t1 -157t1 -110t1 -79v-63q0 -37 1 -62q0 -26 1 -44q0 -19 1 -32q1 -14 3 -26q2 -21 13 -31q10 -10 35 -10v-55h-179v55q26 0 36 10q9 10 11 33q5 48 5 98q0 49 2 99q0 31 1 66q0 34 1 83
q0 49 1 119q0 69 1 172v242v332q0 28 -18 35q-19 6 -50 6v55h170z" />
    <glyph glyph-name="O" unicode="O" horiz-adv-x="1704" 
d="M852 1466q105 0 206 -26q100 -26 189 -73q89 -48 164 -115q75 -68 129 -152t85 -182q30 -99 30 -207q0 -109 -30 -208q-31 -99 -85 -183t-129 -152t-164 -115q-89 -48 -189 -74q-101 -26 -206 -26t-206 26t-190 74q-89 47 -164 115t-129 152t-84 183t-30 208t30 207
t84 182t129 152q75 67 164 115q89 47 190 73zM852 1413q-96 0 -184 -25q-89 -26 -165 -72q-77 -47 -139 -112q-63 -65 -107 -143q-45 -78 -69 -166q-24 -89 -24 -184t24 -184q24 -90 69 -168q44 -78 107 -143q62 -65 139 -111q76 -47 165 -73q88 -26 184 -26t184 26t165 73
q76 46 139 111q62 65 107 143q44 78 69 168q24 89 24 184t-24 184q-25 88 -69 166q-45 78 -107 143q-63 65 -139 112q-77 46 -165 72z" />
    <glyph glyph-name="P" unicode="P" horiz-adv-x="1128" 
d="M457 1425q136 0 258 -44q121 -44 213 -125q92 -82 146 -197t54 -256q0 -142 -51 -263q-52 -122 -142 -211q-91 -89 -213 -139q-123 -51 -265 -51q-57 0 -114 10q-58 9 -114 27v-82q0 -28 25 -34q25 -7 65 -7v-53h-270v53q37 0 58 6q20 5 20 31v1208q0 18 -6 28
q-6 9 -16 13q-11 4 -25 5q-15 1 -31 2v55h123q35 0 71 4q35 3 71 8l72 8zM229 268q59 -32 124 -48q64 -17 130 -17q120 0 220 47t172 127q71 79 111 184t40 221q0 120 -40 226t-113 186q-73 79 -174 126q-102 46 -226 46q-62 0 -123 -6q-61 -7 -121 -27v-1065z" />
    <glyph glyph-name="Q" unicode="Q" horiz-adv-x="1694" 
d="M850 1464q105 0 205 -26t189 -74t164 -116t129 -152t84 -182q30 -99 30 -207q0 -97 -24 -187q-25 -90 -70 -170q-46 -80 -111 -147q-65 -68 -146 -119q30 -16 77 -44q46 -29 96 -57q50 -27 97 -47q46 -20 77 -20t50 13q19 14 19 53h53q0 -35 -12 -60q-13 -24 -34 -40
q-22 -15 -50 -22t-59 -7q-52 0 -107 17t-109 43t-104 57q-51 31 -94 59q-81 -39 -170 -59q-89 -19 -180 -19q-105 0 -205 26t-189 74t-164 116t-129 152t-84 182t-30 206t30 207q30 98 84 182t129 152t164 116t189 74zM1137 70q-31 21 -68 40q-38 19 -76 19q-21 0 -42 -4
q-21 -5 -39 -15t-31 -26t-17 -39l-53 4q0 35 17 61q16 26 42 43t58 25t63 8q59 0 120 -20t114 -45q73 49 131 114q57 65 97 141q40 75 62 159q21 84 21 172q0 95 -24 184t-68 167q-45 78 -107 143q-63 64 -139 111q-76 46 -164 72q-88 25 -184 25t-184 -25q-88 -26 -164 -72
q-76 -47 -138 -111q-63 -65 -107 -143q-45 -78 -69 -167t-24 -184t24 -183q24 -89 69 -167q44 -78 107 -142q62 -65 138 -111q76 -47 164 -72q88 -26 184 -26q75 0 148 17z" />
    <glyph glyph-name="R" unicode="R" horiz-adv-x="1255" 
d="M1522 -84q-3 6 -6 13q-3 8 -3 16q0 15 13 26t28 11q16 0 28 -11q11 -11 11 -26q0 -39 -23 -67t-57 -46t-73 -27q-39 -8 -70 -8q-64 0 -124 17q-61 18 -120 46q-59 29 -116 65t-113 72q-56 37 -111 72q-56 34 -112 60q-62 -17 -123 -25q-62 -8 -125 -8q-22 0 -49 2
q-28 1 -55 6q-28 5 -52 15q-25 10 -41 28v-55q0 -14 18 -26q18 -13 56 -13v-53h-248v53q38 0 55 13q17 12 17 26v1206q0 17 -6 27q-6 9 -16 14q-11 5 -25 6q-15 1 -31 1v55h119q39 0 78 4q39 3 79 8l78 8t78 4q93 0 183 -19q90 -20 171 -57q80 -37 148 -91q68 -55 118 -126
q49 -71 77 -157q28 -87 28 -187q0 -108 -30 -204q-31 -97 -88 -177q-57 -81 -137 -143q-81 -62 -181 -102q74 -34 144 -73t139 -79q29 -18 70 -43q41 -24 85 -47q44 -22 88 -38q43 -15 78 -15q18 0 40 1q21 1 42 6q20 5 38 14zM229 219q14 13 33 21q18 8 38 12t41 5
q20 1 38 1q80 0 159 -17q78 -17 152 -46q96 31 171 88q75 56 127 131q52 74 79 164t27 190q0 130 -44 240q-44 109 -123 189q-80 79 -189 124q-110 45 -240 45q-68 0 -135 -7q-68 -8 -134 -28v-1112zM575 168q-49 15 -99 23q-51 8 -103 8h-20q-15 0 -31 -1q-17 -2 -30 -4
q-13 -3 -13 -8q0 -8 24 -13t54 -8t58 -4q27 -1 34 -1q30 0 62 2z" />
    <glyph glyph-name="S" unicode="S" horiz-adv-x="1094" 
d="M369 143q-15 -23 -15 -49q0 -30 14 -54q13 -24 34 -41q21 -16 48 -25t54 -9q37 0 72 13q34 13 60 36q25 23 41 56q15 32 15 71q0 55 -28 105q-29 50 -75 99q-46 48 -105 97q-60 48 -121 100q-62 51 -121 107q-60 56 -106 120q-46 63 -74 136q-29 73 -29 158q0 106 42 189
q42 82 113 138q70 56 161 86q91 29 190 29q106 0 201 -32t167 -92q71 -61 113 -149q41 -89 41 -202q0 -46 -10 -94q-11 -49 -31 -96q-21 -47 -50 -89t-66 -74t-81 -50q-45 -19 -96 -19q-21 0 -48 5q-27 4 -50 16q-24 11 -40 30q-16 18 -16 46q0 14 3 26t8 25l51 -17v-8
q0 -22 10 -34q10 -13 25 -19q14 -7 31 -8q17 -2 32 -2q41 0 76 17t63 46q28 28 50 66q21 37 36 77q14 40 22 80q7 40 7 74q0 98 -34 177q-35 78 -95 133q-60 54 -141 83q-82 29 -176 29q-82 0 -158 -24q-77 -25 -135 -72q-59 -48 -94 -117t-35 -158q0 -74 28 -137
q28 -64 74 -120t105 -106q58 -51 120 -100q61 -50 120 -99q58 -49 104 -102t74 -112t28 -127q0 -62 -20 -111t-56 -84q-36 -34 -86 -53q-50 -18 -110 -18q-37 0 -74 10q-38 11 -68 32q-31 21 -50 53q-19 31 -19 73q0 52 33 94z" />
    <glyph glyph-name="T" unicode="T" horiz-adv-x="840" 
d="M487 1346q-20 0 -20 -19v-1218q0 -20 6 -31t18 -16q11 -5 27 -6t37 -1v-55h-276v55q21 0 37 1q15 1 26 6q10 5 15 16t5 31v1218q0 19 -20 19h-88q-32 0 -59 -12q-28 -13 -48 -34q-20 -22 -31 -51q-12 -29 -12 -61v-117h-55v348h55v-18h631v18h56v-348h-56v117
q0 32 -11 61t-30 51q-20 21 -47 34q-28 12 -61 12h-99z" />
    <glyph glyph-name="U" unicode="U" horiz-adv-x="946" 
d="M748 444v151q0 77 -1 169q-2 91 -4 203q-3 111 -8 254v42q0 22 -2 42q-2 17 -8 26t-17 14q-11 4 -26 5h-33v55h260v-55h-33q-15 -1 -25 -5q-11 -5 -17 -14q-7 -9 -9 -26q-2 -20 -3 -41q-1 -22 -1 -43q-4 -143 -5 -254q-2 -112 -3 -203q-1 -92 -1 -169t-1 -151
q-1 -56 -8 -114q-8 -58 -25 -111q-18 -54 -45 -101q-28 -47 -67 -82t-91 -55q-53 -20 -120 -20q-95 0 -159 36t-103 96q-39 59 -55 136q-17 77 -17 160v922q0 15 -7 23q-7 7 -18 11q-12 4 -27 5h-32v55h270v-55h-31q-15 -1 -27 -5t-19 -11q-7 -8 -7 -23v-926q0 -59 9 -123
q8 -64 34 -116q25 -53 71 -87q45 -34 120 -34q86 0 142 39t89 100t47 135z" />
    <glyph glyph-name="V" unicode="V" horiz-adv-x="936" 
d="M455 -41q3 16 5 22q1 6 1 9q0 20 -6 38q-6 17 -11 35l-346 1248q-6 24 -21 32q-15 7 -44 7v55h239v-55q-21 0 -35 -6t-14 -23v-12l287 -1078l235 1078q2 2 3 4v4q0 23 -15 28q-16 5 -35 5v55h205v-55q-29 0 -44 -16t-23 -44l-328 -1343z" />
    <glyph glyph-name="W" unicode="W" horiz-adv-x="1253" 
d="M1221 1405v-55q-25 0 -42 -10q-18 -11 -24 -37l-287 -1240l-10 -36q-6 -19 -6 -39q0 -8 1 -15q1 -6 3 -12l-51 -16l-164 547l-133 -545l-53 12q2 8 3 15q1 8 1 16q0 18 -5 37l-10 36l-346 1248q-8 24 -22 32q-15 7 -43 7v55h239v-55q-8 0 -17 -1t-16 -4t-11 -9
q-5 -6 -5 -17q0 -4 12 -50q11 -47 31 -120q19 -74 44 -167q24 -94 51 -193q26 -99 52 -195q26 -97 48 -177q21 -80 36 -135q14 -56 19 -73l92 387l-125 422q-4 12 -8 23t-10 20q-6 8 -15 13t-24 5v54h397v-54q-28 0 -38 -18q-11 -18 -17 -43l-102 -420l145 -485l254 1192
q2 2 2 10q0 21 -15 28q-16 7 -34 7v55h203zM612 1079q-26 0 -26 -28q0 -10 8 -39q8 -30 19 -64q10 -34 20 -64q10 -31 14 -44l45 198q2 3 2 6v7q0 28 -28 28h-54z" />
    <glyph glyph-name="X" unicode="X" horiz-adv-x="909" 
d="M33 55q31 0 48 20t25 46q26 92 61 181q34 89 72 176t79 173q41 85 81 172l-188 475q-7 17 -13 27q-7 10 -15 16q-9 5 -20 7q-12 2 -30 2v55h215v-55q-11 0 -20 -6q-9 -7 -9 -19q0 -6 10 -32q9 -26 23 -63q14 -38 32 -81q17 -44 33 -82q15 -39 28 -69l16 -40l18 45
q11 29 25 65q13 36 27 75q13 39 24 75q11 35 18 63t7 42q0 12 -8 20q-9 7 -21 7v55h184v-55q-29 -2 -45 -13q-17 -11 -28 -39q-42 -106 -83 -210q-42 -104 -85 -209l301 -748q5 -14 12 -27q6 -14 15 -25t22 -17q13 -7 33 -7v-55h-234v55q26 0 35 15q8 14 8 32q0 4 -10 32
q-10 27 -26 70q-17 42 -38 96l-44 109q-23 56 -45 111q-23 55 -41 101q-19 46 -32 79q-14 32 -18 43q-36 -75 -72 -152q-37 -77 -69 -155q-32 -79 -56 -160q-25 -81 -38 -165q0 -25 14 -39q13 -15 41 -17v-55h-219v55z" />
    <glyph glyph-name="Y" unicode="Y" horiz-adv-x="1024" 
d="M604 96q0 -15 7 -23q7 -9 19 -13t27 -4q15 -1 31 -1v-55h-270v55q16 0 31 1q15 0 27 4t19 13q7 8 7 23v588l-391 608q-16 25 -31 42q-16 16 -47 16v55h248v-55q-14 0 -27 -6q-14 -6 -14 -21q0 -6 3 -12q2 -6 5 -11l330 -532q6 14 27 58t48 103t57 125q29 65 54 122
q25 56 41 96q16 39 16 45q0 17 -12 25q-13 8 -29 8v55h211v-55q-29 0 -50 -14q-21 -15 -34 -40l-303 -608v-592z" />
    <glyph glyph-name="Z" unicode="Z" horiz-adv-x="874" 
d="M49 0l623 1350h-330q-33 0 -62 -12q-29 -13 -51 -35t-34 -51q-13 -29 -13 -62v-107h-53v340h53v-18h629l-623 -1350h424q33 0 62 13q29 12 50 33t34 50q12 29 12 62v154h55v-385h-55v18h-721z" />
    <glyph glyph-name="bracketleft" unicode="[" horiz-adv-x="377" 
d="M154 -211q0 -11 10 -18q9 -7 20 -7h144v-53h-279v1694h279v-55h-146q-9 0 -18 -6q-10 -6 -10 -17v-1538z" />
    <glyph glyph-name="backslash" unicode="\" horiz-adv-x="829" 
d="M780 -229h-131l-600 1544h60z" />
    <glyph glyph-name="bracketright" unicode="]" horiz-adv-x="377" 
d="M223 1327q0 11 -9 17q-10 6 -19 6h-146v55h279v-1694h-279v53h144q9 0 20 7q10 7 10 18v1538z" />
    <glyph glyph-name="asciicircum" unicode="^" horiz-adv-x="862" 
d="M432 1290l-293 -616h-90l346 731h74l344 -731h-90z" />
    <glyph glyph-name="underscore" unicode="_" horiz-adv-x="1024" 
d="M0 0h1024v-78h-1024v78z" />
    <glyph glyph-name="grave" unicode="`" horiz-adv-x="567" 
d="M395 840l-237 170q-16 12 -25 26q-10 13 -10 35q0 25 18 45q17 19 43 19q17 0 33 -9q15 -10 25 -22l204 -264h-51z" />
    <glyph glyph-name="a" unicode="a" horiz-adv-x="752" 
d="M752 -8q-14 -17 -34 -27q-21 -10 -44 -10q-45 0 -78 23q-34 24 -45 69q-29 -25 -66 -38t-75 -13q-39 0 -76 13q-37 12 -65 36q-28 23 -45 57q-17 33 -17 74q0 45 22 80q22 34 56 61q34 -11 70 -15q36 -5 73 -5q29 0 60 2q30 1 59 6v268q0 47 -14 89q-14 41 -40 72
q-27 31 -65 49q-39 18 -88 18q-47 0 -91 -15q-44 -16 -78 -44q-34 -29 -54 -69q-21 -41 -21 -91q0 -23 6 -38q5 -15 17 -23q11 -9 30 -12q18 -3 44 -3q-3 -15 -10 -29t-16 -25q-10 -11 -23 -17q-13 -7 -29 -7q-26 0 -43 15q-17 14 -27 36q-11 21 -15 46q-5 24 -5 44
q0 65 26 118q25 53 69 91q43 37 100 58q57 20 120 20q62 0 116 -20q53 -21 92 -58t61 -89t22 -116v-469q0 -11 1 -27t5 -31t13 -25q9 -11 24 -11q11 0 21 4q9 3 16 13zM547 240q-28 -7 -57 -9t-58 -2q-28 0 -55 2t-53 7q-27 -30 -27 -68q0 -54 34 -82q34 -29 85 -29
q37 0 70 16q32 16 51 48q2 3 6 11t4 11v95z" />
    <glyph glyph-name="b" unicode="b" horiz-adv-x="907" 
d="M233 1319q-24 -22 -31 -43t-7 -53v-533q54 47 120 71q66 23 138 23q84 0 158 -29q73 -30 128 -82q55 -53 87 -125t32 -157q0 -88 -34 -164q-35 -76 -94 -132t-137 -88t-165 -32q-69 0 -133 22q-65 22 -121 64q-14 -27 -35 -50q-22 -24 -47 -44l-33 43q25 20 36 52t11 63
v1030q0 42 -20 59q-21 17 -61 17v55q51 0 95 22q43 22 81 54zM195 150q42 -51 101 -80q58 -29 126 -29q71 0 133 28q61 28 106 76q45 47 71 110q26 62 26 132q0 69 -25 129q-26 59 -70 103t-104 69t-129 25q-72 0 -132 -31q-61 -31 -103 -88v-444z" />
    <glyph glyph-name="c" unicode="c" horiz-adv-x="909" 
d="M702 481q8 22 14 44q5 21 5 42q0 44 -18 75t-47 51q-30 20 -67 29t-75 9q-71 0 -136 -24t-115 -67q-51 -44 -81 -105t-30 -136q0 -81 32 -146q31 -66 84 -111q53 -46 123 -70q70 -25 148 -25t152 29q73 28 130 84l39 -37q-33 -38 -74 -65q-41 -28 -87 -46t-95 -27
q-49 -8 -98 -8q-88 0 -170 27q-83 26 -146 77q-64 51 -102 125q-39 74 -39 169t35 172q35 76 95 130q60 53 141 82q80 29 172 29q91 0 177 -28q85 -29 154 -88q-1 -3 -4 -13q-3 -11 -8 -26l-11 -33q-6 -18 -12 -37q-14 -44 -32 -98z" />
    <glyph glyph-name="d" unicode="d" horiz-adv-x="911" 
d="M676 1288q43 8 80 28t69 46l35 -43q-25 -20 -31 -41q-6 -22 -6 -51v-1131q0 -18 9 -29q9 -12 30 -12v-55h-127v70q-55 -34 -119 -52q-65 -18 -131 -18q-85 0 -164 25q-79 24 -139 72q-61 47 -97 118q-36 70 -36 162q0 97 39 171q39 73 104 123q65 49 148 74t172 25
q57 0 114 -11t109 -34v442q0 31 -12 48q-13 17 -47 20v53zM735 653q-45 29 -100 44q-56 14 -109 14q-74 0 -141 -22q-68 -22 -120 -64q-53 -43 -84 -104q-31 -62 -31 -140q0 -77 30 -136t80 -98q50 -40 116 -60q65 -21 136 -21q62 0 120 21t103 65v501z" />
    <glyph glyph-name="e" unicode="e" horiz-adv-x="797" 
d="M434 -18q-88 0 -159 33t-121 89q-51 56 -78 132q-27 75 -27 159q0 78 24 149q24 70 70 123t112 84q65 31 148 31q54 0 102 -15q47 -16 85 -45q37 -30 64 -72t40 -95h-522q-25 -67 -25 -137t20 -136t60 -117q39 -52 98 -83q58 -31 134 -31q43 0 82 14q39 13 73 36
q33 23 62 54q28 31 49 66l47 -26q-27 -46 -62 -85q-36 -39 -79 -67q-43 -29 -92 -45zM584 610q-28 53 -79 82t-110 29q-63 0 -114 -28q-52 -29 -84 -83h387z" />
    <glyph glyph-name="f" unicode="f" horiz-adv-x="326" 
d="M469 1432q-71 0 -125 -31q-54 -32 -91 -82t-56 -113t-19 -127v-313h141v-51h-141v-596q0 -22 8 -34q8 -13 23 -19q14 -7 35 -9q20 -2 45 -2v-55h-238v55q22 0 31 12q8 11 8 29v619h-41v51h41v272q0 86 26 169t77 149q50 65 123 105t167 40q47 0 88 -9q40 -10 82 -30v-147
h-55v45q0 19 -14 33q-15 13 -35 22q-21 9 -43 13z" />
    <glyph glyph-name="g" unicode="g" horiz-adv-x="901" 
d="M690 633q0 -49 -22 -87t-57 -64q-35 -27 -79 -40q-44 -14 -88 -14q-45 0 -88 16q-6 -15 -6 -28q0 -26 15 -46q14 -21 37 -38t53 -30q29 -13 58 -23q29 -11 56 -19q27 -9 45 -16q64 -24 121 -59q56 -36 99 -83q42 -48 67 -108t25 -133q0 -96 -37 -171q-38 -74 -101 -125
t-145 -78q-83 -26 -172 -26t-170 26t-142 76q-62 51 -98 125t-36 169q0 72 26 134q25 62 70 109q44 46 105 75q60 29 130 36l6 -55q-55 -8 -100 -32q-45 -25 -76 -62q-32 -38 -49 -86q-18 -48 -18 -103q0 -80 28 -145t78 -111q49 -46 116 -71t144 -25q73 0 137 22t112 63
q47 42 75 101q27 60 27 135q0 73 -24 124q-25 51 -64 88q-40 37 -91 63q-51 25 -104 46q-53 20 -104 40q-51 19 -90 44q-40 25 -64 59q-25 34 -25 83q0 23 8 46q7 22 19 40q-31 23 -46 56t-15 73q0 45 22 80t56 59t76 36q41 12 81 12q44 0 79 -14q34 -14 64 -30
q29 -17 54 -31t51 -14q17 0 33 5t30 16q0 5 -1 8t-1 8q0 22 15 37t36 15q17 0 30 -12t13 -29q0 -31 -15 -53q-16 -23 -40 -37q-24 -15 -52 -22q-29 -7 -56 -7q-7 0 -11 1zM463 733q-24 0 -50 -7t-47 -21q-21 -15 -35 -36t-14 -48q0 -28 14 -50q14 -23 36 -38q21 -16 48 -24
q26 -9 52 -9q25 0 51 9q26 8 46 24q20 15 33 38q13 22 13 50q0 27 -14 48t-36 36q-22 14 -47 21z" />
    <glyph glyph-name="h" unicode="h" horiz-adv-x="492" 
d="M33 1288q43 8 79 28t70 46l33 -43q-23 -20 -30 -40q-7 -21 -7 -52v-580q9 20 21 43q12 22 29 41q16 18 37 31q20 12 46 12q36 0 58 -21q21 -22 33 -52q11 -31 15 -65q3 -35 3 -61v-479q0 -18 10 -29q10 -12 29 -12v-55h-168v55q18 0 30 12q11 11 11 29v525q0 9 -1 23
q-2 13 -6 26q-5 12 -13 21t-21 9q-20 0 -36 -14t-28 -35q-13 -22 -22 -49q-10 -28 -15 -55q-6 -27 -9 -51t-3 -39v-361q0 -18 12 -29q11 -12 29 -12v-55h-168v55q19 0 30 12q11 11 11 29v1071q0 32 -12 49q-13 16 -47 19v53z" />
    <glyph glyph-name="i" unicode="i" horiz-adv-x="252" 
d="M117 1098q26 0 42 -20q15 -21 15 -46t-15 -45q-16 -20 -42 -20t-42 20t-16 45t16 46zM33 721q43 6 79 26t70 46l33 -43q-23 -20 -30 -41t-7 -52v-561q0 -18 12 -29q11 -12 29 -12v-55h-168v55q19 0 30 12q11 11 11 29v502q0 32 -12 49q-13 16 -47 19v55z" />
    <glyph glyph-name="j" unicode="j" horiz-adv-x="264" 
d="M131 1098q26 0 42 -20q15 -21 15 -46t-15 -45q-16 -20 -42 -20t-41 20q-16 20 -16 45t16 46zM49 721q42 6 79 26t69 46l34 -43q-21 -19 -28 -38q-8 -19 -8 -48v-773q0 -75 -23 -148t-63 -136q-15 -24 -36 -50q-22 -26 -48 -47t-56 -35t-61 -14q-14 0 -27 10
q-12 10 -12 25q0 16 12 25q13 10 27 10q5 0 9 -1t9 -3q50 11 85 49q34 39 55 90t31 106q9 55 9 99v727q0 32 -12 49q-13 16 -45 19v55z" />
    <glyph glyph-name="k" unicode="k" horiz-adv-x="532" 
d="M33 1288q43 8 79 28t70 46l33 -43q-22 -19 -29 -39q-8 -20 -8 -49v-795q4 7 17 28q12 20 28 48q16 27 34 58q17 30 32 57q14 26 24 45q9 18 9 22q0 8 -7 13q-8 4 -16 4v55h156v-55q-23 0 -36 -9q-13 -10 -24 -28l-98 -166l188 -420q5 -12 19 -22q13 -11 28 -11v-55h-174
v55q13 0 21 7q8 6 8 20q0 4 -10 28t-25 58t-33 74q-19 40 -35 76q-17 35 -29 62q-13 27 -17 36l-60 -92v-228q0 -18 12 -29q11 -12 29 -12v-55h-168v55q19 0 30 12q11 11 11 29v1071q0 32 -12 49q-13 16 -47 19v53z" />
    <glyph glyph-name="l" unicode="l" horiz-adv-x="252" 
d="M33 1288q43 8 79 28t70 46l33 -43q-23 -20 -30 -40q-7 -21 -7 -52v-1131q0 -18 12 -29q11 -12 29 -12v-55h-168v55q19 0 30 12q11 11 11 29v1071q0 32 -12 49q-13 16 -47 19v53z" />
    <glyph glyph-name="m" unicode="m" horiz-adv-x="713" 
d="M408 96q0 -18 11 -29q11 -12 30 -12v-55h-168v55q18 0 28 12q10 11 10 29v525v23q-1 13 -4 26q-3 12 -10 21t-20 9q-19 0 -35 -13q-16 -14 -27 -35q-12 -21 -20 -47q-9 -26 -14 -52q-6 -26 -8 -49q-3 -23 -3 -37v-371q0 -18 12 -29q11 -12 29 -12v-55h-168v55q19 0 30 12
q11 11 11 29v502q0 32 -12 49q-13 16 -47 19v55q34 5 65 21t54 42l26 -34v-95q9 19 21 41q11 21 27 38q15 17 35 29q20 11 44 11q27 0 45 -13t29 -32q11 -20 18 -43q6 -24 9 -45q7 21 19 44q11 23 27 43t37 33t48 13q35 0 56 -21q20 -22 31 -53q10 -31 13 -65q2 -35 2 -60
v-479q0 -18 11 -29q11 -12 30 -12v-55h-168v55q19 0 29 12q10 11 10 29v525v23q-1 13 -4 26q-4 12 -11 21t-20 9q-32 0 -52 -27q-21 -27 -33 -64q-13 -38 -18 -76q-5 -39 -5 -62v-375z" />
    <glyph glyph-name="n" unicode="n" horiz-adv-x="500" 
d="M33 721q34 5 65 21t54 42l26 -34v-113q9 21 23 46q13 24 30 44t39 34q21 13 47 13q36 0 58 -21q22 -22 33 -52q11 -31 15 -65q3 -35 3 -61v-479q0 -18 11 -29q11 -12 30 -12v-55h-168v55q19 0 30 12q11 11 11 29v525q0 9 -1 23q-2 13 -6 26q-5 12 -13 21t-21 9
q-30 0 -52 -29q-23 -29 -38 -68q-16 -40 -23 -80q-8 -41 -8 -64v-363q0 -18 12 -29q11 -12 29 -12v-55h-168v55q19 0 30 12q11 11 11 29v502q0 32 -12 49q-13 16 -47 19v55z" />
    <glyph glyph-name="o" unicode="o" horiz-adv-x="993" 
d="M498 788q89 0 170 -30q80 -31 142 -86q61 -55 98 -131q36 -77 36 -170t-36 -170q-37 -78 -98 -133q-62 -56 -142 -87q-81 -30 -170 -30q-90 0 -171 30q-82 31 -143 87q-62 55 -98 133q-37 77 -37 170t37 170q36 76 98 131q61 55 143 86zM498 737q-75 0 -140 -30t-113 -81
t-76 -117t-28 -138q0 -73 28 -140t76 -118t113 -81t140 -30q73 0 138 30q64 30 112 81t76 118t28 140q0 72 -28 138t-76 117t-112 81z" />
    <glyph glyph-name="p" unicode="p" horiz-adv-x="793" 
d="M33 696q42 7 78 26q35 19 67 44v-74q47 38 100 59t113 21q81 0 146 -28q65 -29 111 -79q45 -51 70 -119t25 -147q0 -88 -28 -165q-28 -78 -80 -135q-52 -58 -126 -91q-75 -33 -167 -33q-42 0 -84 8q-42 9 -80 29v-309q0 -19 12 -31q11 -12 29 -12v-53h-168v53q19 0 30 12
t11 31v870q0 32 -12 49q-13 16 -47 19v55zM178 88q34 -28 76 -40q41 -13 84 -13q74 0 130 29t94 78q38 48 58 111q19 62 19 130q0 58 -15 115q-16 57 -47 103q-32 45 -80 73q-49 28 -114 28q-60 0 -114 -24t-91 -74v-516z" />
    <glyph glyph-name="q" unicode="q" horiz-adv-x="858" 
d="M674 -393q25 21 33 43t8 53v344q-56 -46 -122 -70q-67 -24 -138 -24q-84 0 -158 29q-74 30 -129 83q-55 52 -87 124t-32 157q0 88 35 165q34 76 93 132q59 55 137 87t165 32q69 0 134 -21q64 -22 120 -65q14 28 36 52q21 23 46 42l33 -43q-25 -20 -36 -52t-11 -63v-845
q0 -29 13 -49q12 -20 44 -25v-53q-43 -7 -80 -28q-37 -20 -71 -46zM715 588q-44 52 -103 80t-127 28q-71 0 -132 -27q-62 -28 -107 -75t-70 -110q-26 -63 -26 -134q0 -68 26 -127q25 -60 69 -104t104 -69t128 -25q72 0 133 32q61 31 105 88v443z" />
    <glyph glyph-name="r" unicode="r" horiz-adv-x="436" 
d="M319 578q0 16 -1 38q-1 21 -4 40t-9 33q-7 13 -18 13q-20 0 -35 -13q-16 -14 -28 -35t-20 -47q-9 -26 -15 -52t-8 -49q-3 -23 -3 -37v-373q0 -18 12 -29q11 -12 29 -12v-55h-168v55q19 0 30 12q11 11 11 29v504q0 32 -12 49q-13 16 -47 19v55q34 5 65 21t54 42l26 -34
v-95q9 19 21 41q11 21 27 38q15 17 35 29q20 11 44 11q37 0 57 -19q20 -20 29 -49q9 -30 11 -65q1 -35 1 -65h-84z" />
    <glyph glyph-name="s" unicode="s" horiz-adv-x="733" 
d="M684 53q0 -68 -27 -126q-27 -57 -73 -99q-46 -41 -106 -65q-61 -23 -128 -23q-65 0 -124 22t-103 62q-45 40 -71 95q-27 56 -27 124q0 22 6 49q5 26 18 49q12 23 32 39q19 15 48 15q26 0 42 -19q16 -20 19 -45q-6 2 -12 2h-12q-23 0 -38 -9t-24 -24q-10 -15 -14 -33
q-4 -19 -4 -38q0 -53 22 -96t59 -74q36 -30 83 -47t96 -17q54 0 99 18q44 18 77 50q32 33 50 77q18 45 18 99q0 58 -24 104q-25 46 -62 86t-80 78q-43 37 -80 78q-37 40 -61 87q-25 46 -25 106q0 46 16 82t45 62q28 25 67 39q38 13 83 13q48 0 95 -16q46 -17 83 -51
l-41 -111l-41 14q0 47 -29 77t-75 30q-26 0 -49 -8q-24 -8 -41 -23q-18 -16 -28 -38q-11 -22 -11 -50q0 -45 26 -82q26 -38 65 -74q39 -37 85 -75q46 -39 85 -84q39 -46 65 -102z" />
    <glyph glyph-name="t" unicode="t" horiz-adv-x="330" 
d="M33 1100q43 6 79 27t70 47l33 -44q-22 -20 -29 -39q-8 -20 -8 -49v-276h144v-55h-144v-557q0 -47 15 -93q14 -46 42 -82q27 -36 67 -59q40 -22 91 -22q50 0 91 21q40 22 71 61l45 -31q-35 -53 -91 -82q-57 -29 -120 -29q-70 0 -125 28q-55 29 -93 76q-39 48 -59 110
q-20 61 -20 126v799q0 32 -12 49q-13 17 -47 21v53z" />
    <glyph glyph-name="u" unicode="u" horiz-adv-x="522" 
d="M303 721q43 6 81 26q37 20 69 46l34 -43q-24 -20 -30 -41t-6 -52v-561q0 -18 10 -29q10 -12 28 -12v-55h-127v68q-27 -28 -61 -52t-76 -24q-37 0 -62 16q-26 16 -41 42q-16 25 -23 58q-7 32 -7 64v428q0 32 -13 48q-14 15 -46 18v55q43 6 79 26t70 46l33 -43
q-23 -20 -30 -41t-7 -52v-493q0 -18 4 -38q3 -20 12 -36t24 -26q14 -11 36 -11q15 0 31 8q15 7 30 19q14 11 26 24t21 25v469q0 32 -12 49q-13 16 -47 19v55z" />
    <glyph glyph-name="v" unicode="v" horiz-adv-x="633" 
d="M608 766v-53q-20 0 -32 -11q-12 -12 -17 -32l-188 -672h-52l-233 670q-9 24 -22 35q-13 10 -39 10v53h184v-53q-14 0 -23 -6q-10 -7 -10 -21q0 -7 12 -44q12 -38 30 -91q18 -54 40 -115q22 -62 42 -118l35 -98q14 -42 19 -56l135 485q5 13 5 25q0 18 -8 29q-9 10 -27 10
v53h149z" />
    <glyph glyph-name="w" unicode="w" horiz-adv-x="834" 
d="M510 156l176 503q2 7 2 11v10q0 14 -6 24q-6 9 -20 9v53h147v-53q-23 0 -37 -18t-22 -38l-226 -657h-51l-57 154l-51 -154h-52l-241 662q-7 17 -16 33q-10 16 -31 18v53h149v-53q-8 0 -13 -5q-5 -6 -5 -16q0 -2 8 -24q7 -22 20 -57q13 -36 30 -81q16 -46 33 -93
q17 -48 35 -95q17 -47 31 -85q14 -39 24 -66t13 -35l33 90l-158 430q-5 14 -12 26q-8 11 -25 11v53h455v-53q-17 0 -28 -9t-17 -24l-135 -393zM336 713q-9 0 -15 -6q-6 -7 -6 -15q0 -4 8 -27q7 -23 19 -54q11 -32 25 -69t27 -70q12 -34 22 -59q9 -25 12 -34l117 334h-209z
" />
    <glyph glyph-name="x" unicode="x" horiz-adv-x="508" 
d="M199 713q-10 0 -17 -5q-8 -5 -8 -16q0 -3 6 -18q6 -16 15 -38t20 -47q10 -26 20 -49t17 -41t10 -24q5 13 18 42q12 28 25 59t23 59q10 27 10 39q0 15 -9 26q-10 11 -26 11v55h164v-55q-28 0 -45 -17q-17 -18 -27 -43l-100 -252l117 -280q10 -23 25 -43q15 -21 44 -21
l2 -55h-182v55q12 0 21 7q8 6 8 20q0 5 -5 20t-13 35q-8 19 -17 41q-10 22 -19 43q-9 20 -16 36t-10 24l-64 -166q-6 -14 -6 -29t11 -23q10 -8 24 -8v-55h-176v55q29 0 49 23q20 22 31 47l96 233l-127 306q-9 23 -22 36q-14 13 -41 13v53h174v-53z" />
    <glyph glyph-name="y" unicode="y" horiz-adv-x="537" 
d="M211 713q-12 0 -20 -6q-9 -6 -9 -19q0 -5 9 -31q8 -27 21 -65q12 -38 27 -81q15 -44 29 -84l24 -70q11 -30 15 -40q5 16 13 45t17 64t18 73q9 37 17 72q7 34 12 62q5 27 5 41t-7 27q-8 12 -24 12v53h154v-53q-19 0 -32 -14q-13 -15 -21 -35q-8 -21 -13 -43t-8 -37
q-13 -59 -34 -149q-21 -91 -51 -192q-30 -102 -70 -203q-41 -102 -93 -184t-116 -133q-65 -51 -144 -51q-15 0 -38 2q-23 3 -45 10q-21 7 -37 20q-15 13 -15 34q0 17 12 29t29 12q12 0 19 -7q7 -6 17 -15q10 -8 26 -15q16 -6 47 -6q42 0 79 23q37 24 69 62t59 85
q26 48 48 97q21 48 37 93q16 44 27 76l-174 504q-15 37 -55 37v53h176v-53z" />
    <glyph glyph-name="z" unicode="z" horiz-adv-x="512" 
d="M12 0l344 713h-129q-34 0 -58 -24t-24 -58v-72h-55v238h55v-31h334l-344 -711h184q41 0 69 28t28 69v184h55v-363h-55v27h-404z" />
    <glyph glyph-name="braceleft" unicode="{" horiz-adv-x="375" 
d="M180 446q-14 -11 -31 -16q-17 -6 -34 -6q-25 0 -45 16q-21 15 -21 41t21 42q20 16 45 16q17 0 34 -6t31 -15q37 26 57 66q19 39 19 84q0 43 -12 86t-30 86q-18 42 -39 85t-39 88t-30 92t-12 97q0 43 10 90q10 46 31 88q20 41 52 74q31 32 75 47l21 -47q-28 -14 -49 -36
t-35 -49q-15 -27 -22 -57q-7 -31 -7 -61q0 -66 25 -129q24 -63 53 -126q29 -64 54 -131q24 -67 24 -142q0 -66 -24 -130q-25 -65 -75 -112q50 -46 75 -109q24 -64 24 -132q0 -49 -11 -95q-12 -46 -29 -90q-18 -45 -38 -88q-20 -42 -37 -85q-18 -42 -29 -85q-12 -42 -12 -86
q0 -30 7 -60t22 -57q14 -26 35 -48t49 -35l-21 -50q-44 16 -75 49q-32 33 -52 75q-21 42 -31 88t-10 89q0 50 12 96q12 47 30 92t39 88t39 86q18 42 30 85q12 42 12 86q0 45 -19 85z" />
    <glyph glyph-name="bar" unicode="|" horiz-adv-x="184" 
d="M135 1505v-2048h-86v2048h86z" />
    <glyph glyph-name="braceright" unicode="}" horiz-adv-x="375" 
d="M193 446q-36 -26 -56 -66t-20 -85q0 -43 12 -86t30 -85q18 -43 39 -86t39 -88t30 -92q12 -46 12 -96q0 -43 -9 -89q-10 -46 -30 -88q-21 -42 -52 -75q-32 -33 -75 -49l-23 50q28 13 50 35t36 48q14 27 22 57q7 30 7 60q0 44 -11 86q-12 43 -29 85q-18 43 -38 85
q-20 43 -37 88q-18 44 -29 90q-12 46 -12 95q0 68 25 132q24 63 73 109q-49 47 -73 112q-25 64 -25 130q0 75 25 142q24 67 53 131q29 63 54 126q24 63 24 129q0 30 -7 61q-8 30 -22 57t-36 49t-50 36l23 47q43 -15 75 -47q31 -33 52 -74q20 -42 30 -88q9 -47 9 -90
q0 -50 -12 -97t-30 -92t-39 -88t-39 -85q-18 -43 -30 -86t-12 -86q0 -45 20 -84q20 -40 56 -66q15 9 32 15t35 6q25 0 46 -16q20 -16 20 -42t-20 -41q-21 -16 -46 -16z" />
    <glyph glyph-name="asciitilde" unicode="~" horiz-adv-x="1112" 
d="M1063 834q-1 -55 -23 -103t-59 -84t-86 -57t-104 -21q-31 0 -62 8q-31 7 -59 21l-267 135q-20 11 -41 16t-43 5q-41 0 -74 -14q-34 -14 -58 -38q-25 -25 -39 -58q-15 -34 -17 -73h-82q2 31 9 61q6 30 20 56q17 34 43 62q25 27 57 47q31 19 67 29t74 10q32 0 63 -7
q30 -8 58 -22l267 -135q20 -11 42 -16q21 -5 44 -5q37 0 71 15q34 14 60 39q25 24 41 58q15 33 16 71h82z" />
    <glyph glyph-name="uni00A0" unicode="&#xa0;" horiz-adv-x="461" 
 />
    <glyph glyph-name="exclamdown" unicode="&#xa1;" horiz-adv-x="283" 
d="M168 743l47 -1050q0 -17 -4 -35t-13 -33t-23 -25t-34 -10q-19 0 -32 9q-14 10 -22 25q-9 15 -13 34q-4 20 -4 41l45 1044h53zM141 846q-19 0 -36 8q-17 7 -29 20q-13 12 -20 29t-7 35q0 19 7 36t20 30q12 13 29 21q17 7 36 7t36 -7q17 -8 30 -21q12 -13 19 -30t7 -36
q0 -18 -7 -35t-19 -29q-13 -13 -30 -20z" />
    <glyph glyph-name="cent" unicode="&#xa2;" horiz-adv-x="731" 
d="M463 1010q56 -8 104 -32q47 -25 90 -60l-16 -48q-6 -18 -12 -38q-7 -20 -13 -37l-10 -30l-4 -11l-51 16q12 34 12 66q0 25 -9 45q-9 19 -25 34q-16 14 -36 23q-21 8 -44 12l-115 -495q21 -7 43 -9q21 -2 43 -2q62 0 121 20q59 19 102 62l39 -39q-51 -56 -125 -83
t-149 -27q-23 0 -45 3q-23 2 -46 5l-88 -385h-57l92 399q-99 32 -157 107q-58 74 -58 180q0 75 30 136q29 60 79 103q49 42 114 65q65 22 136 22l69 301h55zM393 954q-53 -3 -99 -21q-47 -19 -82 -51t-55 -76q-20 -45 -20 -101q0 -78 37 -139t109 -93z" />
    <glyph glyph-name="sterling" unicode="&#xa3;" horiz-adv-x="1116" 
d="M1067 1065q0 -70 -33 -125q-33 -56 -85 -95q-53 -39 -117 -60t-127 -21q-83 0 -158 35v135q17 -26 38 -50q20 -24 44 -42t53 -28q28 -11 61 -11q48 0 92 19q43 18 76 50q33 31 53 74q19 42 19 90q0 57 -25 105q-26 47 -67 82q-42 34 -95 54q-53 19 -108 19
q-74 0 -137 -26q-64 -27 -111 -74q-48 -47 -75 -111t-27 -139v-524h278v-55h-278v-82q0 -78 -36 -144q-36 -67 -105 -104h448q35 0 64 13q28 13 48 36q20 22 31 52q11 29 11 63h22v-201h-772v25q37 0 70 9q32 8 57 27q24 19 39 48q14 28 14 69v189h-180v55h180v452
q0 99 37 182q36 82 100 141q63 59 148 92q85 32 182 32q57 0 122 -14q65 -15 121 -46q55 -31 92 -79z" />
    <glyph glyph-name="currency" unicode="&#xa4;" horiz-adv-x="1513" 
d="M1464 457v-301h-53v26q-94 -81 -211 -128q-117 -48 -242 -48q-128 0 -243 41t-207 116t-155 180q-63 104 -85 230h-219l31 54h182q-2 17 -3 34q-1 16 -1 33t1 34t3 34h-213l31 55h188q22 127 85 232q63 104 155 179q92 74 207 115t243 41q125 0 242 -47t211 -131v29h53
v-301h-53q0 90 -39 162q-40 71 -104 121q-64 49 -145 76q-82 26 -165 26q-114 0 -212 -37t-174 -104t-127 -159t-70 -202h889l-33 -55h-862q-2 -17 -3 -34t-1 -34t1 -33q1 -17 3 -34h809l-33 -54h-770q19 -110 70 -202q51 -93 127 -160t174 -104t212 -37q83 0 165 27
q81 26 145 76t104 122q39 71 39 162h53z" />
    <glyph glyph-name="yen" unicode="&#xa5;" horiz-adv-x="184" 
d="M135 1505v-989h-86v989h86zM135 -543h-86v989h86v-989z" />
    <glyph glyph-name="brokenbar" unicode="&#xa6;" horiz-adv-x="1057" 
d="M621 434h348v-55h-348v-283q0 -15 10 -23q10 -9 24 -13q13 -4 27 -4q14 -1 23 -1v-55h-271v55q9 0 24 1q14 0 28 4q13 4 23 13q9 8 9 23v283h-364v55h364v135h-364v54h331l-358 559q-16 23 -31 39q-16 16 -47 16v55h248v-55q-14 0 -27 -5q-14 -5 -14 -22q0 -6 3 -11
q2 -6 5 -11l328 -524q6 14 27 58q21 43 49 101q27 58 57 123q30 64 55 120q25 55 42 94q16 38 16 44q0 19 -13 26t-28 7v55h211v-55q-60 0 -84 -53l-279 -561h324v-54h-348v-135z" />
    <glyph glyph-name="section" unicode="&#xa7;" horiz-adv-x="1880" 
d="M1776 866q0 28 -11 54q-11 25 -29 45q-19 19 -43 31q-25 12 -53 12q-41 0 -73 -29q2 -6 2 -13v-14q0 -26 -19 -45q-19 -20 -47 -20q-26 0 -45 19q-20 18 -20 46q0 34 16 59t41 42q25 16 56 24t61 8q45 0 85 -16q39 -17 69 -46t48 -68q17 -40 17 -85q0 -65 -26 -112
q-27 -48 -73 -79q-47 -32 -109 -47q-62 -16 -132 -16q40 -42 64 -94q24 -53 24 -110q0 -58 -23 -105q-24 -48 -63 -82q-40 -34 -91 -52q-51 -19 -106 -19q-48 0 -93 11q-46 10 -89 29q-43 18 -83 43q-41 24 -77 52l-286 221q-44 -28 -93 -47t-102 -19q-69 0 -131 35
q-63 35 -100 94q-26 -14 -48 -33q-23 -20 -40 -43q-17 -24 -27 -51q-10 -28 -10 -59q0 -17 8 -31q7 -15 19 -25q12 -11 28 -17q15 -6 31 -7q5 28 23 51q17 23 48 23q25 0 43 -16q17 -17 17 -41q0 -26 -12 -45q-12 -20 -30 -33q-19 -13 -42 -20q-24 -7 -47 -7q-35 0 -63 14
q-29 14 -49 38t-31 55q-11 30 -11 63q0 42 13 80q12 38 34 71q21 33 51 61q29 27 64 48q-5 14 -6 30q-2 15 -2 32q0 81 39 145q39 63 100 107q61 43 137 66q75 22 148 22q96 0 186 -27q89 -28 174 -72l361 -184q55 -28 111 -43q55 -16 118 -16q34 0 70 10q35 10 64 30
q29 19 47 49zM1280 653q-37 0 -68 -11q-31 -12 -58 -31q-27 -20 -49 -46q-23 -26 -42 -55l-238 139q-25 -31 -55 -57l297 -242q56 -45 123 -76q67 -32 141 -32q36 0 70 12q33 12 60 34q26 21 42 52q15 31 15 70q0 47 -19 91q-20 44 -52 78q-33 33 -76 54zM831 893
q-29 15 -62 28q-34 12 -69 22q-36 9 -72 15q-36 5 -69 5q-52 0 -104 -19q-53 -19 -95 -52q-43 -34 -69 -81q-27 -47 -27 -104v-16q0 -7 2 -15q44 20 91 29q46 8 94 8q74 0 144 -23t132 -65q37 35 70 73q32 38 63 78l236 -141q26 22 55 38t61 25zM623 545q-47 34 -103 51
q-57 16 -114 16q-28 0 -55 -3q-28 -4 -54 -13q28 -46 76 -72t102 -26q38 0 76 14z" />
    <glyph glyph-name="dieresis" unicode="&#xa8;" horiz-adv-x="375" 
d="M268 956q23 0 41 -17q17 -17 17 -40q0 -25 -17 -42q-18 -17 -41 -17q-24 0 -41 17q-18 17 -18 42q0 23 18 40zM109 956q23 0 40 -17t17 -40q0 -25 -17 -42t-40 -17q-25 0 -42 17q-18 17 -18 42q0 23 18 40z" />
    <glyph glyph-name="copyright" unicode="&#xa9;" horiz-adv-x="1413" 
d="M707 1315q90 0 174 -23q84 -24 157 -67t133 -103t103 -133t67 -157q23 -84 23 -175q0 -90 -23 -174q-24 -84 -67 -157t-103 -133t-133 -103t-157 -66q-84 -24 -174 -24q-91 0 -175 24q-84 23 -157 66t-133 103t-103 133t-66 157q-24 83 -24 174t24 175q23 84 66 157
t103 133t133 103t157 67zM707 1260q-83 0 -160 -21q-77 -22 -144 -61q-67 -40 -122 -95t-94 -122q-40 -67 -61 -144q-22 -77 -22 -160q0 -124 48 -233q47 -110 129 -192t192 -129q109 -48 234 -48q124 0 234 48q109 47 191 129t130 192q47 109 47 233q0 83 -21 160
q-22 77 -61 144q-40 67 -95 122t-122 95q-67 39 -143 61zM1061 1065h55q0 -35 2 -70q2 -36 2 -71q0 -38 -3 -73q-3 -36 -15 -71l-51 19q8 19 8 47q0 52 -35 93t-86 70q-51 28 -108 43t-101 15q-88 0 -167 -29t-139 -82t-95 -127q-35 -75 -35 -167q0 -89 37 -165
q36 -77 97 -133t141 -88q79 -32 165 -32q51 0 103 13q51 12 98 35t87 57q39 34 66 77l48 -29q-33 -53 -80 -94t-102 -68q-56 -28 -117 -42q-62 -15 -123 -15q-103 0 -196 37q-94 37 -164 102q-71 65 -112 155q-42 90 -42 196t46 192q45 85 120 145q75 59 170 91t194 32
q90 0 176 -29q85 -29 156 -81v47z" />
    <glyph glyph-name="ordfeminine" unicode="&#xaa;" horiz-adv-x="629" 
d="M580 762q-26 -29 -62 -29q-31 0 -56 16q-25 15 -36 44q-43 -31 -96 -31q-29 0 -56 10q-28 9 -49 27q-21 17 -34 42t-13 56q0 37 18 63q18 25 44 48q24 -10 50 -13q26 -4 54 -4q19 0 37 1q18 0 37 5v183q0 31 -9 59t-26 48q-18 20 -43 32q-26 12 -59 12q-32 0 -61 -10
q-30 -11 -52 -29q-23 -19 -37 -46t-14 -60q0 -17 6 -26q5 -9 14 -13q9 -5 22 -5q12 -1 27 -1q-5 -26 -20 -48q-16 -22 -45 -22q-19 0 -32 11q-14 10 -23 26q-9 15 -13 34q-4 18 -4 34q0 48 19 87t51 67q32 27 74 42q42 14 88 14q45 0 84 -14q39 -15 68 -42q28 -27 45 -65
q16 -38 16 -85v-332q0 -6 1 -16q0 -11 2 -20q2 -10 7 -17t14 -7q11 0 19 9zM418 934q-32 -6 -64 -6h-18q-34 0 -68 6q-3 -8 -6 -21q-4 -14 -4 -20q0 -34 22 -52t54 -18q10 0 24 4t28 11q13 7 23 17q9 10 9 22v57zM578 709v-56h-490v56h490z" />
    <glyph glyph-name="guillemotleft" unicode="&#xab;" horiz-adv-x="473" 
d="M424 266h-68l-137 254l137 254h68l-107 -254zM254 266h-68l-137 254l137 254h68l-109 -254z" />
    <glyph glyph-name="logicalnot" unicode="&#xac;" horiz-adv-x="997" 
d="M948 702v-323h-90v233h-809v90h899z" />
    <glyph glyph-name="registered" unicode="&#xae;" horiz-adv-x="813" 
d="M408 1438q73 0 138 -28q65 -29 114 -77q48 -49 76 -114q28 -66 28 -140t-28 -139t-76 -113q-49 -49 -114 -77q-65 -29 -138 -29q-74 0 -139 29q-66 28 -114 77q-49 48 -77 113q-29 65 -29 139t29 140q28 65 77 114q48 48 114 77zM408 1395q-66 0 -123 -25
q-58 -25 -100 -68q-43 -43 -68 -100q-25 -58 -25 -123t25 -122q25 -58 68 -101q42 -43 100 -67q57 -25 123 -25q65 0 123 25q57 24 100 67q42 43 67 101q25 57 25 122t-25 123q-25 57 -67 100q-43 43 -100 68zM573 930q10 -14 22 -19q12 -6 28 -6v-43h-127v43l24 4l-74 107
q-21 -3 -42 -5q-22 -3 -44 -3q-11 0 -22 1q-12 1 -25 3v-86q0 -11 10 -16q9 -5 17 -5v-43h-111v43q10 0 19 5q8 5 8 16v336q0 12 -9 16t-20 4v41q39 0 77 3q37 3 75 3q34 0 76 -8q41 -8 77 -26t60 -47t24 -72q0 -26 -9 -48t-24 -40q-16 -18 -36 -31q-21 -14 -43 -23z
M313 1057q14 -3 28 -3q14 -1 28 -1q27 0 60 5q32 5 60 19q28 13 47 35t19 57q0 32 -17 55q-17 22 -42 36q-26 14 -56 20t-57 6q-36 0 -70 -6v-223z" />
    <glyph glyph-name="macron" unicode="&#xaf;" horiz-adv-x="461" 
d="M412 907v-57h-363v57h363z" />
    <glyph glyph-name="degree" unicode="&#xb0;" horiz-adv-x="643" 
d="M322 1325q52 0 101 -17t87 -48q38 -32 61 -77q23 -46 23 -102q0 -55 -23 -100t-61 -76q-38 -32 -87 -49q-49 -18 -101 -18q-53 0 -102 18q-49 17 -87 49q-38 31 -61 76t-23 100q0 56 23 102q23 45 61 77q38 31 87 48zM322 1264q-38 0 -73 -14q-36 -14 -63 -38
q-28 -25 -44 -58q-17 -34 -17 -73q0 -38 17 -71q16 -34 44 -58q27 -25 63 -39q35 -14 73 -14q37 0 72 14t62 39q27 24 44 58q16 33 16 71q0 39 -16 73q-17 33 -44 58q-27 24 -62 38z" />
    <glyph glyph-name="plusminus" unicode="&#xb1;" horiz-adv-x="997" 
d="M453 702v404h92v-404h403v-90h-403v-405h-92v405h-404v90h404zM948 90v-90h-899v90h899z" />
    <glyph glyph-name="uni00B2" unicode="&#xb2;" horiz-adv-x="565" 
d="M481 868v-166h-35v13h-346q-2 8 -2 15v13q0 40 28 72q27 31 68 59q41 27 90 53q48 26 89 55t69 63q27 34 27 79q0 36 -17 65q-18 29 -45 49q-27 19 -60 30q-34 10 -66 10q-38 0 -72 -13t-59 -36q-26 -23 -41 -55q-15 -33 -15 -72q0 -23 7 -47q7 -25 21 -46q13 -21 33 -34
q20 -14 46 -14q9 0 21 4q11 3 11 20l33 10q8 -8 8 -22q0 -13 -6 -22q-7 -10 -17 -16t-22 -8q-12 -3 -24 -3q-35 0 -63 16q-29 16 -49 42q-21 25 -32 57q-12 31 -12 63q0 48 20 88q19 39 51 67t75 43q42 15 88 15q41 0 83 -13q41 -14 75 -39q33 -26 54 -62q21 -37 21 -83
q0 -54 -23 -92q-23 -39 -58 -68q-36 -30 -79 -52q-44 -22 -85 -42q-41 -21 -74 -42q-34 -22 -50 -50h240q21 0 33 7q12 6 18 19q6 12 7 30t1 40h35z" />
    <glyph glyph-name="uni00B3" unicode="&#xb3;" horiz-adv-x="600" 
d="M299 881q6 3 7 8t1 10q0 19 -10 34q-10 14 -25 24q-16 9 -34 14q-19 4 -35 4q-40 0 -66 -22q-26 -23 -26 -66q0 -37 17 -67q16 -30 43 -51t61 -32q33 -12 67 -12t68 12q34 11 61 32t44 51t17 67t-17 67q-18 29 -46 50t-62 32q-35 11 -69 11v34q20 1 44 11q24 9 45 24
t36 35q14 19 14 41t-15 39q-15 16 -36 27q-21 10 -44 15q-24 5 -42 5q-21 0 -45 -5q-25 -6 -45 -17q-20 -12 -33 -30q-14 -18 -14 -44q0 -29 19 -50q19 -22 50 -22q14 0 28 5q13 5 26 13q3 -3 5 -8q1 -5 1 -10q0 -11 -6 -18t-14 -11q-9 -5 -18 -6q-10 -2 -18 -2q-23 0 -44 9
q-21 8 -37 23q-16 14 -25 34q-10 20 -10 43q0 35 17 61q17 25 44 41q26 16 58 24q32 7 61 7q27 0 59 -7t60 -21q28 -15 47 -38q18 -24 18 -57q0 -21 -8 -39q-8 -19 -21 -34q-14 -15 -30 -27q-17 -12 -35 -21q31 -9 61 -25q30 -17 53 -40q22 -24 36 -54t14 -65q0 -48 -23 -85
q-24 -37 -60 -62q-37 -25 -82 -37q-45 -13 -87 -13t-86 13q-45 12 -81 37q-37 25 -60 62t-23 85q0 31 12 55q11 24 31 40q19 16 46 24q26 8 55 8q25 0 52 -7t49 -21q22 -15 36 -36q14 -22 14 -51q0 -26 -15 -44q-16 -19 -44 -19q-11 0 -21 8t-10 20q0 11 8 17t19 6z" />
    <glyph glyph-name="acute" unicode="&#xb4;" horiz-adv-x="422" 
d="M49 840l203 264q11 12 26 22q14 9 31 9q26 0 45 -19q19 -20 19 -45q0 -22 -10 -35q-10 -14 -27 -26l-236 -170h-51z" />
    <glyph glyph-name="mu" unicode="&#xb5;" horiz-adv-x="494" 
d="M422 76q0 -11 8 -16t19 -5v-55h-115v37q-26 -19 -56 -31q-31 -12 -63 -12q-35 0 -65 18q-8 -35 -26 -79q-19 -44 -47 -83q-28 -38 -63 -64q-36 -26 -77 -26q-14 0 -26 9q-11 10 -11 24t11 24q12 11 26 11q3 0 6 -2t8 -2q6 0 17 4q11 5 16 8q24 15 42 44q18 30 30 64
q12 35 18 70t6 62v549q0 11 -4 19q-5 7 -21 9l-10 54q26 11 51 24q24 12 45 29l35 -41q-6 -9 -6 -21v-526q0 -16 2 -35t9 -35q7 -17 20 -28t35 -11q27 0 53 15q25 14 45 31v514q0 12 -5 20t-22 10l-10 54q26 11 50 24q24 12 44 29l35 -41q-3 -5 -3 -9q-1 -5 -1 -12v-622z
" />
    <glyph glyph-name="paragraph" unicode="&#xb6;" horiz-adv-x="1180" 
d="M954 -217v1427q0 4 2 9q-23 9 -46 14t-48 10v-1460h-55v248q-22 -3 -42 -4q-20 -2 -42 -2q-142 0 -265 51q-123 50 -214 139t-143 211q-52 121 -52 264q0 141 55 257q54 115 146 197t215 127q122 44 258 44q42 0 83 -2t83 -8q9 -1 22 -3q12 -3 26 -5q13 -3 25 -5
q11 -3 19 -4h149v-53h-28q-14 0 -30 -1t-30 -4q-14 -4 -23 -10q-9 -7 -9 -18v-1419h-56zM807 1249q-50 6 -100 6q-124 0 -226 -46q-102 -47 -174 -127q-73 -80 -113 -186t-40 -226q0 -116 40 -221q40 -106 112 -186q71 -80 171 -127q99 -48 219 -48q58 0 111 12v1149z" />
    <glyph glyph-name="periodcentered" unicode="&#xb7;" horiz-adv-x="283" 
d="M141 647q19 0 36 -7t30 -19q12 -13 19 -30t7 -36t-7 -36t-19 -29q-13 -13 -30 -20t-36 -7t-36 7t-29 20q-13 12 -20 29t-7 36t7 36t20 30q12 12 29 19z" />
    <glyph glyph-name="cedilla" unicode="&#xb8;" horiz-adv-x="365" 
d="M199 -84q21 -8 41 -22q19 -14 34 -32q14 -18 23 -39q8 -21 8 -44q0 -33 -13 -60t-35 -46q-23 -19 -52 -30q-29 -10 -60 -10q-12 0 -28 2q-17 2 -32 8t-25 16q-11 10 -11 26q0 20 15 30q14 11 32 11q13 0 23 -6t20 -13l20 -12t23 -6q25 0 46 18q20 18 20 43t-13 43
q-14 19 -34 31t-43 18q-24 6 -45 6l-11 25l127 147h60z" />
    <glyph glyph-name="uni00B9" unicode="&#xb9;" horiz-adv-x="283" 
d="M233 727h-184v35q9 0 20 1t21 5q9 3 16 10t7 19v417q0 9 -7 14q-8 4 -17 6q-10 2 -20 3h-16v37q23 0 48 9t36 32l35 -8v-510q0 -12 7 -19q6 -7 16 -10q9 -4 20 -5q10 -1 18 -1v-35z" />
    <glyph glyph-name="ordmasculine" unicode="&#xba;" horiz-adv-x="786" 
d="M393 1325q62 0 121 -20q58 -21 103 -58q45 -38 73 -91q27 -54 27 -120q0 -67 -27 -120q-28 -54 -73 -92t-103 -58q-59 -21 -121 -21t-120 21q-59 20 -104 58q-46 38 -73 92q-28 53 -28 120q0 66 28 120q27 53 73 91q45 37 104 58zM393 1264q-47 0 -91 -17
q-44 -18 -77 -48q-34 -31 -54 -73q-21 -42 -21 -90q0 -49 21 -91q20 -42 54 -72q33 -31 77 -48q44 -18 91 -18t91 18q44 17 78 48q34 30 55 72q20 42 20 91q0 48 -20 90q-21 42 -55 73q-34 30 -78 48zM737 709v-56h-688v56h688z" />
    <glyph glyph-name="guillemotright" unicode="&#xbb;" horiz-adv-x="473" 
d="M49 774h66l139 -254l-139 -254h-66l107 254zM219 774h68l137 -254l-137 -254h-68l107 254z" />
    <glyph glyph-name="onequarter" unicode="&#xbc;" horiz-adv-x="1219" 
d="M197 0h-68l930 1313h65zM932 184h-502l514 723h76v-645q20 1 37 9t30 22q13 13 20 31q7 17 7 36v66h55v-268h-55v26h-94v-92q0 -26 20 -31q19 -6 45 -6v-55h-290v55h92q23 0 34 13q11 12 11 24v92zM932 262v535l-379 -535h379zM328 424h-279v53q12 0 29 1q16 1 31 6
q15 4 26 14q10 10 10 28v637q0 12 -11 19t-25 10q-15 3 -30 4h-24v55q18 0 37 4q19 3 37 11q17 7 31 19t22 30l51 -10v-779q0 -18 10 -27q10 -10 25 -15t32 -6q16 -1 28 -1v-53z" />
    <glyph glyph-name="onehalf" unicode="&#xbd;" horiz-adv-x="1499" 
d="M1397 231v-251h-56v20h-524q-2 11 -2 21v22q0 45 24 83q24 37 64 70q39 33 90 63q50 30 103 61q52 30 103 62q50 31 90 67q39 36 63 79q24 42 24 93q0 54 -26 97t-67 73t-91 46q-51 15 -100 15q-58 0 -109 -19q-52 -19 -90 -54q-39 -35 -61 -84q-23 -49 -23 -109
q0 -38 10 -77q10 -40 35 -71q20 -24 52 -44q31 -21 63 -21q7 0 16 1q9 0 17 4q8 3 13 10t5 20l51 16q10 -17 10 -35q0 -20 -10 -34t-25 -23t-33 -13t-34 -4q-25 0 -49 7t-46 19q-23 12 -42 28q-20 16 -35 34q-34 38 -50 86q-16 47 -16 97q0 73 29 132t78 101t113 65t133 23
q64 0 128 -20q63 -20 114 -58q51 -39 83 -94q31 -55 31 -125q0 -81 -34 -140q-35 -59 -89 -103q-55 -45 -120 -78q-66 -34 -128 -65q-63 -32 -113 -64q-51 -33 -75 -74h352q37 0 57 13q20 12 29 32t11 47q1 26 1 53h56zM328 424h-279v53q12 0 29 1q16 1 31 6q15 4 26 14
q10 10 10 28v637q0 12 -11 19t-25 10q-15 3 -30 4h-24v55q18 0 37 4q19 3 37 11q17 7 31 19t22 30l51 -10v-779q0 -18 10 -27q10 -10 25 -15t32 -6q16 -1 28 -1v-53zM172 0h-68l930 1313h68z" />
    <glyph glyph-name="threequarters" unicode="&#xbe;" horiz-adv-x="1577" 
d="M555 0h-68l930 1313h68zM1290 184h-499l512 723h75v-645q20 1 38 9q17 8 30 22q12 13 20 31q7 17 7 36v66h55v-268h-55v26h-95v-92q0 -26 19 -31q18 -6 47 -6v-55h-291v55h102q13 0 24 8q11 7 11 19v102zM1290 262v535l-379 -535h379zM428 655q8 3 10 12q2 8 2 17
q0 28 -15 49q-16 21 -39 35q-24 14 -51 22q-28 7 -52 7q-62 0 -102 -34t-40 -99q0 -57 26 -102q25 -46 66 -77q41 -32 93 -48q51 -17 102 -17t103 17q51 16 92 48q41 31 67 77q25 45 25 102q0 56 -26 101q-27 44 -69 76q-42 31 -94 48q-53 17 -104 18v51q30 2 67 16
q36 13 68 36q31 22 53 52q21 29 21 62q0 34 -22 59q-22 24 -53 40q-32 16 -67 24q-36 8 -63 8q-33 0 -70 -7q-37 -8 -68 -25q-32 -17 -52 -44q-21 -28 -21 -67q0 -46 30 -77q29 -31 77 -31q21 0 42 8q21 7 39 18q11 -13 11 -29t-9 -26q-9 -11 -22 -17q-13 -7 -28 -9
q-15 -3 -27 -3q-36 0 -68 13q-32 12 -56 34t-38 53q-14 30 -14 66q0 52 26 90q26 37 67 62q40 24 88 36q48 11 93 11q41 0 90 -10q48 -11 90 -33q42 -23 71 -58q28 -35 28 -84q0 -33 -12 -60q-13 -28 -33 -51q-21 -23 -47 -41t-52 -32q48 -14 93 -39q44 -26 79 -61
q34 -35 55 -80t21 -98q0 -73 -35 -129q-36 -56 -91 -93q-55 -38 -123 -57q-68 -20 -132 -20t-131 20q-67 19 -122 57q-55 37 -90 93q-36 56 -36 129q0 46 18 82q17 36 47 61q30 24 69 37q39 12 83 12q39 0 80 -10q40 -11 74 -33q33 -22 55 -54q21 -33 21 -77q0 -40 -24 -67
t-66 -27q-17 0 -31 11q-15 11 -15 30q0 15 12 25t27 10z" />
    <glyph glyph-name="questiondown" unicode="&#xbf;" horiz-adv-x="942" 
d="M180 -6q0 -68 17 -131q16 -62 52 -111q35 -48 90 -77q54 -29 130 -29q79 0 139 32q60 33 100 86q40 54 60 122q20 69 20 141q0 51 -12 110q-12 58 -39 108q-27 49 -70 82q-44 33 -106 33q-46 0 -83 -19q-37 -20 -62 -52q-26 -33 -40 -74t-14 -84q0 -34 10 -67
q9 -33 29 -62l-39 -37q-35 31 -51 73t-16 87q0 54 21 107q20 53 56 94t85 67q48 25 104 25q79 0 141 -31q62 -32 105 -84q42 -53 64 -121t22 -141q0 -95 -30 -177t-85 -143q-56 -61 -134 -96t-175 -35q-81 0 -157 31t-134 85q-59 54 -94 126q-35 73 -35 156q0 57 16 110
q15 52 41 101q25 48 58 93q32 45 67 87l164 190q25 29 41 68q15 38 15 76q0 26 -14 42q-14 15 -34 29q16 19 34 35q18 15 44 15q19 0 34 -8t25 -21q10 -14 16 -30q5 -17 5 -34q0 -21 -7 -41t-18 -38q-12 -19 -25 -36q-14 -17 -26 -32l-186 -227q-65 -81 -92 -175zM475 885
q-19 0 -36 7t-29 20q-13 12 -20 29t-7 36q0 18 7 35t20 30q12 12 29 20q17 7 36 7t36 -7q17 -8 30 -20q12 -13 19 -30t7 -35q0 -19 -7 -36t-19 -29q-13 -13 -30 -20z" />
    <glyph glyph-name="Agrave" unicode="&#xc0;" 
d="M49 55q31 0 51 21q19 20 27 49l379 1380h63l-24 -86l399 -1298q8 -26 29 -46q20 -20 49 -20v-55h-217v55q15 0 27 6t12 23q0 5 -11 44q-11 38 -29 99q-18 60 -41 136q-24 76 -49 157q-25 80 -49 159q-25 79 -45 145q-21 65 -35 112q-15 46 -20 61h-137q-4 -15 -16 -61
q-13 -46 -31 -111q-18 -66 -40 -145t-44 -159q-23 -81 -44 -157q-21 -77 -37 -137t-26 -98q-10 -39 -10 -43q0 -19 13 -25t28 -6v-55h-172v55zM494 1231l-50 -180h105zM645 1475l-237 170q-16 12 -25 26q-10 13 -10 35q0 25 18 45q17 19 43 19q17 0 33 -9q15 -10 25 -22
l204 -264h-51z" />
    <glyph glyph-name="Aacute" unicode="&#xc1;" 
d="M49 55q31 0 51 21q19 20 27 49l379 1380h63l-24 -86l399 -1298q8 -26 29 -46q20 -20 49 -20v-55h-217v55q15 0 27 6t12 23q0 5 -11 44q-11 38 -29 99q-18 60 -41 136q-24 76 -49 157q-25 80 -49 159q-25 79 -45 145q-21 65 -35 112q-15 46 -20 61h-137q-4 -15 -16 -61
q-13 -46 -31 -111q-18 -66 -40 -145t-44 -159q-23 -81 -44 -157q-21 -77 -37 -137t-26 -98q-10 -39 -10 -43q0 -19 13 -25t28 -6v-55h-172v55zM494 1231l-50 -180h105zM373 1475l203 264q11 12 26 22q14 9 31 9q26 0 45 -19q19 -20 19 -45q0 -22 -10 -35q-10 -14 -27 -26
l-236 -170h-51z" />
    <glyph glyph-name="Acircumflex" unicode="&#xc2;" 
d="M49 55q31 0 51 21q19 20 27 49l379 1380h63l-24 -86l399 -1298q8 -26 29 -46q20 -20 49 -20v-55h-217v55q15 0 27 6t12 23q0 5 -11 44q-11 38 -29 99q-18 60 -41 136q-24 76 -49 157q-25 80 -49 159q-25 79 -45 145q-21 65 -35 112q-15 46 -20 61h-137q-4 -15 -16 -61
q-13 -46 -31 -111q-18 -66 -40 -145t-44 -159q-23 -81 -44 -157q-21 -77 -37 -137t-26 -98q-10 -39 -10 -43q0 -19 13 -25t28 -6v-55h-172v55zM494 1231l-50 -180h105zM500 1718h71l181 -243h-47l-168 137l-170 -137h-47z" />
    <glyph glyph-name="Atilde" unicode="&#xc3;" 
d="M49 55q31 0 51 21q19 20 27 49l379 1380h63l-24 -86l399 -1298q8 -26 29 -46q20 -20 49 -20v-55h-217v55q15 0 27 6t12 23q0 5 -11 44q-11 38 -29 99q-18 60 -41 136q-24 76 -49 157q-25 80 -49 159q-25 79 -45 145q-21 65 -35 112q-15 46 -20 61h-137q-4 -15 -16 -61
q-13 -46 -31 -111q-18 -66 -40 -145t-44 -159q-23 -81 -44 -157q-21 -77 -37 -137t-26 -98q-10 -39 -10 -43q0 -19 13 -25t28 -6v-55h-172v55zM494 1231l-50 -180h105zM448 1653q31 0 61 -12q29 -12 58 -26q28 -14 55 -26t54 -12q29 0 48 17t27 45h33q0 -27 -10 -51
q-11 -24 -28 -41q-18 -18 -41 -28q-24 -11 -50 -11q-31 0 -61 12q-30 11 -59 25q-29 13 -57 25q-29 11 -56 11q-28 0 -47 -14q-19 -15 -27 -43h-33v14q0 26 12 48q11 21 30 36q18 15 42 23z" />
    <glyph glyph-name="Adieresis" unicode="&#xc4;" 
d="M49 55q31 0 51 21q19 20 27 49l379 1380h63l-24 -86l399 -1298q8 -26 29 -46q20 -20 49 -20v-55h-217v55q15 0 27 6t12 23q0 5 -11 44q-11 38 -29 99q-18 60 -41 136q-24 76 -49 157q-25 80 -49 159q-25 79 -45 145q-21 65 -35 112q-15 46 -20 61h-137q-4 -15 -16 -61
q-13 -46 -31 -111q-18 -66 -40 -145t-44 -159q-23 -81 -44 -157q-21 -77 -37 -137t-26 -98q-10 -39 -10 -43q0 -19 13 -25t28 -6v-55h-172v55zM494 1231l-50 -180h105zM612 1642q23 0 41 -17q17 -17 17 -40q0 -25 -17 -42q-18 -17 -41 -17q-24 0 -41 17q-18 17 -18 42
q0 23 18 40zM453 1642q23 0 40 -17t17 -40q0 -25 -17 -42t-40 -17q-25 0 -42 17q-18 17 -18 42q0 23 18 40z" />
    <glyph glyph-name="Aring" unicode="&#xc5;" 
d="M535 1686q21 0 41 -8q19 -9 34 -24q14 -15 23 -34q8 -20 8 -41q0 -37 -23 -65t-57 -37l-16 -58l399 -1298q8 -26 29 -46q20 -20 49 -20v-55h-217v55q15 0 27 6t12 23q0 5 -11 44q-11 38 -29 99q-18 60 -41 136q-24 76 -49 157q-25 80 -49 159q-25 79 -45 145
q-21 65 -35 112q-15 46 -20 61h-137q-4 -15 -16 -61q-13 -46 -31 -111q-18 -66 -40 -145t-44 -159q-23 -81 -44 -157q-21 -77 -37 -137t-26 -98q-10 -39 -10 -43q0 -19 13 -25t28 -6v-55h-172v55q31 0 51 21q19 20 27 49l371 1356q-29 11 -48 38q-20 26 -20 60q0 21 8 41
q8 19 23 34q14 15 33 24zM535 1642q-26 0 -45 -18q-19 -19 -19 -45t19 -44q19 -19 45 -19t45 19q18 18 18 44t-18 45zM494 1231l-50 -180h105z" />
    <glyph glyph-name="AE" unicode="&#xc6;" horiz-adv-x="1319" 
d="M883 1350q-14 0 -22 -9q-9 -10 -9 -24v-879h190q41 0 57 24q15 24 15 66h55v-327h-55q0 39 -1 73q-2 33 -11 57t-28 38q-20 14 -56 14h-166v-297q0 -31 31 -31h174q33 0 62 13q28 12 50 33q21 21 33 50t12 62v72h56v-303h-56v18h-542v55q10 0 24 1q13 0 25 4t21 13
q8 9 8 25v285h-414l-16 -32q-11 -23 -25 -51q-14 -29 -29 -60t-27 -58q-12 -28 -20 -48q-8 -21 -8 -28q0 -24 20 -37q20 -14 41 -14v-55h-223v55q20 0 37 8q16 8 30 21q13 13 24 29q10 16 18 32l567 1205h-94v55h563v18h55v-385h-55v152q0 33 -12 62q-13 29 -34 51t-50 35
q-29 12 -62 12h-153zM750 438v824l-388 -824h388z" />
    <glyph glyph-name="Ccedilla" unicode="&#xc7;" horiz-adv-x="1573" 
d="M840 -102q21 -9 41 -23q19 -13 34 -31q14 -18 23 -40q8 -21 8 -44q0 -33 -13 -60t-35 -46q-23 -18 -52 -29q-29 -10 -60 -10q-12 0 -28 2q-17 2 -32 7q-15 6 -25 16q-11 10 -11 26q0 20 15 30q14 11 32 11q13 0 23 -6t20 -13l20 -12t23 -6q25 0 46 18q20 19 20 44t-13 43
q-14 19 -34 31t-43 18q-24 6 -45 6l-11 25l95 110q-102 6 -200 35t-186 79q-88 49 -161 117q-74 67 -128 151q-54 83 -84 180q-30 96 -30 204q0 112 33 210q33 97 92 178q58 80 137 143t172 106t196 66q102 22 206 22q151 0 293 -51t258 -145v38h55q0 -51 3 -101
q3 -51 3 -103q0 -44 -4 -88t-16 -86l-54 16q7 20 11 40t4 40q0 60 -27 111t-72 93q-45 41 -102 73q-58 32 -119 54q-62 22 -122 33q-61 11 -111 11q-145 0 -275 -47q-131 -48 -229 -135q-99 -88 -157 -211q-58 -124 -58 -275q0 -99 30 -188t83 -165q52 -77 124 -139
t156 -105q84 -44 177 -67q92 -24 186 -24q87 0 169 19q82 18 154 56t131 96t101 138l47 -25q-45 -93 -111 -160q-67 -67 -148 -110q-82 -43 -176 -64t-194 -22z" />
    <glyph glyph-name="Egrave" unicode="&#xc8;" horiz-adv-x="696" 
d="M231 438h203q21 0 33 9q11 8 17 22q5 13 7 29q1 15 1 30h55v-327h-55q0 35 -1 68q-2 33 -9 59q-8 25 -24 40q-17 15 -48 15h-179v-305q0 -11 10 -17t21 -6h172q33 0 62 13q29 12 51 33t35 50q12 29 12 62v72h53v-303h-53v18h-545v55q7 0 20 1t26 4t23 10q9 6 9 18v1231
q0 12 -9 18q-10 6 -23 9t-26 4h-20v55h524v18h54v-385h-54v152q0 33 -12 62q-13 29 -34 51q-22 22 -51 35q-29 12 -62 12h-154q-9 0 -19 -6t-10 -17v-889zM458 1475l-237 170q-16 12 -25 26q-10 13 -10 35q0 25 18 45q17 19 43 19q17 0 33 -9q15 -10 25 -22l204 -264h-51z
" />
    <glyph glyph-name="Eacute" unicode="&#xc9;" horiz-adv-x="696" 
d="M231 438h203q21 0 33 9q11 8 17 22q5 13 7 29q1 15 1 30h55v-327h-55q0 35 -1 68q-2 33 -9 59q-8 25 -24 40q-17 15 -48 15h-179v-305q0 -11 10 -17t21 -6h172q33 0 62 13q29 12 51 33t35 50q12 29 12 62v72h53v-303h-53v18h-545v55q7 0 20 1t26 4t23 10q9 6 9 18v1231
q0 12 -9 18q-10 6 -23 9t-26 4h-20v55h524v18h54v-385h-54v152q0 33 -12 62q-13 29 -34 51q-22 22 -51 35q-29 12 -62 12h-154q-9 0 -19 -6t-10 -17v-889zM186 1475l203 264q11 12 26 22q14 9 31 9q26 0 45 -19q19 -20 19 -45q0 -22 -10 -35q-10 -14 -27 -26l-236 -170h-51z
" />
    <glyph glyph-name="Ecircumflex" unicode="&#xca;" horiz-adv-x="696" 
d="M231 438h203q21 0 33 9q11 8 17 22q5 13 7 29q1 15 1 30h55v-327h-55q0 35 -1 68q-2 33 -9 59q-8 25 -24 40q-17 15 -48 15h-179v-305q0 -11 10 -17t21 -6h172q33 0 62 13q29 12 51 33t35 50q12 29 12 62v72h53v-303h-53v18h-545v55q7 0 20 1t26 4t23 10q9 6 9 18v1231
q0 12 -9 18q-10 6 -23 9t-26 4h-20v55h524v18h54v-385h-54v152q0 33 -12 62q-13 29 -34 51q-22 22 -51 35q-29 12 -62 12h-154q-9 0 -19 -6t-10 -17v-889zM311 1718h71l181 -243h-47l-168 137l-170 -137h-47z" />
    <glyph glyph-name="Edieresis" unicode="&#xcb;" horiz-adv-x="696" 
d="M231 438h203q21 0 33 9q11 8 17 22q5 13 7 29q1 15 1 30h55v-327h-55q0 35 -1 68q-2 33 -9 59q-8 25 -24 40q-17 15 -48 15h-179v-305q0 -11 10 -17t21 -6h172q33 0 62 13q29 12 51 33t35 50q12 29 12 62v72h53v-303h-53v18h-545v55q7 0 20 1t26 4t23 10q9 6 9 18v1231
q0 12 -9 18q-10 6 -23 9t-26 4h-20v55h524v18h54v-385h-54v152q0 33 -12 62q-13 29 -34 51q-22 22 -51 35q-29 12 -62 12h-154q-9 0 -19 -6t-10 -17v-889zM428 1591q23 0 41 -17q17 -17 17 -40q0 -25 -17 -42q-18 -17 -41 -17q-24 0 -41 17q-18 17 -18 42q0 23 18 40z
M269 1591q23 0 40 -17t17 -40q0 -25 -17 -42t-40 -17q-25 0 -42 17q-18 17 -18 42q0 23 18 40z" />
    <glyph glyph-name="Igrave" unicode="&#xcc;" horiz-adv-x="369" 
d="M231 90q0 -13 8 -20q7 -7 20 -10q12 -4 28 -4q16 -1 32 -1v-55h-270v55q15 0 30 1q14 1 25 5q10 3 17 10q6 7 6 19v1227q0 23 -21 28q-22 5 -57 5v55h270v-55h-30q-16 -1 -29 -4t-21 -10t-8 -19v-1227zM295 1475l-237 170q-16 12 -25 26q-10 13 -10 35q0 25 18 45
q17 19 43 19q17 0 33 -9q15 -10 25 -22l204 -264h-51z" />
    <glyph glyph-name="Iacute" unicode="&#xcd;" horiz-adv-x="369" 
d="M231 90q0 -13 8 -20q7 -7 20 -10q12 -4 28 -4q16 -1 32 -1v-55h-270v55q15 0 30 1q14 1 25 5q10 3 17 10q6 7 6 19v1227q0 23 -21 28q-22 5 -57 5v55h270v-55h-30q-16 -1 -29 -4t-21 -10t-8 -19v-1227zM22 1475l203 264q11 12 26 22q14 9 31 9q26 0 45 -19q19 -20 19 -45
q0 -22 -10 -35q-10 -14 -27 -26l-236 -170h-51z" />
    <glyph glyph-name="Icircumflex" unicode="&#xce;" horiz-adv-x="369" 
d="M231 90q0 -13 8 -20q7 -7 20 -10q12 -4 28 -4q16 -1 32 -1v-55h-270v55q15 0 30 1q14 1 25 5q10 3 17 10q6 7 6 19v1227q0 23 -21 28q-22 5 -57 5v55h270v-55h-30q-16 -1 -29 -4t-21 -10t-8 -19v-1227zM150 1718h71l181 -243h-47l-168 137l-170 -137h-47z" />
    <glyph glyph-name="Idieresis" unicode="&#xcf;" horiz-adv-x="369" 
d="M231 90q0 -13 8 -20q7 -7 20 -10q12 -4 28 -4q16 -1 32 -1v-55h-270v55q15 0 30 1q14 1 25 5q10 3 17 10q6 7 6 19v1227q0 23 -21 28q-22 5 -57 5v55h270v-55h-30q-16 -1 -29 -4t-21 -10t-8 -19v-1227zM266 1591q23 0 41 -17q17 -17 17 -40q0 -25 -17 -42
q-18 -17 -41 -17q-24 0 -41 17q-18 17 -18 42q0 23 18 40zM107 1591q23 0 40 -17t17 -40q0 -25 -17 -42t-40 -17q-25 0 -42 17q-18 17 -18 42q0 23 18 40z" />
    <glyph glyph-name="Eth" unicode="&#xd0;" horiz-adv-x="1464" 
d="M59 1401q115 9 228 16q113 6 229 6q104 0 211 -19q107 -20 207 -58q100 -39 188 -97q87 -59 153 -137q65 -78 103 -176q37 -99 37 -217q0 -117 -37 -216q-38 -99 -103 -179q-66 -80 -153 -140q-88 -61 -188 -102t-207 -61q-107 -21 -211 -21h-467v55q9 0 23 1q13 0 26 4
q12 4 21 12q8 7 8 22v289h-78v55h78v885q0 15 -7 21q-8 6 -22 6q-8 0 -16 -1q-9 -1 -19 -1zM412 438v-55h-181v-299q0 -14 9 -21q8 -8 22 -8h254q94 0 189 21q94 20 181 60q86 40 162 98q75 57 131 131q55 73 87 162t32 192q0 113 -33 204t-91 162q-59 71 -137 122
q-79 51 -170 84t-190 49t-198 16q-63 0 -124 -5q-62 -5 -124 -16v-897h181z" />
    <glyph glyph-name="Ntilde" unicode="&#xd1;" horiz-adv-x="774" 
d="M219 1405l383 -1020v451v139q-1 56 -1 97q-1 40 -1 69q-1 28 -2 55q-1 11 -1 27v32q0 17 -1 32t-2 24q-5 18 -16 29q-11 10 -31 10v55h178v-55q-20 0 -32 -10q-12 -11 -17 -29q-2 -9 -2 -29q-1 -20 -1 -43q-1 -24 -1 -46v-34q-1 -22 -1 -47v-71q-1 -45 -1 -118
q-1 -73 -1 -188q-1 -116 -1 -283v-401l34 -94l-51 -18l-471 1247q0 -171 1 -297v-220t1 -157t1 -110t1 -79v-63q0 -37 1 -62q0 -26 1 -44q0 -19 1 -32q1 -14 3 -26q2 -21 13 -31q10 -10 35 -10v-55h-179v55q26 0 36 10q9 10 11 33q5 48 5 98q0 49 2 99q0 31 1 66q0 34 1 83
q0 49 1 119q0 69 1 172v242v332q0 28 -18 35q-19 6 -50 6v55h170zM284 1620q31 0 61 -12q29 -12 58 -26q28 -14 55 -26t54 -12q29 0 48 17t27 45h33q0 -27 -10 -51q-11 -24 -28 -41q-18 -18 -41 -28q-24 -11 -50 -11q-31 0 -61 12q-30 11 -59 25q-29 13 -57 25
q-29 11 -56 11q-28 0 -47 -14q-19 -15 -27 -43h-33v14q0 26 12 48q11 21 30 36q18 15 42 23z" />
    <glyph glyph-name="Ograve" unicode="&#xd2;" horiz-adv-x="1704" 
d="M852 1466q105 0 206 -26q100 -26 189 -73q89 -48 164 -115q75 -68 129 -152t85 -182q30 -99 30 -207q0 -109 -30 -208q-31 -99 -85 -183t-129 -152t-164 -115q-89 -48 -189 -74q-101 -26 -206 -26t-206 26t-190 74q-89 47 -164 115t-129 152t-84 183t-30 208t30 207
t84 182t129 152q75 67 164 115q89 47 190 73zM852 1413q-96 0 -184 -25q-89 -26 -165 -72q-77 -47 -139 -112q-63 -65 -107 -143q-45 -78 -69 -166q-24 -89 -24 -184t24 -184q24 -90 69 -168q44 -78 107 -143q62 -65 139 -111q76 -47 165 -73q88 -26 184 -26t184 26t165 73
q76 46 139 111q62 65 107 143q44 78 69 168q24 89 24 184t-24 184q-25 88 -69 166q-45 78 -107 143q-63 65 -139 112q-77 46 -165 72zM962 1475l-237 170q-16 12 -25 26q-10 13 -10 35q0 25 18 45q17 19 43 19q17 0 33 -9q15 -10 25 -22l204 -264h-51z" />
    <glyph glyph-name="Oacute" unicode="&#xd3;" horiz-adv-x="1704" 
d="M852 1466q105 0 206 -26q100 -26 189 -73q89 -48 164 -115q75 -68 129 -152t85 -182q30 -99 30 -207q0 -109 -30 -208q-31 -99 -85 -183t-129 -152t-164 -115q-89 -48 -189 -74q-101 -26 -206 -26t-206 26t-190 74q-89 47 -164 115t-129 152t-84 183t-30 208t30 207
t84 182t129 152q75 67 164 115q89 47 190 73zM852 1413q-96 0 -184 -25q-89 -26 -165 -72q-77 -47 -139 -112q-63 -65 -107 -143q-45 -78 -69 -166q-24 -89 -24 -184t24 -184q24 -90 69 -168q44 -78 107 -143q62 -65 139 -111q76 -47 165 -73q88 -26 184 -26t184 26t165 73
q76 46 139 111q62 65 107 143q44 78 69 168q24 89 24 184t-24 184q-25 88 -69 166q-45 78 -107 143q-63 65 -139 112q-77 46 -165 72zM690 1475l203 264q11 12 26 22q14 9 31 9q26 0 45 -19q19 -20 19 -45q0 -22 -10 -35q-10 -14 -27 -26l-236 -170h-51z" />
    <glyph glyph-name="Ocircumflex" unicode="&#xd4;" horiz-adv-x="1704" 
d="M852 1466q105 0 206 -26q100 -26 189 -73q89 -48 164 -115q75 -68 129 -152t85 -182q30 -99 30 -207q0 -109 -30 -208q-31 -99 -85 -183t-129 -152t-164 -115q-89 -48 -189 -74q-101 -26 -206 -26t-206 26t-190 74q-89 47 -164 115t-129 152t-84 183t-30 208t30 207
t84 182t129 152q75 67 164 115q89 47 190 73zM852 1413q-96 0 -184 -25q-89 -26 -165 -72q-77 -47 -139 -112q-63 -65 -107 -143q-45 -78 -69 -166q-24 -89 -24 -184t24 -184q24 -90 69 -168q44 -78 107 -143q62 -65 139 -111q76 -47 165 -73q88 -26 184 -26t184 26t165 73
q76 46 139 111q62 65 107 143q44 78 69 168q24 89 24 184t-24 184q-25 88 -69 166q-45 78 -107 143q-63 65 -139 112q-77 46 -165 72zM815 1718h71l181 -243h-47l-168 137l-170 -137h-47z" />
    <glyph glyph-name="Otilde" unicode="&#xd5;" horiz-adv-x="1704" 
d="M852 1466q105 0 206 -26q100 -26 189 -73q89 -48 164 -115q75 -68 129 -152t85 -182q30 -99 30 -207q0 -109 -30 -208q-31 -99 -85 -183t-129 -152t-164 -115q-89 -48 -189 -74q-101 -26 -206 -26t-206 26t-190 74q-89 47 -164 115t-129 152t-84 183t-30 208t30 207
t84 182t129 152q75 67 164 115q89 47 190 73zM852 1413q-96 0 -184 -25q-89 -26 -165 -72q-77 -47 -139 -112q-63 -65 -107 -143q-45 -78 -69 -166q-24 -89 -24 -184t24 -184q24 -90 69 -168q44 -78 107 -143q62 -65 139 -111q76 -47 165 -73q88 -26 184 -26t184 26t165 73
q76 46 139 111q62 65 107 143q44 78 69 168q24 89 24 184t-24 184q-25 88 -69 166q-45 78 -107 143q-63 65 -139 112q-77 46 -165 72zM749 1644q31 0 61 -12q29 -12 58 -26q28 -14 55 -26t54 -12q29 0 48 17t27 45h33q0 -27 -10 -51q-11 -24 -28 -41q-18 -18 -41 -28
q-24 -11 -50 -11q-31 0 -61 12q-30 11 -59 25q-29 13 -57 25q-29 11 -56 11q-28 0 -47 -14q-19 -15 -27 -43h-33v14q0 26 12 48q11 21 30 36q18 15 42 23z" />
    <glyph glyph-name="Odieresis" unicode="&#xd6;" horiz-adv-x="1704" 
d="M852 1466q105 0 206 -26q100 -26 189 -73q89 -48 164 -115q75 -68 129 -152t85 -182q30 -99 30 -207q0 -109 -30 -208q-31 -99 -85 -183t-129 -152t-164 -115q-89 -48 -189 -74q-101 -26 -206 -26t-206 26t-190 74q-89 47 -164 115t-129 152t-84 183t-30 208t30 207
t84 182t129 152q75 67 164 115q89 47 190 73zM852 1413q-96 0 -184 -25q-89 -26 -165 -72q-77 -47 -139 -112q-63 -65 -107 -143q-45 -78 -69 -166q-24 -89 -24 -184t24 -184q24 -90 69 -168q44 -78 107 -143q62 -65 139 -111q76 -47 165 -73q88 -26 184 -26t184 26t165 73
q76 46 139 111q62 65 107 143q44 78 69 168q24 89 24 184t-24 184q-25 88 -69 166q-45 78 -107 143q-63 65 -139 112q-77 46 -165 72zM932 1615q23 0 41 -17q17 -17 17 -40q0 -25 -17 -42q-18 -17 -41 -17q-24 0 -41 17q-18 17 -18 42q0 23 18 40zM773 1615q23 0 40 -17
t17 -40q0 -25 -17 -42t-40 -17q-25 0 -42 17q-18 17 -18 42q0 23 18 40z" />
    <glyph glyph-name="multiply" unicode="&#xd7;" horiz-adv-x="799" 
d="M399 721l287 287l64 -66l-285 -285l285 -286l-64 -64l-287 285l-286 -285l-64 64l287 286l-287 285l64 66z" />
    <glyph glyph-name="Oslash" unicode="&#xd8;" horiz-adv-x="1704" 
d="M852 1466q119 0 235 -33q115 -33 216 -98l53 70h69l-77 -100q71 -53 128 -119q57 -67 97 -142q39 -76 61 -160q21 -84 21 -173q0 -109 -30 -208q-31 -99 -85 -183t-129 -152t-164 -115q-89 -48 -189 -74q-101 -26 -206 -26q-121 0 -235 33q-115 33 -216 98l-65 -84h-70
l90 115q-71 53 -128 119t-97 142t-61 161q-21 84 -21 174q0 109 30 207t84 182t129 152q75 67 164 115q89 47 190 73zM446 143q88 -66 192 -101q103 -36 214 -36q96 0 184 26t165 73q76 46 139 111q62 65 107 143q44 78 69 168q24 89 24 184q0 76 -16 150q-16 73 -47 141
t-76 129t-103 112zM1257 1276q-88 66 -192 102q-104 35 -213 35q-96 0 -184 -25q-89 -26 -165 -72q-77 -47 -139 -112q-63 -65 -107 -143q-45 -78 -69 -166q-24 -89 -24 -184q0 -77 16 -151t47 -142q31 -69 75 -129q44 -61 101 -111z" />
    <glyph glyph-name="Ugrave" unicode="&#xd9;" horiz-adv-x="946" 
d="M748 444v151q0 77 -1 169q-2 91 -4 203q-3 111 -8 254v42q0 22 -2 42q-2 17 -8 26t-17 14q-11 4 -26 5h-33v55h260v-55h-33q-15 -1 -25 -5q-11 -5 -17 -14q-7 -9 -9 -26q-2 -20 -3 -41q-1 -22 -1 -43q-4 -143 -5 -254q-2 -112 -3 -203q-1 -92 -1 -169t-1 -151
q-1 -56 -8 -114q-8 -58 -25 -111q-18 -54 -45 -101q-28 -47 -67 -82t-91 -55q-53 -20 -120 -20q-95 0 -159 36t-103 96q-39 59 -55 136q-17 77 -17 160v922q0 15 -7 23q-7 7 -18 11q-12 4 -27 5h-32v55h270v-55h-31q-15 -1 -27 -5t-19 -11q-7 -8 -7 -23v-926q0 -59 9 -123
q8 -64 34 -116q25 -53 71 -87q45 -34 120 -34q86 0 142 39t89 100t47 135zM583 1475l-237 170q-16 12 -25 26q-10 13 -10 35q0 25 18 45q17 19 43 19q17 0 33 -9q15 -10 25 -22l204 -264h-51z" />
    <glyph glyph-name="Uacute" unicode="&#xda;" horiz-adv-x="946" 
d="M748 444v151q0 77 -1 169q-2 91 -4 203q-3 111 -8 254v42q0 22 -2 42q-2 17 -8 26t-17 14q-11 4 -26 5h-33v55h260v-55h-33q-15 -1 -25 -5q-11 -5 -17 -14q-7 -9 -9 -26q-2 -20 -3 -41q-1 -22 -1 -43q-4 -143 -5 -254q-2 -112 -3 -203q-1 -92 -1 -169t-1 -151
q-1 -56 -8 -114q-8 -58 -25 -111q-18 -54 -45 -101q-28 -47 -67 -82t-91 -55q-53 -20 -120 -20q-95 0 -159 36t-103 96q-39 59 -55 136q-17 77 -17 160v922q0 15 -7 23q-7 7 -18 11q-12 4 -27 5h-32v55h270v-55h-31q-15 -1 -27 -5t-19 -11q-7 -8 -7 -23v-926q0 -59 9 -123
q8 -64 34 -116q25 -53 71 -87q45 -34 120 -34q86 0 142 39t89 100t47 135zM311 1475l203 264q11 12 26 22q14 9 31 9q26 0 45 -19q19 -20 19 -45q0 -22 -10 -35q-10 -14 -27 -26l-236 -170h-51z" />
    <glyph glyph-name="Ucircumflex" unicode="&#xdb;" horiz-adv-x="946" 
d="M748 444v151q0 77 -1 169q-2 91 -4 203q-3 111 -8 254v42q0 22 -2 42q-2 17 -8 26t-17 14q-11 4 -26 5h-33v55h260v-55h-33q-15 -1 -25 -5q-11 -5 -17 -14q-7 -9 -9 -26q-2 -20 -3 -41q-1 -22 -1 -43q-4 -143 -5 -254q-2 -112 -3 -203q-1 -92 -1 -169t-1 -151
q-1 -56 -8 -114q-8 -58 -25 -111q-18 -54 -45 -101q-28 -47 -67 -82t-91 -55q-53 -20 -120 -20q-95 0 -159 36t-103 96q-39 59 -55 136q-17 77 -17 160v922q0 15 -7 23q-7 7 -18 11q-12 4 -27 5h-32v55h270v-55h-31q-15 -1 -27 -5t-19 -11q-7 -8 -7 -23v-926q0 -59 9 -123
q8 -64 34 -116q25 -53 71 -87q45 -34 120 -34q86 0 142 39t89 100t47 135zM436 1718h71l181 -243h-47l-168 137l-170 -137h-47z" />
    <glyph glyph-name="Udieresis" unicode="&#xdc;" horiz-adv-x="946" 
d="M748 444v151q0 77 -1 169q-2 91 -4 203q-3 111 -8 254v42q0 22 -2 42q-2 17 -8 26t-17 14q-11 4 -26 5h-33v55h260v-55h-33q-15 -1 -25 -5q-11 -5 -17 -14q-7 -9 -9 -26q-2 -20 -3 -41q-1 -22 -1 -43q-4 -143 -5 -254q-2 -112 -3 -203q-1 -92 -1 -169t-1 -151
q-1 -56 -8 -114q-8 -58 -25 -111q-18 -54 -45 -101q-28 -47 -67 -82t-91 -55q-53 -20 -120 -20q-95 0 -159 36t-103 96q-39 59 -55 136q-17 77 -17 160v922q0 15 -7 23q-7 7 -18 11q-12 4 -27 5h-32v55h270v-55h-31q-15 -1 -27 -5t-19 -11q-7 -8 -7 -23v-926q0 -59 9 -123
q8 -64 34 -116q25 -53 71 -87q45 -34 120 -34q86 0 142 39t89 100t47 135zM553 1591q23 0 41 -17q17 -17 17 -40q0 -25 -17 -42q-18 -17 -41 -17q-24 0 -41 17q-18 17 -18 42q0 23 18 40zM394 1591q23 0 40 -17t17 -40q0 -25 -17 -42t-40 -17q-25 0 -42 17q-18 17 -18 42
q0 23 18 40z" />
    <glyph glyph-name="Yacute" unicode="&#xdd;" horiz-adv-x="1024" 
d="M604 96q0 -15 7 -23q7 -9 19 -13t27 -4q15 -1 31 -1v-55h-270v55q16 0 31 1q15 0 27 4t19 13q7 8 7 23v588l-391 608q-16 25 -31 42q-16 16 -47 16v55h248v-55q-14 0 -27 -6q-14 -6 -14 -21q0 -6 3 -12q2 -6 5 -11l330 -532q6 14 27 58t48 103t57 125q29 65 54 122
q25 56 41 96q16 39 16 45q0 17 -12 25q-13 8 -29 8v55h211v-55q-29 0 -50 -14q-21 -15 -34 -40l-303 -608v-592zM350 1475l203 264q11 12 26 22q14 9 31 9q26 0 45 -19q19 -20 19 -45q0 -22 -10 -35q-10 -14 -27 -26l-236 -170h-51z" />
    <glyph glyph-name="Thorn" unicode="&#xde;" horiz-adv-x="1180" 
d="M231 1184q56 8 114 11q57 3 114 3q71 0 149 -12q77 -12 152 -37q74 -25 141 -63q67 -39 118 -92q51 -54 81 -123t30 -154q0 -87 -29 -159t-78 -128q-50 -57 -116 -99q-66 -43 -140 -70q-75 -28 -154 -42t-154 -14q-119 0 -228 31v-136q0 -18 10 -27q9 -10 23 -15
q13 -5 29 -6q15 -1 26 -1v-51h-270v51q11 0 25 2q13 1 25 6t20 15q8 9 8 26v1207q0 16 -8 25t-20 13t-25 5h-25v55h270v-55h-57q-15 0 -23 -14q-8 -15 -8 -29v-123zM231 317q60 -26 124 -38q63 -13 128 -13q63 0 128 13q64 12 125 37q60 25 113 62q53 36 93 84q39 48 62 108
q22 59 22 130q0 74 -23 135t-63 110t-94 86t-115 62q-61 24 -127 36q-67 12 -131 12q-62 0 -122 -5q-61 -6 -120 -22v-797z" />
    <glyph glyph-name="germandbls" unicode="&#xdf;" horiz-adv-x="850" 
d="M219 96q0 -18 9 -29q9 -12 32 -12v-55h-168v55q23 0 32 12q9 11 9 29v594h-84v55h84v119q0 85 23 168t70 149t117 107t165 41q50 0 102 -11q52 -12 95 -38q42 -26 69 -67q27 -42 27 -101q0 -38 -17 -69q-17 -32 -43 -57q-27 -26 -60 -44q-34 -19 -67 -31q-39 -13 -76 -30
q-38 -17 -67 -42q-29 -26 -47 -60q-18 -35 -18 -83q0 -54 24 -96q24 -43 61 -80q36 -38 79 -73q42 -35 79 -74q36 -39 60 -85t24 -104q0 -46 -16 -82q-17 -36 -46 -61t-67 -38q-39 -13 -84 -13q-46 0 -89 17t-81 42l41 117l53 -16q-2 -5 -2 -11v-10q0 -18 7 -33t19 -26
t28 -17q15 -6 32 -6q27 0 52 8q25 7 44 22t31 38q11 22 11 51q0 38 -25 74q-25 35 -62 72q-38 37 -82 77q-44 39 -81 84q-38 45 -63 97t-25 114q0 70 22 115q22 44 59 74t87 51q49 20 104 41q23 8 44 24q20 15 36 36q15 20 24 44t9 49q0 44 -18 73q-19 28 -48 45
q-30 17 -66 24q-37 6 -73 6q-71 0 -125 -33t-90 -85q-37 -52 -55 -116q-19 -65 -19 -127v-809z" />
    <glyph glyph-name="agrave" unicode="&#xe0;" horiz-adv-x="752" 
d="M752 -8q-14 -17 -34 -27q-21 -10 -44 -10q-45 0 -78 23q-34 24 -45 69q-29 -25 -66 -38t-75 -13q-39 0 -76 13q-37 12 -65 36q-28 23 -45 57q-17 33 -17 74q0 45 22 80q22 34 56 61q34 -11 70 -15q36 -5 73 -5q29 0 60 2q30 1 59 6v268q0 47 -14 89q-14 41 -40 72
q-27 31 -65 49q-39 18 -88 18q-47 0 -91 -15q-44 -16 -78 -44q-34 -29 -54 -69q-21 -41 -21 -91q0 -23 6 -38q5 -15 17 -23q11 -9 30 -12q18 -3 44 -3q-3 -15 -10 -29t-16 -25q-10 -11 -23 -17q-13 -7 -29 -7q-26 0 -43 15q-17 14 -27 36q-11 21 -15 46q-5 24 -5 44
q0 65 26 118q25 53 69 91q43 37 100 58q57 20 120 20q62 0 116 -20q53 -21 92 -58t61 -89t22 -116v-469q0 -11 1 -27t5 -31t13 -25q9 -11 24 -11q11 0 21 4q9 3 16 13zM547 240q-28 -7 -57 -9t-58 -2q-28 0 -55 2t-53 7q-27 -30 -27 -68q0 -54 34 -82q34 -29 85 -29
q37 0 70 16q32 16 51 48q2 3 6 11t4 11v95zM485 903l-237 170q-16 12 -25 26q-10 13 -10 35q0 25 18 45q17 19 43 19q17 0 33 -9q15 -10 25 -22l204 -264h-51z" />
    <glyph glyph-name="aacute" unicode="&#xe1;" horiz-adv-x="752" 
d="M752 -8q-14 -17 -34 -27q-21 -10 -44 -10q-45 0 -78 23q-34 24 -45 69q-29 -25 -66 -38t-75 -13q-39 0 -76 13q-37 12 -65 36q-28 23 -45 57q-17 33 -17 74q0 45 22 80q22 34 56 61q34 -11 70 -15q36 -5 73 -5q29 0 60 2q30 1 59 6v268q0 47 -14 89q-14 41 -40 72
q-27 31 -65 49q-39 18 -88 18q-47 0 -91 -15q-44 -16 -78 -44q-34 -29 -54 -69q-21 -41 -21 -91q0 -23 6 -38q5 -15 17 -23q11 -9 30 -12q18 -3 44 -3q-3 -15 -10 -29t-16 -25q-10 -11 -23 -17q-13 -7 -29 -7q-26 0 -43 15q-17 14 -27 36q-11 21 -15 46q-5 24 -5 44
q0 65 26 118q25 53 69 91q43 37 100 58q57 20 120 20q62 0 116 -20q53 -21 92 -58t61 -89t22 -116v-469q0 -11 1 -27t5 -31t13 -25q9 -11 24 -11q11 0 21 4q9 3 16 13zM547 240q-28 -7 -57 -9t-58 -2q-28 0 -55 2t-53 7q-27 -30 -27 -68q0 -54 34 -82q34 -29 85 -29
q37 0 70 16q32 16 51 48q2 3 6 11t4 11v95zM213 885l203 264q11 12 26 22q14 9 31 9q26 0 45 -19q19 -20 19 -45q0 -22 -10 -35q-10 -14 -27 -26l-236 -170h-51z" />
    <glyph glyph-name="acircumflex" unicode="&#xe2;" horiz-adv-x="752" 
d="M752 -8q-14 -17 -34 -27q-21 -10 -44 -10q-45 0 -78 23q-34 24 -45 69q-29 -25 -66 -38t-75 -13q-39 0 -76 13q-37 12 -65 36q-28 23 -45 57q-17 33 -17 74q0 45 22 80q22 34 56 61q34 -11 70 -15q36 -5 73 -5q29 0 60 2q30 1 59 6v268q0 47 -14 89q-14 41 -40 72
q-27 31 -65 49q-39 18 -88 18q-47 0 -91 -15q-44 -16 -78 -44q-34 -29 -54 -69q-21 -41 -21 -91q0 -23 6 -38q5 -15 17 -23q11 -9 30 -12q18 -3 44 -3q-3 -15 -10 -29t-16 -25q-10 -11 -23 -17q-13 -7 -29 -7q-26 0 -43 15q-17 14 -27 36q-11 21 -15 46q-5 24 -5 44
q0 65 26 118q25 53 69 91q43 37 100 58q57 20 120 20q62 0 116 -20q53 -21 92 -58t61 -89t22 -116v-469q0 -11 1 -27t5 -31t13 -25q9 -11 24 -11q11 0 21 4q9 3 16 13zM547 240q-28 -7 -57 -9t-58 -2q-28 0 -55 2t-53 7q-27 -30 -27 -68q0 -54 34 -82q34 -29 85 -29
q37 0 70 16q32 16 51 48q2 3 6 11t4 11v95zM340 1116h71l181 -243h-47l-168 137l-170 -137h-47z" />
    <glyph glyph-name="atilde" unicode="&#xe3;" horiz-adv-x="752" 
d="M752 -8q-14 -17 -34 -27q-21 -10 -44 -10q-45 0 -78 23q-34 24 -45 69q-29 -25 -66 -38t-75 -13q-39 0 -76 13q-37 12 -65 36q-28 23 -45 57q-17 33 -17 74q0 45 22 80q22 34 56 61q34 -11 70 -15q36 -5 73 -5q29 0 60 2q30 1 59 6v268q0 47 -14 89q-14 41 -40 72
q-27 31 -65 49q-39 18 -88 18q-47 0 -91 -15q-44 -16 -78 -44q-34 -29 -54 -69q-21 -41 -21 -91q0 -23 6 -38q5 -15 17 -23q11 -9 30 -12q18 -3 44 -3q-3 -15 -10 -29t-16 -25q-10 -11 -23 -17q-13 -7 -29 -7q-26 0 -43 15q-17 14 -27 36q-11 21 -15 46q-5 24 -5 44
q0 65 26 118q25 53 69 91q43 37 100 58q57 20 120 20q62 0 116 -20q53 -21 92 -58t61 -89t22 -116v-469q0 -11 1 -27t5 -31t13 -25q9 -11 24 -11q11 0 21 4q9 3 16 13zM547 240q-28 -7 -57 -9t-58 -2q-28 0 -55 2t-53 7q-27 -30 -27 -68q0 -54 34 -82q34 -29 85 -29
q37 0 70 16q32 16 51 48q2 3 6 11t4 11v95zM274 1018q31 0 61 -12q29 -12 58 -26q28 -14 55 -26t54 -12q29 0 48 17t27 45h33q0 -27 -10 -51q-11 -24 -28 -41q-18 -18 -41 -28q-24 -11 -50 -11q-31 0 -61 12q-30 11 -59 25q-29 13 -57 25q-29 11 -56 11q-28 0 -47 -14
q-19 -15 -27 -43h-33v14q0 26 12 48q11 21 30 36q18 15 42 23z" />
    <glyph glyph-name="adieresis" unicode="&#xe4;" horiz-adv-x="752" 
d="M752 -8q-14 -17 -34 -27q-21 -10 -44 -10q-45 0 -78 23q-34 24 -45 69q-29 -25 -66 -38t-75 -13q-39 0 -76 13q-37 12 -65 36q-28 23 -45 57q-17 33 -17 74q0 45 22 80q22 34 56 61q34 -11 70 -15q36 -5 73 -5q29 0 60 2q30 1 59 6v268q0 47 -14 89q-14 41 -40 72
q-27 31 -65 49q-39 18 -88 18q-47 0 -91 -15q-44 -16 -78 -44q-34 -29 -54 -69q-21 -41 -21 -91q0 -23 6 -38q5 -15 17 -23q11 -9 30 -12q18 -3 44 -3q-3 -15 -10 -29t-16 -25q-10 -11 -23 -17q-13 -7 -29 -7q-26 0 -43 15q-17 14 -27 36q-11 21 -15 46q-5 24 -5 44
q0 65 26 118q25 53 69 91q43 37 100 58q57 20 120 20q62 0 116 -20q53 -21 92 -58t61 -89t22 -116v-469q0 -11 1 -27t5 -31t13 -25q9 -11 24 -11q11 0 21 4q9 3 16 13zM547 240q-28 -7 -57 -9t-58 -2q-28 0 -55 2t-53 7q-27 -30 -27 -68q0 -54 34 -82q34 -29 85 -29
q37 0 70 16q32 16 51 48q2 3 6 11t4 11v95zM456 997q23 0 41 -17q17 -17 17 -40q0 -25 -17 -42q-18 -17 -41 -17q-24 0 -41 17q-18 17 -18 42q0 23 18 40zM297 997q23 0 40 -17t17 -40q0 -25 -17 -42t-40 -17q-25 0 -42 17q-18 17 -18 42q0 23 18 40z" />
    <glyph glyph-name="aring" unicode="&#xe5;" horiz-adv-x="752" 
d="M346 1042q21 0 41 -8q19 -9 34 -23q15 -15 24 -34q8 -20 8 -41q0 -28 -13 -50q-14 -22 -34 -36q49 -10 91 -34q41 -24 71 -60t47 -82q16 -46 16 -101v-469q0 -11 1 -27t5 -31t13 -25q9 -11 24 -11q11 0 21 4q9 3 16 13l41 -35q-14 -17 -34 -27q-21 -10 -44 -10
q-45 0 -78 23q-34 24 -45 69q-29 -25 -66 -38t-75 -13q-39 0 -76 13q-37 12 -65 36q-28 23 -45 57q-17 33 -17 74q0 45 22 80q22 34 56 61q34 -11 70 -15q36 -5 73 -5q29 0 60 2q30 1 59 6v268q0 47 -14 89q-14 41 -40 72q-27 31 -65 49q-39 18 -88 18q-47 0 -91 -15
q-44 -16 -78 -44q-34 -29 -54 -69q-21 -41 -21 -91q0 -23 6 -38q5 -15 17 -23q11 -9 30 -12q18 -3 44 -3q-3 -15 -10 -29t-16 -25q-10 -11 -23 -17q-13 -7 -29 -7q-26 0 -43 15q-17 14 -27 36q-11 21 -15 46q-5 24 -5 44q0 58 21 106q20 48 55 85q35 36 83 60q47 23 101 32
q-20 14 -31 36q-12 22 -12 48q0 21 8 41q8 19 23 34q14 14 33 23zM547 240q-28 -7 -57 -9t-58 -2q-28 0 -55 2t-53 7q-27 -30 -27 -68q0 -54 34 -82q34 -29 85 -29q37 0 70 16q32 16 51 48q2 3 6 11t4 11v95zM346 999q-26 0 -44 -18q-19 -19 -19 -45t19 -45q18 -19 44 -19
t45 19t19 45t-19 45z" />
    <glyph glyph-name="ae" unicode="&#xe6;" horiz-adv-x="1346" 
d="M958 -31q-96 0 -176 41q-81 41 -135 121q-11 -33 -33 -58q-23 -25 -52 -42q-29 -18 -62 -26q-34 -9 -66 -9q-39 0 -75 13q-37 12 -65 36q-29 23 -46 57q-17 33 -17 74q0 45 22 80q22 34 56 61q34 -11 70 -15q36 -5 74 -5q29 0 59 2q30 1 59 6v268q0 47 -14 89
q-14 41 -40 72t-64 49q-39 18 -88 18q-47 0 -91 -15q-44 -16 -78 -44q-34 -29 -54 -69q-21 -41 -21 -91q0 -23 6 -38t18 -23q12 -9 30 -12q17 -3 40 -3q-6 -29 -25 -53q-19 -25 -51 -25q-25 0 -42 15q-18 14 -28 36q-11 21 -15 46q-5 24 -5 44q0 65 26 118q25 53 69 91
q43 37 101 58q57 20 120 20q52 0 100 -15q47 -15 85 -43q38 -29 64 -70q26 -42 35 -95q51 68 123 103q71 34 156 34q54 0 101 -15q47 -16 85 -45q38 -30 65 -72t40 -95h-523q-12 -32 -17 -67t-5 -70q0 -70 20 -136t60 -117q39 -52 97 -83t134 -31q43 0 82 14q39 13 73 36
q33 23 61 54q27 31 48 66l47 -27q-27 -46 -62 -85q-36 -39 -79 -67q-43 -29 -92 -45zM1108 598q-28 53 -79 82t-109 29q-63 0 -114 -28q-51 -29 -83 -83h385zM571 240q-27 -7 -56 -9t-58 -2q-28 0 -55 2q-28 2 -54 7q-12 -14 -19 -31q-7 -18 -7 -37q0 -54 34 -82
q33 -29 84 -29q37 0 70 16t51 48q2 3 6 11t4 11v95z" />
    <glyph glyph-name="ccedilla" unicode="&#xe7;" horiz-adv-x="909" 
d="M471 -76q21 -8 41 -22q19 -14 34 -32t24 -39q8 -21 8 -44q0 -33 -13 -60t-35 -46q-23 -18 -52 -29q-29 -10 -60 -10q-12 0 -28 2q-17 2 -32 7q-15 6 -25 16q-11 10 -11 26q0 20 14 30q14 11 33 11q13 0 23 -6t20 -13q9 -6 20 -12q10 -6 23 -6q24 0 45 18q20 19 20 43
q0 25 -13 44q-14 19 -34 31t-43 18q-24 6 -45 6l-10 24l84 99q-81 7 -155 36t-130 80q-57 50 -91 120t-34 159q0 95 35 172q35 76 95 130q60 53 141 82q80 29 172 29q91 0 177 -28q85 -29 154 -88q-1 -3 -4 -13q-3 -11 -8 -26l-11 -33q-6 -18 -12 -37q-14 -44 -32 -98
l-54 16q8 22 14 44q5 21 5 42q0 44 -18 75t-47 51q-30 20 -67 29t-75 9q-71 0 -136 -24t-115 -67q-51 -44 -81 -105t-30 -136q0 -81 32 -146q31 -66 84 -111q53 -46 123 -70q70 -25 148 -25t152 29q73 28 130 84l39 -37q-32 -37 -72 -64t-84 -45q-45 -18 -92 -27
q-48 -9 -96 -10z" />
    <glyph glyph-name="egrave" unicode="&#xe8;" horiz-adv-x="797" 
d="M434 -18q-88 0 -159 33t-121 89q-51 56 -78 132q-27 75 -27 159q0 78 24 149q24 70 70 123t112 84q65 31 148 31q54 0 102 -15q47 -16 85 -45q37 -30 64 -72t40 -95h-522q-25 -67 -25 -137t20 -136t60 -117q39 -52 98 -83q58 -31 134 -31q43 0 82 14q39 13 73 36
q33 23 62 54q28 31 49 66l47 -26q-27 -46 -62 -85q-36 -39 -79 -67q-43 -29 -92 -45zM584 610q-28 53 -79 82t-110 29q-63 0 -114 -28q-52 -29 -84 -83h387zM508 840l-237 170q-16 12 -25 26q-10 13 -10 35q0 25 18 45q17 19 43 19q17 0 33 -9q15 -10 25 -22l204 -264h-51z
" />
    <glyph glyph-name="eacute" unicode="&#xe9;" horiz-adv-x="797" 
d="M434 -18q-88 0 -159 33t-121 89q-51 56 -78 132q-27 75 -27 159q0 78 24 149q24 70 70 123t112 84q65 31 148 31q54 0 102 -15q47 -16 85 -45q37 -30 64 -72t40 -95h-522q-25 -67 -25 -137t20 -136t60 -117q39 -52 98 -83q58 -31 134 -31q43 0 82 14q39 13 73 36
q33 23 62 54q28 31 49 66l47 -26q-27 -46 -62 -85q-36 -39 -79 -67q-43 -29 -92 -45zM584 610q-28 53 -79 82t-110 29q-63 0 -114 -28q-52 -29 -84 -83h387zM235 840l203 264q11 12 26 22q14 9 31 9q26 0 45 -19q19 -20 19 -45q0 -22 -10 -35q-10 -14 -27 -26l-236 -170h-51
z" />
    <glyph glyph-name="ecircumflex" unicode="&#xea;" horiz-adv-x="797" 
d="M434 -18q-88 0 -159 33t-121 89q-51 56 -78 132q-27 75 -27 159q0 78 24 149q24 70 70 123t112 84q65 31 148 31q54 0 102 -15q47 -16 85 -45q37 -30 64 -72t40 -95h-522q-25 -67 -25 -137t20 -136t60 -117q39 -52 98 -83q58 -31 134 -31q43 0 82 14q39 13 73 36
q33 23 62 54q28 31 49 66l47 -26q-27 -46 -62 -85q-36 -39 -79 -67q-43 -29 -92 -45zM584 610q-28 53 -79 82t-110 29q-63 0 -114 -28q-52 -29 -84 -83h387zM363 1083h71l181 -243h-47l-168 137l-170 -137h-47z" />
    <glyph glyph-name="edieresis" unicode="&#xeb;" horiz-adv-x="797" 
d="M434 -18q-88 0 -159 33t-121 89q-51 56 -78 132q-27 75 -27 159q0 78 24 149q24 70 70 123t112 84q65 31 148 31q54 0 102 -15q47 -16 85 -45q37 -30 64 -72t40 -95h-522q-25 -67 -25 -137t20 -136t60 -117q39 -52 98 -83q58 -31 134 -31q43 0 82 14q39 13 73 36
q33 23 62 54q28 31 49 66l47 -26q-27 -46 -62 -85q-36 -39 -79 -67q-43 -29 -92 -45zM584 610q-28 53 -79 82t-110 29q-63 0 -114 -28q-52 -29 -84 -83h387zM479 956q23 0 41 -17q17 -17 17 -40q0 -25 -17 -42q-18 -17 -41 -17q-24 0 -41 17q-18 17 -18 42q0 23 18 40z
M320 956q23 0 40 -17t17 -40q0 -25 -17 -42t-40 -17q-25 0 -42 17q-18 17 -18 42q0 23 18 40z" />
    <glyph glyph-name="igrave" unicode="&#xec;" horiz-adv-x="252" 
d="M33 721q43 6 79 26t70 46l33 -43q-23 -20 -30 -41t-7 -52v-561q0 -18 12 -29q11 -12 29 -12v-55h-168v55q19 0 30 12q11 11 11 29v502q0 32 -12 49q-13 16 -47 19v55zM237 840l-237 170q-16 12 -25 26q-10 13 -10 35q0 25 18 45q17 19 43 19q17 0 33 -9q15 -10 25 -22
l204 -264h-51z" />
    <glyph glyph-name="iacute" unicode="&#xed;" horiz-adv-x="252" 
d="M33 721q43 6 79 26t70 46l33 -43q-23 -20 -30 -41t-7 -52v-561q0 -18 12 -29q11 -12 29 -12v-55h-168v55q19 0 30 12q11 11 11 29v502q0 32 -12 49q-13 16 -47 19v55zM-35 840l203 264q11 12 26 22q14 9 31 9q26 0 45 -19q19 -20 19 -45q0 -22 -10 -35q-10 -14 -27 -26
l-236 -170h-51z" />
    <glyph glyph-name="icircumflex" unicode="&#xee;" horiz-adv-x="252" 
d="M33 721q43 6 79 26t70 46l33 -43q-23 -20 -30 -41t-7 -52v-561q0 -18 12 -29q11 -12 29 -12v-55h-168v55q19 0 30 12q11 11 11 29v502q0 32 -12 49q-13 16 -47 19v55zM90 1083h71l181 -243h-47l-168 137l-170 -137h-47z" />
    <glyph glyph-name="idieresis" unicode="&#xef;" horiz-adv-x="252" 
d="M33 721q43 6 79 26t70 46l33 -43q-23 -20 -30 -41t-7 -52v-561q0 -18 12 -29q11 -12 29 -12v-55h-168v55q19 0 30 12q11 11 11 29v502q0 32 -12 49q-13 16 -47 19v55zM207 956q23 0 41 -17q17 -17 17 -40q0 -25 -17 -42q-18 -17 -41 -17q-24 0 -41 17q-18 17 -18 42
q0 23 18 40zM48 956q23 0 40 -17t17 -40q0 -25 -17 -42t-40 -17q-25 0 -42 17q-18 17 -18 42q0 23 18 40z" />
    <glyph glyph-name="eth" unicode="&#xf0;" horiz-adv-x="879" 
d="M518 1118q-25 32 -54 62q-29 29 -63 51l27 47q45 -25 84 -58q38 -33 72 -71l155 74l25 -49l-146 -68q49 -65 89 -141q39 -76 66 -157q27 -82 42 -167q14 -85 14 -166q0 -47 -5 -94q-6 -48 -18 -94t-32 -89q-20 -44 -49 -81q-56 -69 -130 -108q-75 -40 -163 -40
q-84 0 -154 33q-70 32 -121 87t-79 128q-29 73 -29 154q0 83 31 156q30 72 84 126q53 54 126 86q72 31 156 31q73 0 142 -26q69 -27 123 -78q-20 105 -60 211q-41 105 -100 196l-201 -94l-22 49zM729 539q-45 75 -120 119q-76 44 -163 44q-66 0 -121 -28q-56 -29 -95 -75
q-40 -47 -62 -106q-23 -60 -23 -122q0 -64 21 -124q20 -60 58 -106q38 -47 93 -75q55 -29 123 -29q55 0 99 18q43 18 76 49q32 31 55 73q22 41 36 87t21 95q6 48 6 94v43z" />
    <glyph glyph-name="ntilde" unicode="&#xf1;" horiz-adv-x="500" 
d="M33 721q34 5 65 21t54 42l26 -34v-113q9 21 23 46q13 24 30 44t39 34q21 13 47 13q36 0 58 -21q22 -22 33 -52q11 -31 15 -65q3 -35 3 -61v-479q0 -18 11 -29q11 -12 30 -12v-55h-168v55q19 0 30 12q11 11 11 29v525q0 9 -1 23q-2 13 -6 26q-5 12 -13 21t-21 9
q-30 0 -52 -29q-23 -29 -38 -68q-16 -40 -23 -80q-8 -41 -8 -64v-363q0 -18 12 -29q11 -12 29 -12v-55h-168v55q19 0 30 12q11 11 11 29v502q0 32 -12 49q-13 16 -47 19v55zM149 985q31 0 61 -12q29 -12 58 -26q28 -14 55 -26t54 -12q29 0 48 17t27 45h33q0 -27 -10 -51
q-11 -24 -28 -41q-18 -18 -41 -28q-24 -11 -50 -11q-31 0 -61 12q-30 11 -59 25q-29 13 -57 25q-29 11 -56 11q-28 0 -47 -14q-19 -15 -27 -43h-33v14q0 26 12 48q11 21 30 36q18 15 42 23z" />
    <glyph glyph-name="ograve" unicode="&#xf2;" horiz-adv-x="993" 
d="M498 788q89 0 170 -30q80 -31 142 -86q61 -55 98 -131q36 -77 36 -170t-36 -170q-37 -78 -98 -133q-62 -56 -142 -87q-81 -30 -170 -30q-90 0 -171 30q-82 31 -143 87q-62 55 -98 133q-37 77 -37 170t37 170q36 76 98 131q61 55 143 86zM498 737q-75 0 -140 -30t-113 -81
t-76 -117t-28 -138q0 -73 28 -140t76 -118t113 -81t140 -30q73 0 138 30q64 30 112 81t76 118t28 140q0 72 -28 138t-76 117t-112 81zM606 840l-237 170q-16 12 -25 26q-10 13 -10 35q0 25 18 45q17 19 43 19q17 0 33 -9q15 -10 25 -22l204 -264h-51z" />
    <glyph glyph-name="oacute" unicode="&#xf3;" horiz-adv-x="993" 
d="M498 788q89 0 170 -30q80 -31 142 -86q61 -55 98 -131q36 -77 36 -170t-36 -170q-37 -78 -98 -133q-62 -56 -142 -87q-81 -30 -170 -30q-90 0 -171 30q-82 31 -143 87q-62 55 -98 133q-37 77 -37 170t37 170q36 76 98 131q61 55 143 86zM498 737q-75 0 -140 -30t-113 -81
t-76 -117t-28 -138q0 -73 28 -140t76 -118t113 -81t140 -30q73 0 138 30q64 30 112 81t76 118t28 140q0 72 -28 138t-76 117t-112 81zM334 840l203 264q11 12 26 22q14 9 31 9q26 0 45 -19q19 -20 19 -45q0 -22 -10 -35q-10 -14 -27 -26l-236 -170h-51z" />
    <glyph glyph-name="ocircumflex" unicode="&#xf4;" horiz-adv-x="993" 
d="M498 788q89 0 170 -30q80 -31 142 -86q61 -55 98 -131q36 -77 36 -170t-36 -170q-37 -78 -98 -133q-62 -56 -142 -87q-81 -30 -170 -30q-90 0 -171 30q-82 31 -143 87q-62 55 -98 133q-37 77 -37 170t37 170q36 76 98 131q61 55 143 86zM498 737q-75 0 -140 -30t-113 -81
t-76 -117t-28 -138q0 -73 28 -140t76 -118t113 -81t140 -30q73 0 138 30q64 30 112 81t76 118t28 140q0 72 -28 138t-76 117t-112 81zM461 1083h71l181 -243h-47l-168 137l-170 -137h-47z" />
    <glyph glyph-name="otilde" unicode="&#xf5;" horiz-adv-x="993" 
d="M498 788q89 0 170 -30q80 -31 142 -86q61 -55 98 -131q36 -77 36 -170t-36 -170q-37 -78 -98 -133q-62 -56 -142 -87q-81 -30 -170 -30q-90 0 -171 30q-82 31 -143 87q-62 55 -98 133q-37 77 -37 170t37 170q36 76 98 131q61 55 143 86zM498 737q-75 0 -140 -30t-113 -81
t-76 -117t-28 -138q0 -73 28 -140t76 -118t113 -81t140 -30q73 0 138 30q64 30 112 81t76 118t28 140q0 72 -28 138t-76 117t-112 81zM395 985q31 0 61 -12q29 -12 58 -26q28 -14 55 -26t54 -12q29 0 48 17t27 45h33q0 -27 -10 -51q-11 -24 -28 -41q-18 -18 -41 -28
q-24 -11 -50 -11q-31 0 -61 12q-30 11 -59 25q-29 13 -57 25q-29 11 -56 11q-28 0 -47 -14q-19 -15 -27 -43h-33v14q0 26 12 48q11 21 30 36q18 15 42 23z" />
    <glyph glyph-name="odieresis" unicode="&#xf6;" horiz-adv-x="993" 
d="M498 788q89 0 170 -30q80 -31 142 -86q61 -55 98 -131q36 -77 36 -170t-36 -170q-37 -78 -98 -133q-62 -56 -142 -87q-81 -30 -170 -30q-90 0 -171 30q-82 31 -143 87q-62 55 -98 133q-37 77 -37 170t37 170q36 76 98 131q61 55 143 86zM498 737q-75 0 -140 -30t-113 -81
t-76 -117t-28 -138q0 -73 28 -140t76 -118t113 -81t140 -30q73 0 138 30q64 30 112 81t76 118t28 140q0 72 -28 138t-76 117t-112 81zM577 956q23 0 41 -17q17 -17 17 -40q0 -25 -17 -42q-18 -17 -41 -17q-24 0 -41 17q-18 17 -18 42q0 23 18 40zM418 956q23 0 40 -17
t17 -40q0 -25 -17 -42t-40 -17q-25 0 -42 17q-18 17 -18 42q0 23 18 40z" />
    <glyph glyph-name="divide" unicode="&#xf7;" horiz-adv-x="997" 
d="M489 944q35 0 58 -23q22 -23 22 -55q0 -34 -22 -57q-23 -23 -58 -23q-32 0 -55 23q-24 23 -24 57q0 32 24 55zM948 702v-90h-899v90h899zM489 528q35 0 58 -23q22 -24 22 -56t-22 -56q-23 -24 -58 -24q-16 0 -30 7q-15 6 -25 17q-11 11 -17 26q-7 14 -7 30q0 32 24 56z
" />
    <glyph glyph-name="oslash" unicode="&#xf8;" horiz-adv-x="993" 
d="M498 788q63 0 124 -15q61 -16 115 -48l45 53h72l-70 -84q78 -59 119 -142q41 -84 41 -181q0 -93 -36 -170q-37 -78 -98 -133q-62 -56 -142 -87q-81 -30 -170 -30q-72 0 -138 19q-67 20 -124 59l-25 -29h-70l49 61q-69 59 -105 139t-36 171q0 93 37 170q36 76 98 131
q61 55 143 86zM279 82q46 -37 103 -58q56 -22 116 -22q73 0 138 30q64 30 112 81t76 118t28 140q0 75 -29 144q-30 69 -86 122zM694 672q-43 31 -93 48q-51 17 -103 17q-75 0 -140 -30t-113 -81t-76 -117t-28 -138t26 -136q25 -64 73 -116z" />
    <glyph glyph-name="ugrave" unicode="&#xf9;" horiz-adv-x="522" 
d="M303 721q43 6 81 26q37 20 69 46l34 -43q-24 -20 -30 -41t-6 -52v-561q0 -18 10 -29q10 -12 28 -12v-55h-127v68q-27 -28 -61 -52t-76 -24q-37 0 -62 16q-26 16 -41 42q-16 25 -23 58q-7 32 -7 64v428q0 32 -13 48q-14 15 -46 18v55q43 6 79 26t70 46l33 -43
q-23 -20 -30 -41t-7 -52v-493q0 -18 4 -38q3 -20 12 -36t24 -26q14 -11 36 -11q15 0 31 8q15 7 30 19q14 11 26 24t21 25v469q0 32 -12 49q-13 16 -47 19v55zM372 840l-237 170q-16 12 -25 26q-10 13 -10 35q0 25 18 45q17 19 43 19q17 0 33 -9q15 -10 25 -22l204 -264h-51z
" />
    <glyph glyph-name="uacute" unicode="&#xfa;" horiz-adv-x="522" 
d="M303 721q43 6 81 26q37 20 69 46l34 -43q-24 -20 -30 -41t-6 -52v-561q0 -18 10 -29q10 -12 28 -12v-55h-127v68q-27 -28 -61 -52t-76 -24q-37 0 -62 16q-26 16 -41 42q-16 25 -23 58q-7 32 -7 64v428q0 32 -13 48q-14 15 -46 18v55q43 6 79 26t70 46l33 -43
q-23 -20 -30 -41t-7 -52v-493q0 -18 4 -38q3 -20 12 -36t24 -26q14 -11 36 -11q15 0 31 8q15 7 30 19q14 11 26 24t21 25v469q0 32 -12 49q-13 16 -47 19v55zM98 840l203 264q11 12 26 22q14 9 31 9q26 0 45 -19q19 -20 19 -45q0 -22 -10 -35q-10 -14 -27 -26l-236 -170h-51
z" />
    <glyph glyph-name="ucircumflex" unicode="&#xfb;" horiz-adv-x="522" 
d="M303 721q43 6 81 26q37 20 69 46l34 -43q-24 -20 -30 -41t-6 -52v-561q0 -18 10 -29q10 -12 28 -12v-55h-127v68q-27 -28 -61 -52t-76 -24q-37 0 -62 16q-26 16 -41 42q-16 25 -23 58q-7 32 -7 64v428q0 32 -13 48q-14 15 -46 18v55q43 6 79 26t70 46l33 -43
q-23 -20 -30 -41t-7 -52v-493q0 -18 4 -38q3 -20 12 -36t24 -26q14 -11 36 -11q15 0 31 8q15 7 30 19q14 11 26 24t21 25v469q0 32 -12 49q-13 16 -47 19v55zM225 1083h71l181 -243h-47l-168 137l-170 -137h-47z" />
    <glyph glyph-name="udieresis" unicode="&#xfc;" horiz-adv-x="522" 
d="M303 721q43 6 81 26q37 20 69 46l34 -43q-24 -20 -30 -41t-6 -52v-561q0 -18 10 -29q10 -12 28 -12v-55h-127v68q-27 -28 -61 -52t-76 -24q-37 0 -62 16q-26 16 -41 42q-16 25 -23 58q-7 32 -7 64v428q0 32 -13 48q-14 15 -46 18v55q43 6 79 26t70 46l33 -43
q-23 -20 -30 -41t-7 -52v-493q0 -18 4 -38q3 -20 12 -36t24 -26q14 -11 36 -11q15 0 31 8q15 7 30 19q14 11 26 24t21 25v469q0 32 -12 49q-13 16 -47 19v55zM342 956q23 0 41 -17q17 -17 17 -40q0 -25 -17 -42q-18 -17 -41 -17q-24 0 -41 17q-18 17 -18 42q0 23 18 40z
M183 956q23 0 40 -17t17 -40q0 -25 -17 -42t-40 -17q-25 0 -42 17q-18 17 -18 42q0 23 18 40z" />
    <glyph glyph-name="yacute" unicode="&#xfd;" horiz-adv-x="537" 
d="M211 713q-12 0 -20 -6q-9 -6 -9 -19q0 -5 9 -31q8 -27 21 -65q12 -38 27 -81q15 -44 29 -84l24 -70q11 -30 15 -40q5 16 13 45t17 64t18 73q9 37 17 72q7 34 12 62q5 27 5 41t-7 27q-8 12 -24 12v53h154v-53q-19 0 -32 -14q-13 -15 -21 -35q-8 -21 -13 -43t-8 -37
q-13 -59 -34 -149q-21 -91 -51 -192q-30 -102 -70 -203q-41 -102 -93 -184t-116 -133q-65 -51 -144 -51q-15 0 -38 2q-23 3 -45 10q-21 7 -37 20q-15 13 -15 34q0 17 12 29t29 12q12 0 19 -7q7 -6 17 -15q10 -8 26 -15q16 -6 47 -6q42 0 79 23q37 24 69 62t59 85
q26 48 48 97q21 48 37 93q16 44 27 76l-174 504q-15 37 -55 37v53h176v-53zM106 840l203 264q11 12 26 22q14 9 31 9q26 0 45 -19q19 -20 19 -45q0 -22 -10 -35q-10 -14 -27 -26l-236 -170h-51z" />
    <glyph glyph-name="thorn" unicode="&#xfe;" horiz-adv-x="809" 
d="M49 1270q42 6 78 26q36 19 68 43v-647q46 38 100 59q53 21 113 21q81 0 146 -28q65 -29 111 -79q45 -51 70 -119t25 -147q0 -88 -28 -165q-28 -78 -80 -135q-53 -58 -127 -91q-75 -33 -167 -33q-42 0 -83 8q-42 9 -80 29v-309q0 -19 11 -31t30 -12v-53h-168v53
q18 0 30 12q11 12 11 31v1444q0 32 -13 48t-47 19v56zM195 88q34 -28 75 -40q41 -13 84 -13q74 0 130 29t94 78q38 48 58 111q19 62 19 130q0 58 -15 115q-16 57 -47 103q-32 45 -80 73q-49 28 -114 28q-60 0 -113 -24q-54 -24 -91 -74v-516z" />
    <glyph glyph-name="ydieresis" unicode="&#xff;" horiz-adv-x="537" 
d="M211 713q-12 0 -20 -6q-9 -6 -9 -19q0 -5 9 -31q8 -27 21 -65q12 -38 27 -81q15 -44 29 -84l24 -70q11 -30 15 -40q5 16 13 45t17 64t18 73q9 37 17 72q7 34 12 62q5 27 5 41t-7 27q-8 12 -24 12v53h154v-53q-19 0 -32 -14q-13 -15 -21 -35q-8 -21 -13 -43t-8 -37
q-13 -59 -34 -149q-21 -91 -51 -192q-30 -102 -70 -203q-41 -102 -93 -184t-116 -133q-65 -51 -144 -51q-15 0 -38 2q-23 3 -45 10q-21 7 -37 20q-15 13 -15 34q0 17 12 29t29 12q12 0 19 -7q7 -6 17 -15q10 -8 26 -15q16 -6 47 -6q42 0 79 23q37 24 69 62t59 85
q26 48 48 97q21 48 37 93q16 44 27 76l-174 504q-15 37 -55 37v53h176v-53zM348 956q23 0 41 -17q17 -17 17 -40q0 -25 -17 -42q-18 -17 -41 -17q-24 0 -41 17q-18 17 -18 42q0 23 18 40zM189 956q23 0 40 -17t17 -40q0 -25 -17 -42t-40 -17q-25 0 -42 17q-18 17 -18 42
q0 23 18 40z" />
    <glyph glyph-name="dotlessi" unicode="&#x131;" horiz-adv-x="252" 
d="M33 721q43 6 79 26t70 46l33 -43q-23 -20 -30 -41t-7 -52v-561q0 -18 12 -29q11 -12 29 -12v-55h-168v55q19 0 30 12q11 11 11 29v502q0 32 -12 49q-13 16 -47 19v55z" />
    <glyph glyph-name="OE" unicode="&#x152;" horiz-adv-x="1423" 
d="M1161 55q32 0 61 13q29 12 51 33q21 21 34 50q12 29 12 62v72h55v-303h-55v18h-526q-97 0 -190 24q-94 24 -176 69q-83 44 -152 107q-70 63 -120 141t-78 169t-28 192q0 100 28 192q28 91 78 169t120 141q69 63 152 108q82 45 175 69t191 24h505v18h56v-385h-56v152
q0 33 -12 62q-13 29 -34 51q-22 22 -50 35q-29 12 -61 12h-158q-9 0 -18 -8t-9 -17v-887h207q20 0 32 9q11 8 17 22q5 13 6 29q1 15 1 30h55v-327h-55q0 17 1 33q1 15 1 30q0 26 -4 48t-14 38q-10 15 -27 24t-43 9h-177v-303q0 -13 10 -19t21 -6h174zM829 55q10 0 18 6
q7 6 7 17v1245q0 10 -7 16q-8 5 -17 8q-10 2 -20 3h-17q-133 0 -248 -52q-116 -52 -201 -140q-86 -89 -135 -206q-49 -118 -49 -250q0 -131 49 -248q48 -118 133 -206q85 -89 201 -141q115 -52 250 -52h36z" />
    <glyph glyph-name="oe" unicode="&#x153;" horiz-adv-x="1618" 
d="M1231 -31q-110 0 -198 53t-138 150q-30 -53 -73 -94q-44 -41 -96 -69q-53 -29 -111 -44q-58 -14 -117 -14q-90 0 -171 30q-82 31 -143 87q-62 55 -98 133q-37 77 -37 170t37 170q36 76 98 131q61 55 143 86q81 30 171 30q58 0 115 -14t109 -40q51 -27 94 -66t73 -90
q45 92 126 142t183 50q54 0 102 -15q48 -16 86 -45q38 -30 65 -72t40 -95h-522q-13 -32 -19 -67t-6 -70q0 -70 20 -136t60 -117q39 -52 97 -83t134 -31q43 0 82 14q39 13 73 36t62 54t50 66l47 -27q-27 -46 -63 -85t-79 -67q-43 -29 -92 -45zM1380 598q-28 53 -78 82
q-51 29 -110 29q-63 0 -115 -28q-52 -29 -84 -83h387zM498 737q-75 0 -140 -30t-113 -81t-76 -117t-28 -138q0 -73 28 -140t76 -118t113 -81t140 -30q73 0 138 30q64 30 112 81t76 118t28 140q0 72 -28 138t-76 117t-112 81z" />
    <glyph glyph-name="Scaron" unicode="&#x160;" horiz-adv-x="1094" 
d="M369 143q-15 -23 -15 -49q0 -30 14 -54q13 -24 34 -41q21 -16 48 -25t54 -9q37 0 72 13q34 13 60 36q25 23 41 56q15 32 15 71q0 55 -28 105q-29 50 -75 99q-46 48 -105 97q-60 48 -121 100q-62 51 -121 107q-60 56 -106 120q-46 63 -74 136q-29 73 -29 158q0 106 42 189
q42 82 113 138q70 56 161 86q91 29 190 29q106 0 201 -32t167 -92q71 -61 113 -149q41 -89 41 -202q0 -46 -10 -94q-11 -49 -31 -96q-21 -47 -50 -89t-66 -74t-81 -50q-45 -19 -96 -19q-21 0 -48 5q-27 4 -50 16q-24 11 -40 30q-16 18 -16 46q0 14 3 26t8 25l51 -17v-8
q0 -22 10 -34q10 -13 25 -19q14 -7 31 -8q17 -2 32 -2q41 0 76 17t63 46q28 28 50 66q21 37 36 77q14 40 22 80q7 40 7 74q0 98 -34 177q-35 78 -95 133q-60 54 -141 83q-82 29 -176 29q-82 0 -158 -24q-77 -25 -135 -72q-59 -48 -94 -117t-35 -158q0 -74 28 -137
q28 -64 74 -120t105 -106q58 -51 120 -100q61 -50 120 -99q58 -49 104 -102t74 -112t28 -127q0 -62 -20 -111t-56 -84q-36 -34 -86 -53q-50 -18 -110 -18q-37 0 -74 10q-38 11 -68 32q-31 21 -50 53q-19 31 -19 73q0 52 33 94zM375 1781l168 -137l170 137h45l-178 -243h-74
l-178 243h47z" />
    <glyph glyph-name="scaron" unicode="&#x161;" horiz-adv-x="733" 
d="M684 53q0 -68 -27 -126q-27 -57 -73 -99q-46 -41 -106 -65q-61 -23 -128 -23q-65 0 -124 22t-103 62q-45 40 -71 95q-27 56 -27 124q0 22 6 49q5 26 18 49q12 23 32 39q19 15 48 15q26 0 42 -19q16 -20 19 -45q-6 2 -12 2h-12q-23 0 -38 -9t-24 -24q-10 -15 -14 -33
q-4 -19 -4 -38q0 -53 22 -96t59 -74q36 -30 83 -47t96 -17q54 0 99 18q44 18 77 50q32 33 50 77q18 45 18 99q0 58 -24 104q-25 46 -62 86t-80 78q-43 37 -80 78q-37 40 -61 87q-25 46 -25 106q0 46 16 82t45 62q28 25 67 39q38 13 83 13q48 0 95 -16q46 -17 83 -51
l-41 -111l-41 14q0 47 -29 77t-75 30q-26 0 -49 -8q-24 -8 -41 -23q-18 -16 -28 -38q-11 -22 -11 -50q0 -45 26 -82q26 -38 65 -74q39 -37 85 -75q46 -39 85 -84q39 -46 65 -102zM270 1060l168 -137l170 137h45l-178 -243h-74l-178 243h47z" />
    <glyph glyph-name="Ydieresis" unicode="&#x178;" horiz-adv-x="1024" 
d="M604 96q0 -15 7 -23q7 -9 19 -13t27 -4q15 -1 31 -1v-55h-270v55q16 0 31 1q15 0 27 4t19 13q7 8 7 23v588l-391 608q-16 25 -31 42q-16 16 -47 16v55h248v-55q-14 0 -27 -6q-14 -6 -14 -21q0 -6 3 -12q2 -6 5 -11l330 -532q6 14 27 58t48 103t57 125q29 65 54 122
q25 56 41 96q16 39 16 45q0 17 -12 25q-13 8 -29 8v55h211v-55q-29 0 -50 -14q-21 -15 -34 -40l-303 -608v-592zM630 1521q23 0 41 -17q17 -17 17 -40q0 -25 -17 -42q-18 -17 -41 -17q-24 0 -41 17q-18 17 -18 42q0 23 18 40zM471 1521q23 0 40 -17t17 -40q0 -25 -17 -42
t-40 -17q-25 0 -42 17q-18 17 -18 42q0 23 18 40z" />
    <glyph glyph-name="Zcaron" unicode="&#x17d;" horiz-adv-x="874" 
d="M49 0l623 1350h-330q-33 0 -62 -12q-29 -13 -51 -35t-34 -51q-13 -29 -13 -62v-107h-53v340h53v-18h629l-623 -1350h424q33 0 62 13q29 12 50 33t34 50q12 29 12 62v154h55v-385h-55v18h-721zM311 1708l168 -137l170 137h45l-178 -243h-74l-178 243h47z" />
    <glyph glyph-name="zcaron" unicode="&#x17e;" horiz-adv-x="512" 
d="M12 0l344 713h-129q-34 0 -58 -24t-24 -58v-72h-55v238h55v-31h334l-344 -711h184q41 0 69 28t28 69v184h55v-363h-55v27h-404zM106 1069l168 -137l170 137h45l-178 -243h-74l-178 243h47z" />
    <glyph glyph-name="florin" unicode="&#x192;" horiz-adv-x="1675" 
d="M1460 158q-51 -53 -121 -84t-145 -31q-40 -22 -85 -32q-45 -11 -91 -11h-23q-35 -19 -75 -28t-82 -9t-82 9q-41 9 -76 28h-23q-46 0 -90 11q-45 10 -86 32q-75 0 -145 31q-71 31 -121 84q-36 26 -69 58q-33 31 -58 69q-25 37 -40 80q-15 42 -15 90q0 71 32 131
q31 60 80 108q-24 47 -37 98q-14 50 -14 103q0 116 59 216t162 175q101 74 236 116q134 42 287 42q152 0 287 -42t235 -116q103 -75 162 -175t59 -216q0 -53 -13 -103q-13 -51 -38 -98q49 -48 81 -108q31 -60 31 -131q0 -48 -15 -90q-15 -43 -40 -80q-25 -38 -58 -69z
M1262 92q48 10 91 34q43 23 75 58t51 80q18 44 18 96q0 44 -12 83q-13 39 -39 73q-6 6 -6 12q0 10 6 16q6 5 14 5q11 0 19 -8q29 -39 44 -85t15 -96q0 -47 -12 -90q34 39 55 86q21 46 21 99q0 65 -32 120q-33 55 -81 99l-4 6q-2 3 -2 8q0 6 4 10q53 94 53 197q0 105 -54 197
q-55 92 -151 161q-96 70 -223 111q-128 41 -274 41q-147 0 -275 -41q-129 -41 -223 -111q-96 -69 -150 -161q-55 -92 -55 -197q0 -51 14 -100q13 -50 39 -97q2 -2 2 -8q0 -8 -4 -16q-48 -44 -80 -99t-32 -120q0 -53 21 -99q20 -47 55 -86q-13 42 -13 90q0 101 60 181
q8 8 18 8q8 0 15 -5q6 -6 6 -16q0 -5 -7 -12q-51 -68 -51 -156q0 -52 19 -96q18 -45 51 -80q32 -35 75 -58q43 -24 91 -34q-47 42 -75 99q-28 56 -28 124q0 53 18 101t52 86q7 10 16 10q8 0 14 -6q5 -6 5 -14v-7q-1 -3 -4 -8q-28 -34 -44 -75q-16 -42 -16 -87q0 -54 21 -100
q21 -47 57 -82q35 -36 82 -59q47 -24 98 -31q-54 42 -86 103q-32 60 -32 133q0 12 6 18t14 6t14 -6t6 -18q0 -61 26 -111q26 -51 69 -87q43 -37 98 -57t113 -20q57 0 112 20t98 57q43 36 69 87q26 50 26 111q0 12 6 18t14 6t15 -6q6 -6 6 -18q0 -73 -32 -133
q-33 -61 -87 -103q51 7 98 31q47 23 83 59q35 35 56 82q21 46 21 100q0 45 -16 87q-16 41 -43 75q-3 5 -3 8q-1 3 -1 7q0 8 5 14t13 6q9 0 16 -10q34 -38 52 -86t18 -101q0 -68 -28 -124zM954 811v-16q0 -7 -2 -15q8 2 16 3t17 1q22 0 45 -4q23 -5 43 -15q19 -11 33 -27
q13 -16 16 -38q22 10 52 15q29 4 55 4q33 0 64 -8q30 -8 54 -24q24 -17 38 -42t14 -59q0 -16 -5 -32q-6 -16 -14 -30q-8 -8 -18 -8q-9 0 -15 6q-6 5 -6 13q0 5 1 7q0 2 4 7q12 15 12 37q0 40 -32 65t-77 25q-49 0 -88 -13q-39 -14 -66 -33q-28 -20 -42 -43q-15 -23 -15 -42
q0 -11 3 -22t12 -20t26 -14q16 -6 43 -6q17 0 33 2q15 2 31 7q0 2 2 2h4q8 0 14 -7t6 -16q-3 -34 -21 -64t-46 -53q-29 -20 -64 -32q-35 -13 -75 -13q-48 0 -92 19q-45 18 -76 53q-31 -35 -75 -53q-45 -19 -93 -19q-41 0 -76 13q-35 12 -64 32q-27 23 -45 53q-19 30 -22 64
q0 9 6 16t12 7h4q2 0 4 -2q16 -5 32 -7q15 -2 32 -2q28 0 46 6q17 5 27 14q9 9 12 20t3 22q0 18 -15 41t-43 43q-29 20 -69 34q-40 13 -90 13q-22 0 -41 -6q-20 -7 -34 -19q-15 -12 -23 -28q-9 -17 -9 -37q0 -21 13 -37q3 -5 4 -7v-7q0 -19 -21 -19q-10 0 -18 8
q-8 14 -13 30q-6 16 -6 32q0 34 14 59t38 42q24 16 55 24q30 8 63 8q26 0 56 -4q29 -5 51 -15q3 22 17 38t34 27q19 10 41 15q22 4 41 4q9 0 19 -1q9 -1 18 -3q-2 10 -2 18v19q0 26 3 50q2 23 7 40q9 35 25 35q15 0 24 -35q3 -11 4 -23l4 -28l-36 -45h39q0 -15 -2 -30
t-5 -27q37 -25 37 -64q0 -34 -18 -51q-18 -18 -43 -29q-23 -9 -42 -22q-20 -14 -20 -31q0 -18 15 -31q14 -13 35 -21q21 -9 46 -12q24 -4 44 -4t44 4q24 3 45 12q20 8 34 21t14 31q0 16 -17 29q-18 13 -43 24q-24 10 -42 27q-19 16 -19 53q0 39 37 64q-3 14 -4 30
q-2 16 -2 33q0 26 3 50q2 23 7 40q9 35 25 35q15 0 24 -35q3 -11 5 -24q1 -14 3 -29l-37 -43h39zM979 492q-29 -25 -69 -34t-72 -9q-16 0 -35 2t-37 7q-19 5 -37 14q-18 8 -33 20q-31 -25 -68 -37q-37 -13 -75 -13h-22q-10 0 -21 2q10 -23 27 -40q17 -18 39 -30
q21 -12 45 -18t49 -6q43 0 85 20q41 19 64 56q5 6 10 8q4 2 9 2t10 -2t8 -8q22 -37 64 -56q42 -20 86 -20q24 0 48 6t45 18t38 30q17 17 26 40q-9 -2 -20 -2h-21q-38 0 -75 13zM989 758q-48 0 -80 -23q-28 -19 -28 -45q0 -29 28 -45q33 -22 80 -22t78 22q29 16 29 45
q0 26 -29 45zM686 758q-46 0 -78 -23q-28 -19 -28 -45q0 -29 28 -45q33 -22 78 -22q47 0 80 22q29 16 29 45q0 26 -29 45zM680 1065q-53 -12 -98 -30q-46 -19 -80 -46t-53 -63t-19 -84q0 -16 2 -30q2 -15 2 -34q0 -9 -6 -14q-6 -6 -14 -6q-6 0 -11 4q-6 3 -8 14q-6 34 -6 66
q0 69 26 134q26 64 74 114q-37 23 -66 59t-40 86q0 9 6 14q6 4 14 4q7 0 13 -3q6 -4 8 -13q7 -33 27 -59t47 -43q27 -18 59 -27q32 -10 64 -10q30 0 60 9q29 8 55 24q25 15 45 39q19 23 28 53q6 14 20 14q18 0 21 -14q9 -30 29 -53q19 -24 45 -39q26 -16 56 -24q30 -9 60 -9
q31 0 63 10q32 9 59 27q27 17 47 43q19 26 26 59q2 9 8 13q6 3 12 3q8 0 15 -5q6 -5 6 -19q-9 -44 -35 -77t-63 -54q51 -53 79 -118q27 -66 27 -138v-33q-1 -16 -4 -33q-3 -11 -8 -14q-6 -4 -12 -4q-8 0 -14 7q-7 7 -7 19q6 28 6 58q0 51 -16 88q-17 37 -46 63
q-29 25 -68 41q-40 16 -87 25q-29 5 -58 14q-29 8 -55 21q-26 12 -48 31q-22 18 -38 44q-24 -42 -63 -67z" />
    <glyph glyph-name="circumflex" unicode="&#x2c6;" horiz-adv-x="567" 
d="M248 1083h71l181 -243h-47l-168 137l-170 -137h-47z" />
    <glyph glyph-name="caron" unicode="&#x2c7;" horiz-adv-x="528" 
d="M96 1083l168 -137l170 137h45l-178 -243h-74l-178 243h47z" />
    <glyph glyph-name="tilde" unicode="&#x2dc;" horiz-adv-x="567" 
d="M182 985q31 0 61 -12q29 -12 58 -26q28 -14 55 -26t54 -12q29 0 48 17t27 45h33q0 -27 -10 -51q-11 -24 -28 -41q-18 -18 -41 -28q-24 -11 -50 -11q-31 0 -61 12q-30 11 -59 25q-29 13 -57 25q-29 11 -56 11q-28 0 -47 -14q-19 -15 -27 -43h-33v14q0 26 12 48
q11 21 30 36q18 15 42 23z" />
    <glyph glyph-name="endash" unicode="&#x2013;" horiz-adv-x="1016" 
d="M967 528v-69h-918v69h918z" />
    <glyph glyph-name="emdash" unicode="&#x2014;" horiz-adv-x="1630" 
d="M1581 528v-69h-1532v69h1532z" />
    <glyph glyph-name="quoteleft" unicode="&#x2018;" horiz-adv-x="295" 
d="M154 1057q-27 0 -47 10t-32 28q-13 17 -19 40q-7 22 -7 47q0 31 12 69q11 38 33 76t53 72t70 55l25 -33q-23 -16 -40 -38t-29 -47t-19 -50q-8 -25 -11 -47l9 2q21 0 38 -7q17 -8 30 -21q12 -13 19 -30t7 -36q0 -18 -7 -34q-7 -17 -19 -29q-13 -13 -30 -20z" />
    <glyph glyph-name="quoteright" unicode="&#x2019;" horiz-adv-x="295" 
d="M141 1454q27 0 47 -10q20 -11 33 -28q12 -17 19 -39q6 -23 6 -48q0 -31 -11 -69q-12 -38 -34 -76t-53 -72t-70 -55l-25 33q22 16 40 38q17 22 29 47q12 24 20 49q7 25 10 48l-9 -2q-21 0 -38 8q-17 7 -29 20q-13 13 -20 30t-7 36q0 18 7 35q7 16 20 29q12 12 29 19z" />
    <glyph glyph-name="quotesinglbase" unicode="&#x201a;" horiz-adv-x="295" 
d="M141 184q27 0 47 -10q20 -11 33 -28q12 -17 19 -39q6 -23 6 -48q0 -31 -11 -69q-12 -38 -34 -76t-53 -72t-70 -55l-25 33q22 16 40 38q17 22 29 47t20 50q7 25 10 47l-9 -2q-21 0 -38 8q-17 7 -29 20q-13 13 -20 30t-7 36q0 18 7 35q7 16 20 29q12 12 29 19z" />
    <glyph glyph-name="quotedblleft" unicode="&#x201c;" horiz-adv-x="520" 
d="M154 1057q-27 0 -47 10t-32 28q-13 17 -19 40q-7 22 -7 47q0 31 12 69q11 38 33 76t53 72t70 55l25 -33q-23 -16 -40 -38t-29 -47t-19 -50q-8 -25 -11 -47l9 2q21 0 38 -7q17 -8 30 -21q12 -13 19 -30t7 -36q0 -18 -7 -34q-7 -17 -19 -29q-13 -13 -30 -20zM381 1057
q-27 0 -47 10t-32 28q-13 17 -19 40q-7 22 -7 47q0 31 12 69q11 38 33 76t53 72t70 55l25 -33q-22 -16 -39 -38t-29 -47t-19 -50q-8 -25 -11 -47l8 2q21 0 38 -7q17 -8 30 -21q12 -13 19 -30t7 -36q0 -18 -7 -34q-7 -17 -19 -29q-13 -13 -30 -20z" />
    <glyph glyph-name="quotedblright" unicode="&#x201d;" horiz-adv-x="520" 
d="M369 1454q27 0 47 -10q19 -11 32 -28q12 -17 19 -39q6 -23 6 -48q0 -31 -11 -69q-12 -38 -33 -76q-22 -38 -53 -72q-32 -34 -71 -55l-24 33q22 16 39 38t29 47q12 24 20 49q7 25 10 48l-8 -2q-21 0 -38 8q-18 7 -30 20q-13 13 -20 30t-7 36q0 18 7 35q7 16 20 29
q13 12 30 19zM141 1454q27 0 47 -10q20 -11 33 -28q12 -17 19 -39q6 -23 6 -48q0 -31 -11 -69q-12 -38 -34 -76t-53 -72t-70 -55l-25 33q22 16 40 38q17 22 29 47q12 24 20 49q7 25 10 48l-9 -2q-21 0 -38 8q-17 7 -29 20q-13 13 -20 30t-7 36q0 18 7 35q7 16 20 29
q12 12 29 19z" />
    <glyph glyph-name="quotedblbase" unicode="&#x201e;" horiz-adv-x="520" 
d="M369 184q27 0 47 -10q19 -11 32 -28q12 -17 19 -39q6 -23 6 -48q0 -31 -11 -69q-12 -38 -33 -76q-22 -38 -53 -72q-32 -34 -71 -55l-24 33q22 16 39 38t29 47t20 50q7 25 10 47l-8 -2q-21 0 -38 8q-18 7 -30 20q-13 13 -20 30t-7 36q0 18 7 35q7 16 20 29q13 12 30 19z
M141 184q27 0 47 -10q20 -11 33 -28q12 -17 19 -39q6 -23 6 -48q0 -31 -11 -69q-12 -38 -34 -76t-53 -72t-70 -55l-25 33q22 16 40 38q17 22 29 47t20 50q7 25 10 47l-9 -2q-21 0 -38 8q-17 7 -29 20q-13 13 -20 30t-7 36q0 18 7 35q7 16 20 29q12 12 29 19z" />
    <glyph glyph-name="dagger" unicode="&#x2020;" horiz-adv-x="1024" 
d="M393 1268q35 12 66 36q31 23 53 54q22 -31 53 -54q31 -24 66 -36q-40 -76 -60 -159q-21 -84 -26 -169q88 3 175 23q87 19 165 61q27 -72 90 -119q-31 -21 -53 -51q-23 -30 -37 -66q-79 42 -165 62q-87 19 -175 22q1 -46 9 -110q7 -64 20 -131t31 -129q17 -62 38 -103
q-31 -52 -49 -109q-18 -58 -27 -117q-10 -60 -14 -121t-6 -120q-3 -72 -3 -145q-1 -73 -1 -145h-62v145q-1 73 -4 145q-2 59 -6 120t-13 121q-10 59 -28 117q-18 57 -49 109q22 41 40 103t31 129q12 67 19 131t8 110q-88 -3 -174 -22q-87 -20 -166 -62q-12 36 -35 66
q-24 30 -55 51q31 23 55 54q23 30 35 65q79 -42 166 -61q86 -20 174 -23q-5 85 -25 169z" />
    <glyph glyph-name="daggerdbl" unicode="&#x2021;" horiz-adv-x="1024" 
d="M885 1110q27 -75 90 -119q-31 -21 -53 -52q-23 -31 -37 -67q-78 42 -165 63q-87 20 -175 23q1 -41 7 -72q6 -32 17 -61q10 -29 26 -57q15 -29 36 -63q-21 -35 -36 -64q-16 -29 -26 -58q-11 -29 -17 -61t-7 -73q88 3 175 24q87 20 165 62q14 -36 37 -67q22 -31 53 -52
q-63 -44 -90 -119q-78 42 -165 63q-87 20 -175 23q1 -42 8 -72q6 -31 17 -57t27 -53q15 -27 34 -62q-22 -38 -37 -89q-16 -51 -26 -106t-14 -109q-5 -53 -5 -97q0 -51 6 -103h-86q5 26 6 51v52q0 44 -4 97q-5 54 -14 109q-10 55 -26 106t-38 89q19 35 35 62q15 27 26 53
t17 57q6 30 8 72q-88 -3 -174 -23q-87 -21 -166 -63q-12 37 -35 67q-24 30 -55 52q31 21 55 52q23 31 35 67q79 -42 166 -62q86 -21 174 -24q-2 41 -7 73q-6 32 -16 61q-11 29 -26 58q-16 29 -37 64q22 34 38 62q15 28 26 57q10 29 15 61t7 73q-88 -3 -174 -23
q-87 -21 -166 -63q-12 36 -35 67q-24 31 -55 52q31 22 55 52q23 30 35 67q79 -42 166 -62q86 -21 174 -24q-2 42 -8 73q-6 30 -17 56t-26 53q-16 27 -35 62q35 12 66 36q31 23 53 54q22 -31 53 -54q31 -24 66 -36q-19 -35 -34 -62q-16 -27 -27 -53t-17 -56q-7 -31 -8 -73
q88 3 175 24z" />
    <glyph glyph-name="bullet" unicode="&#x2022;" horiz-adv-x="727" 
d="M365 1016q64 0 121 -25t100 -67q43 -43 68 -100q24 -58 24 -122q0 -65 -24 -122q-25 -58 -68 -101t-100 -67q-57 -25 -121 -25q-66 0 -123 25q-58 24 -100 67q-43 43 -68 101q-25 57 -25 122q0 64 25 122q25 57 68 100q42 42 100 67z" />
    <glyph glyph-name="ellipsis" unicode="&#x2026;" horiz-adv-x="848" 
d="M141 184q19 0 36 -7t30 -19q12 -13 19 -30t7 -36t-7 -36t-19 -29q-13 -13 -30 -20t-36 -7t-36 7t-29 20q-13 12 -20 29t-7 36t7 36t20 30q12 12 29 19zM424 184q19 0 36 -7t30 -19q12 -13 19 -30t7 -36t-7 -36t-19 -29q-13 -13 -30 -20t-36 -7t-36 7t-29 20
q-13 12 -20 29t-7 36t7 36t20 30q12 12 29 19zM707 184q19 0 36 -7t30 -19q12 -13 19 -30t7 -36t-7 -36t-19 -29q-13 -13 -30 -20t-36 -7q-20 0 -36 7q-17 7 -30 20q-13 12 -20 29t-7 36t7 36t20 30q13 12 30 19z" />
    <glyph glyph-name="perthousand" unicode="&#x2030;" horiz-adv-x="1640" 
d="M1591 535q0 -62 -23 -129q-24 -68 -65 -125q-42 -57 -100 -94t-127 -37q-38 0 -66 14q-29 14 -48 38t-28 56q-10 32 -10 68q0 59 23 127q22 67 62 125q40 57 96 95q55 38 122 38q36 0 66 -14q30 -15 52 -39q21 -25 34 -57zM1331 236q39 0 69 24q30 23 51 58q20 34 30 74
q10 39 10 71q0 24 -6 54q-7 30 -20 56q-14 25 -35 43q-22 17 -52 17q-39 0 -70 -26t-52 -63q-21 -38 -32 -80q-12 -42 -12 -75q0 -27 7 -54q7 -28 22 -49q14 -22 37 -36zM1085 535q0 -62 -23 -129q-24 -68 -65 -125q-42 -57 -99 -94q-58 -37 -126 -37q-38 0 -66 14
q-29 14 -48 38t-28 56t-9 68q0 59 22 127q22 67 62 125q40 57 96 95q55 38 121 38q36 0 66 -14q30 -15 52 -39q21 -25 33 -57zM827 236q39 0 69 24q29 23 50 58q20 34 31 74q10 39 10 71q0 24 -6 54q-7 30 -20 56q-14 25 -35 43q-22 17 -52 17q-39 0 -70 -26t-52 -63
q-22 -38 -33 -80q-12 -42 -12 -75q0 -27 7 -54q7 -28 22 -49q15 -22 38 -36zM782 1147q-62 -47 -135 -71q-74 -24 -151 -27q18 -41 18 -86q0 -62 -23 -129q-24 -68 -65 -125q-42 -57 -99 -94q-58 -37 -126 -37q-39 0 -67 15q-29 14 -47 39q-19 24 -28 56q-10 31 -10 66
q0 59 22 127q22 67 62 125q39 57 95 95q55 38 122 38q31 0 61 -5q29 -6 58 -6q115 0 214 47t167 140h82l-651 -1370h-152zM256 664q38 0 68 24q30 23 51 58q20 34 31 74q10 39 10 71q0 25 -6 55q-7 30 -21 56q-14 25 -35 42q-22 17 -53 17q-39 0 -70 -26t-52 -63
q-21 -38 -32 -80q-12 -42 -12 -75q0 -27 8 -54q7 -28 22 -49q15 -22 38 -36z" />
    <glyph glyph-name="guilsinglleft" unicode="&#x2039;" horiz-adv-x="303" 
d="M254 266h-68l-137 254l137 254h68l-109 -254z" />
    <glyph glyph-name="guilsinglright" unicode="&#x203a;" horiz-adv-x="303" 
d="M49 774h66l139 -254l-139 -254h-66l107 254z" />
    <glyph glyph-name="Euro" unicode="&#x20ac;" horiz-adv-x="1513" 
d="M1464 457v-301h-53v26q-94 -81 -211 -128q-117 -48 -242 -48q-128 0 -243 41t-207 116t-155 180q-63 104 -85 230h-219l31 54h182q-2 17 -3 34q-1 16 -1 33t1 34t3 34h-213l31 55h188q22 127 85 232q63 104 155 179q92 74 207 115t243 41q125 0 242 -47t211 -131v29h53
v-301h-53q0 90 -39 162q-40 71 -104 121q-64 49 -145 76q-82 26 -165 26q-114 0 -212 -37t-174 -104t-127 -159t-70 -202h889l-33 -55h-862q-2 -17 -3 -34t-1 -34t1 -33q1 -17 3 -34h809l-33 -54h-770q19 -110 70 -202q51 -93 127 -160t174 -104t212 -37q83 0 165 27
q81 26 145 76t104 122q39 71 39 162h53z" />
    <glyph glyph-name="trademark" unicode="&#x2122;" horiz-adv-x="807" 
d="M725 905h33v-43h-109v43h35v426l-82 -205q-6 -17 -10 -34t-4 -35h-41v14q0 6 2 12l-86 207v-385h33v-43h-101v43h27v492h-31v41h78l109 -262l104 262h76v-41h-33v-492zM227 1397v-492h33v-43h-106v43h30v492h-41q-20 0 -30 -8q-11 -9 -16 -23t-6 -31q-1 -18 -1 -37h-41
v164h41v-24h232v24h40v-164h-40q0 18 -1 36q-1 17 -6 32q-5 14 -16 23q-11 8 -31 8h-41z" />
    </font>
</defs>
</svg>
